<svg height="496pt" viewBox="0 0 496 496" width="496pt" xmlns="http://www.w3.org/2000/svg"><path d="m56 344c0 52.9375 43.0625 96 96 96s96-43.0625 96-96-43.0625-96-96-96-96 43.0625-96 96zm96-80c44.113281 0 80 35.886719 80 80s-35.886719 80-80 80-80-35.886719-80-80 35.886719-80 80-80zm0 0"/><path d="m152 392c26.472656 0 48-21.527344 48-48s-21.527344-48-48-48-48 21.527344-48 48 21.527344 48 48 48zm0-80c17.648438 0 32 14.351562 32 32s-14.351562 32-32 32-32-14.351562-32-32 14.351562-32 32-32zm0 0"/><path d="m496 176v-176h-224v80h-128v112h-22.207031l-7.640625 29.832031c-7.558594 2.335938-14.863282 5.351563-21.792969 9.007813l-26.480469-15.6875-42.71875 42.726562 15.679688 26.472656c-3.65625 6.929688-6.664063 14.234376-9 21.800782l-29.839844 7.640625v60.421875l29.832031 7.640625c2.335938 7.558593 5.351563 14.863281 9 21.800781l-15.679687 26.472656 42.71875 42.726563 26.480468-15.6875c6.929688 3.65625 14.234376 6.671875 21.792969 9.007812l7.648438 29.824219h60.421875l7.640625-29.832031c7.558593-2.335938 14.863281-5.351563 21.792969-9.007813l26.480468 15.6875 42.71875-42.726562-15.679687-26.472656c3.65625-6.929688 6.664062-14.234376 9-21.800782l29.832031-7.640625v-60.421875l-29.832031-7.640625c-2.335938-7.558593-5.351563-14.863281-9-21.800781l15.679687-26.472656-42.71875-42.726563-26.480468 15.6875c-6.929688-3.65625-14.234376-6.671875-21.792969-9.007812l-7.648438-29.824219h-22.207031v-96h112v80h104v64h-61.769531l-21.335938 64h83.105469v80h-80v49.136719c-13.761719 3.574219-24 15.992187-24 30.863281 0 17.648438 14.351562 32 32 32s32-14.351562 32-32c0-14.871094-10.238281-27.289062-24-30.863281v-33.136719h64v33.136719c-13.761719 3.574219-24 15.992187-24 30.863281 0 17.648438 14.351562 32 32 32s32-14.351562 32-32c0-14.871094-10.238281-27.289062-24-30.863281v-33.136719h64v33.136719c-13.761719 3.574219-24 15.992187-24 30.863281 0 17.648438 14.351562 32 32 32s32-14.351562 32-32c0-14.871094-10.238281-27.289062-24-30.863281v-49.136719h-80v-80h61.769531l21.335938-64h-83.105469v-64zm-319.359375 58.761719 4.511719 1.214843c9.390625 2.527344 18.351562 6.230469 26.648437 11.007813l4.046875 2.335937 23.746094-14.074218 25.160156 25.167968-14.066406 23.746094 2.335938 4.054688c4.777343 8.28125 8.480468 17.242187 11.007812 26.632812l1.214844 4.511719 26.753906 6.847656v35.578125l-26.761719 6.847656-1.214843 4.511719c-2.527344 9.390625-6.230469 18.351563-11.007813 26.632813l-2.335937 4.054687 14.0625 23.742188-25.15625 25.167969-23.746094-14.070313-4.046875 2.335937c-8.289063 4.777344-17.257813 8.480469-26.648438 11.007813l-4.511719 1.214844-6.839843 26.769531h-35.578125l-6.847656-26.761719-4.511719-1.214843c-9.390625-2.527344-18.351563-6.230469-26.648438-11.007813l-4.046875-2.335937-23.746094 14.074218-25.15625-25.167968 14.0625-23.746094-2.335937-4.054688c-4.777344-8.28125-8.480469-17.242187-11.007813-26.632812l-1.214843-4.511719-26.761719-6.847656v-35.578125l26.761719-6.847656 1.214843-4.511719c2.527344-9.390625 6.230469-18.351563 11.007813-26.632813l2.335937-4.054687-14.0625-23.742188 25.15625-25.167969 23.746094 14.070313 4.046875-2.335937c8.289063-4.777344 17.257813-8.480469 26.648438-11.007813l4.511719-1.214844 6.839843-26.769531h35.578125zm143.359375 229.238281c0 8.824219-7.175781 16-16 16s-16-7.175781-16-16 7.175781-16 16-16 16 7.175781 16 16zm80 0c0 8.824219-7.175781 16-16 16s-16-7.175781-16-16 7.175781-16 16-16 16 7.175781 16 16zm80 0c0 8.824219-7.175781 16-16 16s-16-7.175781-16-16 7.175781-16 16-16 16 7.175781 16 16zm-37.769531-176h-127.132813l10.664063-32h127.132812zm-154.230469-272h192v144h-192zm0 0"/><path d="m304 32h160v16h-160zm0 0"/><path d="m304 64h160v16h-160zm0 0"/><path d="m304 96h160v16h-160zm0 0"/><path d="m376 128h16v16h-16zm0 0"/><path d="m408 128h16v16h-16zm0 0"/><path d="m440 128h16v16h-16zm0 0"/><path d="m344 128h16v16h-16zm0 0"/><path d="m312 128h16v16h-16zm0 0"/></svg>