<svg height="496pt" viewBox="0 0 496 496" width="496pt" xmlns="http://www.w3.org/2000/svg"><path d="m56 0c-30.871094 0-56 25.121094-56 56v192c0 13.230469 10.769531 24 24 24h8v186.664062l28 37.335938h20v-224h8c13.230469 0 24-10.769531 24-24v-192c0-30.878906-25.128906-56-56-56zm8 474.664062-16-21.335937v-181.328125h16zm24-218.664062h-64c-4.414062 0-8-3.59375-8-8v-8h80v8c0 4.40625-3.585938 8-8 8zm8-32h-32v-32h-16v32h-32v-168c0-22.054688 17.945312-40 40-40s40 17.945312 40 40zm0 0"/><path d="m48 32h16v144h-16zm0 0"/><path d="m283.527344 8.824219-11.527344-5.679688v80.328125l-32 19.199219-32-19.199219v-80.328125l-11.527344 5.679688c-32.367187 15.9375-52.472656 47.550781-52.472656 82.519531 0 31.679688 16.542969 60.832031 44.257812 77.96875 7.351563 4.542969 11.742188 12.238281 11.742188 20.574219v266.113281c0 22.054688 17.945312 40 40 40s40-17.945312 40-40v-266.113281c0-8.335938 4.390625-16.023438 11.753906-20.574219 27.703125-17.144531 44.246094-46.289062 44.246094-77.96875 0-34.96875-20.105469-66.582031-52.472656-82.519531zm-.191406 146.878906c-12.113282 7.480469-19.335938 20.265625-19.335938 34.183594v266.113281c0 13.230469-10.769531 24-24 24s-24-10.769531-24-24v-266.113281c0-13.917969-7.222656-26.695313-19.328125-34.183594-22.960937-14.199219-36.671875-38.261719-36.671875-64.359375 0-24.433594 11.984375-46.929688 32-61.265625v62.457031l48 28.800782 48-28.800782v-62.457031c20.015625 14.335937 32 36.832031 32 61.265625 0 26.097656-13.710938 50.160156-36.664062 64.359375zm0 0"/><path d="m248 456c0 4.417969-3.582031 8-8 8s-8-3.582031-8-8 3.582031-8 8-8 8 3.582031 8 8zm0 0"/><path d="m465.160156 272h-33.160156v-48h16v-184c0-22.054688-17.945312-40-40-40s-40 17.945312-40 40v184h16v48h-33.160156c-17.007813 0-30.839844 13.832031-30.839844 30.839844v5.136718c0 3.589844.625 7.136719 1.855469 10.535157l57.160156 157.183593c4.417969 12.144532 16.0625 20.304688 28.984375 20.304688s24.566406-8.160156 28.984375-20.304688l57.167969-157.191406c1.222656-3.390625 1.847656-6.9375 1.847656-10.527344v-5.136718c0-17.007813-13.832031-30.839844-30.839844-30.839844zm-17.96875 16c-3.71875 18.230469-19.871094 32-39.191406 32s-35.472656-13.769531-39.191406-32zm-39.191406-272c13.230469 0 24 10.769531 24 24v136h-16v16h16v16h-48v-40h16v-16h-16v-112c0-13.230469 10.769531-24 24-24zm-8 208h16v48h-16zm80 83.976562c0 1.726563-.304688 3.4375-.886719 5.070313l-57.160156 157.183594c-2.121094 5.839843-7.738281 9.769531-13.953125 9.769531s-11.832031-3.929688-13.953125-9.769531l-57.152344-157.175781c-.589843-1.640626-.894531-3.351563-.894531-5.078126v-5.136718c0-8.175782 6.65625-14.839844 14.839844-14.839844h1.792968c3.902344 27.097656 27.207032 48 55.359376 48 28.152343 0 51.457031-20.902344 55.359374-48h1.792969c8.199219 0 14.855469 6.664062 14.855469 14.839844zm0 0"/><path d="m416 40c0 4.417969-3.582031 8-8 8s-8-3.582031-8-8 3.582031-8 8-8 8 3.582031 8 8zm0 0"/></svg>