<svg height="496pt" viewBox="0 0 496 496" width="496pt" xmlns="http://www.w3.org/2000/svg"><path d="m327.863281 32.015625-.214843 16c39.144531.535156 74.960937 18.832031 98.261718 50.175781l12.84375-9.542968c-26.296875-35.382813-66.714844-56.023438-110.890625-56.632813zm0 0"/><path d="m495.871094 142.609375c-14.574219-82.632813-86.0625-142.609375-169.976563-142.609375h-17.207031l-16 16h-9.375l-16-16h-59.3125v128h59.3125l16-16h9.375l16 16h3.3125v80h-16v232c0 30.871094 25.128906 56 56 56s56-25.128906 56-56v-232h-16v-79.824219c32.199219 1.449219 63.214844 11.578125 90.160156 29.535157l13.839844 9.234374v-22.945312zm-271.871094-126.609375h16v96h-16zm168 208v16h-80v-16zm-40 256c-22.054688 0-40-17.945312-40-40v-184h80v184c0 22.054688-17.945312 40-40 40zm32-368h-8v96h-48v-96h-12.6875l-16-16h-22.625l-16 16h-4.6875v-96h4.6875l16 16h22.625l16-16h10.582031c73.128907 0 135.867188 50.199219 152.425781 120.617188-28.777343-16.144532-61.089843-24.617188-94.320312-24.617188zm0 0"/><path d="m352 272c-13.230469 0-24 10.769531-24 24v144c0 13.230469 10.769531 24 24 24s24-10.769531 24-24v-144c0-13.230469-10.769531-24-24-24zm8 168c0 4.414062-3.585938 8-8 8s-8-3.585938-8-8v-144c0-4.414062 3.585938-8 8-8s8 3.585938 8 8zm0 0"/><path d="m232 184h-80c-13.230469 0-24 10.769531-24 24v16c0 13.230469 10.769531 24 24 24h8v202.664062l32 42.671876 32-42.671876v-202.664062h8c13.230469 0 24-10.769531 24-24v-16c0-13.230469-10.769531-24-24-24zm-24 261.335938-16 21.328124-16-21.328124v-197.335938h32zm32-221.335938c0 4.414062-3.585938 8-8 8h-80c-4.414062 0-8-3.585938-8-8v-16c0-4.414062 3.585938-8 8-8h80c4.414062 0 8 3.585938 8 8zm0 0"/><path d="m128 131.3125v-43.3125h-128v43.3125l32 32v287.351562l32 42.671876 32-42.671876v-287.351562zm-84.6875 20.6875-16-16h73.375l-16 16zm68.6875-48v16h-96v-16zm-48 362.664062-16-21.328124v-277.335938h32v277.335938zm0 0"/></svg>