<svg height="496pt" viewBox="0 0 496 496" width="496pt" xmlns="http://www.w3.org/2000/svg"><path d="m496 141.671875v-43.34375l-20.136719-7.054687c-2.160156-7.503907-5.152343-14.730469-8.941406-21.5625l9.253906-19.238282-30.648437-30.648437-19.238282 9.246093c-6.839843-3.789062-14.066406-6.789062-21.554687-8.941406l-7.0625-20.128906h-43.34375l-7.0625 20.136719c-7.496094 2.152343-14.714844 5.152343-21.554687 8.941406l-19.238282-9.246094-30.640625 30.648438 9.238281 19.246093c-3.789062 6.832032-6.78125 14.058594-8.933593 21.554688l-20.136719 7.046875v13.671875h-176v-64h-40c-22.054688 0-40 17.945312-40 40v368c0 22.054688 17.945312 40 40 40h360v-262.640625l4.734375-13.496094c7.496094-2.152343 14.714844-5.152343 21.554687-8.941406l19.238282 9.246094 30.648437-30.648438-9.253906-19.238281c3.796875-6.832031 6.789063-14.058594 8.941406-21.5625zm-480-53.671875c0-13.230469 10.769531-24 24-24h24v352h-24c-9 0-17.3125 2.992188-24 8.015625zm24 392c-13.230469 0-24-10.769531-24-24s10.769531-24 24-24h40v-304h176v13.671875l20.136719 7.054687c2.160156 7.503907 5.152343 14.722657 8.933593 21.554688l-2.742187 5.71875h-26.328125v-16h-48v16h-64v-16h-48v48h16v72h-16v48h16v72h-16v48h48v-16h64v16h48v-16h64v16h48v-48h-16v-72h16v-48h-16v-46.640625l2.328125 6.640625h29.671875v240zm296-168v-16h16v16zm0-32h-16v48h16v72h-16v16h-64v-16h-48v16h-64v-16h-16v-72h16v-48h-16v-72h16v-16h64v16h48v-16h22.296875l28.175781 28.175781 19.238282-9.246093c3.34375 1.855468 6.777343 3.503906 10.289062 4.964843zm16 136v16h-16v-16zm-112 0v16h-16v-16zm-112 0v16h-16v-16zm0-120v16h-16v-16zm-16-104v-16h16v16zm112 0v-16h16v16zm238.472656-55.519531-1.023437 4.230469c-2.144531 8.839843-5.640625 17.273437-10.394531 25.050781l-2.277344 3.710937 8.0625 16.765625-14.601563 14.601563-16.765625-8.054688-3.710937 2.269532c-7.792969 4.761718-16.21875 8.257812-25.058594 10.394531l-4.222656 1.023437-6.152344 17.527344h-20.65625l-6.152344-17.535156-4.222656-1.023438c-8.832031-2.136718-17.265625-5.632812-25.058594-10.394531l-3.710937-2.269531-16.765625 8.054687-14.609375-14.609375 8.054687-16.757812-2.261719-3.710938c-4.761718-7.785156-8.25-16.210937-10.394531-25.050781l-1.023437-4.230469-17.527344-6.144531v-20.65625l17.527344-6.152344 1.023437-4.230469c2.144531-8.839843 5.632813-17.273437 10.394531-25.050781l2.261719-3.710937-8.054687-16.757813 14.609375-14.609375 16.765625 8.054688 3.710937-2.269532c7.792969-4.761718 16.21875-8.257812 25.058594-10.394531l4.222656-1.023437 6.152344-17.527344h20.65625l6.152344 17.535156 4.222656 1.023438c8.832031 2.136718 17.265625 5.632812 25.058594 10.394531l3.710937 2.269531 16.765625-8.054687 14.601563 14.601562-8.0625 16.765625 2.277344 3.710938c4.753906 7.777344 8.25 16.203125 10.394531 25.050781l1.023437 4.230469 17.527344 6.144531v20.65625zm0 0"/><path d="m376 48c-39.703125 0-72 32.304688-72 72s32.296875 72 72 72 72-32.304688 72-72-32.296875-72-72-72zm-55.359375 80h63.359375v47.359375c-2.625.375-5.28125.640625-8 .640625-28.152344 0-51.457031-20.902344-55.359375-48zm79.359375 42.519531v-58.519531h-79.359375c3.902344-27.097656 27.207031-48 55.359375-48 30.871094 0 56 25.121094 56 56 0 22.28125-13.113281 41.511719-32 50.519531zm0 0"/></svg>