<svg height="496pt" viewBox="0 0 496 496" width="496pt" xmlns="http://www.w3.org/2000/svg"><path d="m456 128h-8v-128h-400v128h-8c-22.054688 0-40 17.945312-40 40v240c0 22.054688 17.945312 40 40 40h104v32h-32v16h272v-16h-32v-32h104c22.054688 0 40-17.945312 40-40v-240c0-22.054688-17.945312-40-40-40zm-392-48h368v256h-368zm368-64v48h-368v-48zm-392 128h8v208h400v-208h8c13.230469 0 24 10.769531 24 24v216h-464v-216c0-13.230469 10.769531-24 24-24zm296 336h-176v-32h176zm120-48h-416c-13.230469 0-24-10.769531-24-24v-8h464v8c0 13.230469-10.769531 24-24 24zm0 0"/><path d="m80 32h16v16h-16zm0 0"/><path d="m112 32h16v16h-16zm0 0"/><path d="m144 32h16v16h-16zm0 0"/><path d="m252.246094 112h-8.492188c-24.121094 0-43.753906 19.632812-43.753906 43.753906v12.246094h16v-12.246094c0-15.304687 12.449219-27.753906 27.753906-27.753906h8.492188c15.304687 0 27.753906 12.449219 27.753906 27.753906 0 9.695313-5.167969 18.8125-13.480469 23.796875l-26.519531 15.921875v44.527344h16v-35.472656l18.761719-11.253906c13.101562-7.859376 21.238281-22.242188 21.238281-37.519532 0-24.121094-19.632812-43.753906-43.753906-43.753906zm0 0"/><path d="m248 256c-13.230469 0-24 10.769531-24 24s10.769531 24 24 24 24-10.769531 24-24-10.769531-24-24-24zm0 32c-4.40625 0-8-3.59375-8-8s3.59375-8 8-8 8 3.59375 8 8-3.59375 8-8 8zm0 0"/><path d="m80 96h104v16h-104zm0 0"/><path d="m80 128h104v16h-104zm0 0"/><path d="m80 160h104v16h-104zm0 0"/><path d="m80 192h104v16h-104zm0 0"/><path d="m80 224h104v16h-104zm0 0"/><path d="m312 176h104v16h-104zm0 0"/><path d="m312 208h104v16h-104zm0 0"/><path d="m312 240h104v16h-104zm0 0"/><path d="m312 272h104v16h-104zm0 0"/><path d="m312 304h104v16h-104zm0 0"/></svg>