<svg height="496pt" viewBox="0 0 496 496" width="496pt" xmlns="http://www.w3.org/2000/svg"><path d="m496 0h-496v384h64v112h368v-112h64zm-16 16v48h-464v-48zm-64 464h-336v-336h336zm16-112v-240h-368v240h-48v-288h464v288zm0 0"/><path d="m32 32h16v16h-16zm0 0"/><path d="m64 32h16v16h-16zm0 0"/><path d="m96 32h16v16h-16zm0 0"/><path d="m256 160h-160v112h160zm-16 96h-128v-80h128zm0 0"/><path d="m144 384h-48v80h48zm-16 64h-16v-48h16zm0 0"/><path d="m160 464h48v-144h-48zm16-128h16v112h-16zm0 0"/><path d="m224 464h48v-64h-48zm16-48h16v32h-16zm0 0"/><path d="m288 464h48v-176h-48zm16-160h16v144h-16zm0 0"/><path d="m352 464h48v-112h-48zm16-96h16v80h-16zm0 0"/><path d="m272 160h128v16h-128zm0 0"/><path d="m304 192h96v16h-96zm0 0"/><path d="m272 192h16v16h-16zm0 0"/><path d="m272 224h128v16h-128zm0 0"/><path d="m384 256h16v16h-16zm0 0"/><path d="m272 256h96v16h-96zm0 0"/></svg>