<svg height="496pt" viewBox="0 0 496 496" width="496pt" xmlns="http://www.w3.org/2000/svg"><path d="m370.527344 136.785156 25.59375-25.59375c3.246094 1.542969 6.742187 2.410156 10.269531 2.410156 6.144531 0 12.289063-2.335937 16.96875-7.015624 9.351563-9.363282 9.351563-24.585938 0-33.945313-9.367187-9.359375-24.589844-9.34375-33.945313 0-7.367187 7.359375-8.839843 18.328125-4.613281 27.238281l-21 21-14.601562-32.878906h-37.199219v16c0 8.824219-7.175781 16-16 16s-16-7.175781-16-16v-16h-24v-41.472656c9.289062-3.3125 16-12.113282 16-22.527344 0-13.230469-10.769531-24-24-24s-24 10.769531-24 24c0 10.414062 6.710938 19.214844 16 22.527344v41.472656h-24v16c0 8.824219-7.175781 16-16 16s-16-7.175781-16-16v-16h-37.199219l-14.609375 32.878906-21-21c4.234375-8.910156 2.753906-19.878906-4.617187-27.238281-9.367188-9.359375-24.582031-9.34375-33.941407 0-9.351562 9.359375-9.351562 24.582031 0 33.945313 4.679688 4.679687 10.824219 7.015624 16.96875 7.015624 3.527344 0 7.023438-.867187 10.269532-2.410156l25.59375 25.59375c-8.929688 23.4375-13.464844 48.046875-13.464844 73.304688 0 71.597656 36.246094 137 96.96875 174.949218l31.03125 19.394532v45.039062c-9.289062 3.3125-16 12.113282-16 22.527344 0 13.230469 10.769531 24 24 24s24-10.769531 24-24c0-10.414062-6.710938-19.214844-16-22.527344v-45.039062l31.03125-19.394532c60.722656-37.949218 96.96875-103.351562 96.96875-174.949218 0-25.257813-4.535156-49.867188-13.472656-73.304688zm-122.527344-120.785156c4.40625 0 8 3.59375 8 8s-3.59375 8-8 8-8-3.59375-8-8 3.59375-8 8-8zm152.734375 67.953125c1.5625-1.5625 3.609375-2.335937 5.664063-2.335937 2.050781 0 4.097656.773437 5.65625 2.335937 3.121093 3.117187 3.121093 8.191406 0 11.320313-3.117188 3.109374-8.191407 3.117187-11.320313 0-3.117187-3.128907-3.117187-8.203126 0-11.320313zm-316.78125 11.3125c-3.121094-3.121094-3.121094-8.195313 0-11.3125 1.558594-1.5625 3.605469-2.335937 5.65625-2.335937 2.046875 0 4.101563.773437 5.664063 2.335937 3.117187 3.117187 3.117187 8.191406 0 11.320313-3.128907 3.101562-8.203126 3.109374-11.320313-.007813zm164.046875 384.734375c-4.40625 0-8-3.59375-8-8s3.59375-8 8-8 8 3.59375 8 8-3.59375 8-8 8zm30.550781-108.527344-30.550781 19.09375-30.550781-19.09375c-56.007813-35.007812-89.449219-95.335937-89.449219-161.382812 0-26.800782 5.519531-52.808594 16.40625-77.296875l12.792969-28.792969h10.800781c0 17.648438 14.351562 32 32 32s32-14.351562 32-32h32c0 17.648438 14.351562 32 32 32s32-14.351562 32-32h10.800781l12.800781 28.792969c10.878907 24.488281 16.398438 50.496093 16.398438 77.296875 0 66.046875-33.441406 126.375-89.449219 161.382812zm0 0"/><path d="m325.617188 201.167969-30.785157-30.785157-18.519531 9.265626-6.542969-19.648438h-43.53125l-6.542969 19.648438-18.519531-9.265626-30.785156 30.785157 9.265625 18.519531-19.65625 6.542969v43.53125l19.648438 6.542969-9.265626 18.519531 30.785157 30.785156 18.519531-9.265625 6.542969 19.65625h43.53125l6.542969-19.648438 18.519531 9.265626 30.785156-30.785157-9.265625-18.519531 19.65625-6.542969v-43.53125l-19.648438-6.542969zm-5.617188 36.601562v20.46875l-18.367188 6.128907-1.34375 3.554687c-.386718 1.015625-.785156 2.023437-1.234374 3.007813l-1.550782 3.460937 8.648438 17.296875-14.472656 14.472656-17.296876-8.648437-3.460937 1.550781c-.992187.449219-2 .839844-3.011719 1.234375l-3.550781 1.34375-6.128906 18.359375h-20.46875l-6.128907-18.367188-3.554687-1.34375c-1.015625-.386718-2.023437-.785156-3.007813-1.234374l-3.460937-1.550782-17.296875 8.648438-14.472656-14.472656 8.648437-17.296876-1.550781-3.460937c-.449219-.992187-.839844-2-1.234375-3.011719l-1.34375-3.550781-18.359375-6.128906v-20.46875l18.367188-6.128907 1.34375-3.554687c.386718-1.015625.785156-2.023437 1.234374-3.007813l1.550782-3.460937-8.648438-17.296875 14.472656-14.472656 17.296876 8.648437 3.460937-1.550781c.992187-.449219 2-.839844 3.011719-1.234375l3.550781-1.34375 6.128906-18.359375h20.46875l6.128907 18.367188 3.554687 1.34375c1.015625.386718 2.023437.785156 3.007813 1.234374l3.460937 1.550782 17.296875-8.648438 14.472656 14.472656-8.648437 17.296876 1.550781 3.460937c.449219.992187.839844 2 1.234375 3.011719l1.34375 3.550781zm0 0"/><path d="m248 208c-22.054688 0-40 17.945312-40 40s17.945312 40 40 40 40-17.945312 40-40-17.945312-40-40-40zm0 64c-13.230469 0-24-10.769531-24-24s10.769531-24 24-24 24 10.769531 24 24-10.769531 24-24 24zm0 0"/><path d="m96 256v-16h-49.472656c-3.3125-9.289062-12.113282-16-22.527344-16-13.230469 0-24 10.769531-24 24s10.769531 24 24 24c10.414062 0 19.214844-6.710938 22.527344-16zm-72 0c-4.40625 0-8-3.59375-8-8s3.59375-8 8-8 8 3.59375 8 8-3.59375 8-8 8zm0 0"/><path d="m134.863281 349.824219-34.984375 34.984375c-8.910156-4.234375-19.878906-2.761719-27.238281 4.617187-9.351563 9.359375-9.351563 24.582031 0 33.941407 4.679687 4.671874 10.824219 7.007812 16.96875 7.007812 6.152344 0 12.292969-2.335938 16.976563-7.015625 7.367187-7.359375 8.839843-18.328125 4.613281-27.238281l34.984375-34.984375zm-39.597656 62.222656c-3.113281 3.121094-8.203125 3.128906-11.3125 0-3.121094-3.117187-3.121094-8.191406 0-11.320313 3.117187-3.117187 8.191406-3.117187 11.320313 0 3.109374 3.128907 3.109374 8.203126-.007813 11.320313zm0 0"/><path d="m396.121094 384.808594-34.984375-34.984375-11.3125 11.3125 34.984375 34.984375c-4.234375 8.910156-2.753906 19.878906 4.617187 27.238281 4.679688 4.671875 10.820313 7.007813 16.964844 7.007813 6.152344 0 12.296875-2.335938 16.976563-7.015626 9.351562-9.359374 9.351562-24.582031 0-33.945312-7.375-7.359375-18.34375-8.832031-27.246094-4.597656zm15.925781 27.238281c-3.125 3.128906-8.207031 3.113281-11.320313 0-3.117187-3.117187-3.117187-8.191406 0-11.320313 3.121094-3.117187 8.195313-3.117187 11.3125 0 3.128907 3.128907 3.128907 8.203126.007813 11.320313zm0 0"/><path d="m472 224c-10.414062 0-19.214844 6.710938-22.527344 16h-49.472656v16h49.472656c3.3125 9.289062 12.113282 16 22.527344 16 13.230469 0 24-10.769531 24-24s-10.769531-24-24-24zm0 32c-4.40625 0-8-3.59375-8-8s3.59375-8 8-8 8 3.59375 8 8-3.59375 8-8 8zm0 0"/></svg>