<svg height="496pt" viewBox="0 0 496 496" width="496pt" xmlns="http://www.w3.org/2000/svg"><path d="m144 448h16v16h-16zm0 0"/><path d="m176 448h16v16h-16zm0 0"/><path d="m336 448h16v16h-16zm0 0"/><path d="m288 448h32v16h-32zm0 0"/><path d="m144 224h16v16h-16zm0 0"/><path d="m176 224h16v16h-16zm0 0"/><path d="m336 224h16v16h-16zm0 0"/><path d="m288 224h32v16h-32zm0 0"/><path d="m336 336h16v16h-16zm0 0"/><path d="m304 336h16v16h-16zm0 0"/><path d="m144 336h16v16h-16zm0 0"/><path d="m176 336h32v16h-32zm0 0"/><path d="m208 160h80v16h-80zm0 0"/><path d="m224 128h48v16h-48zm0 0"/><path d="m240 32h16v16h-16zm0 0"/><path d="m134.867188 82.171875 11.3125-11.3125 11.316406 11.3125-11.316406 11.316406zm0 0"/><path d="m96 176h16v16h-16zm0 0"/><path d="m338.339844 82.175781 11.3125-11.3125 11.316406 11.3125-11.316406 11.316407zm0 0"/><path d="m384 176h16v16h-16zm0 0"/><path d="m456 384v-48h-72v-8c0-13.230469-10.769531-24-24-24h-8v-32h8c13.230469 0 24-10.769531 24-24v-16.816406l48-8.472656v-77.261719l-30.519531-6.144531c-3.265625-11.234376-7.738281-22.03125-13.34375-32.234376l17.230469-25.925781-54.519532-54.511719-25.910156 17.230469c-10.210938-5.605469-21.015625-10.078125-32.234375-13.335937l-6.160156-30.527344h-77.09375l-6.152344 30.519531c-11.21875 3.265625-22.023437 7.738281-32.234375 13.335938l-25.910156-17.230469-54.519532 54.511719 17.230469 25.925781c-5.605469 10.195312-10.078125 21-13.34375 32.234375l-30.519531 6.152344v77.261719l48 8.472656v10.402344l-72 16v62.414062h-40v112h96v-112h-40v-49.585938l57.992188-12.886718c3.695312 8.503906 12.160156 14.472656 22.007812 14.472656h8v32h-8c-13.230469 0-24 10.769531-24 24v32c0 13.230469 10.769531 24 24 24h8v32h-8c-13.230469 0-24 10.769531-24 24v32c0 13.230469 10.769531 24 24 24h224c13.230469 0 24-10.769531 24-24v-32c0-13.230469-10.769531-24-24-24h-8v-32h8c13.230469 0 24-10.769531 24-24v-8h56v32h-40v112h96v-112zm-376 32h-64v-80h64zm0-257.449219 27.441406-5.527343 1.246094-4.863282c3.375-13.160156 8.578125-25.71875 15.457031-37.328125l2.558594-4.328125-15.496094-23.304687 35.992188-35.992188 23.296875 15.488281 4.328125-2.558593c11.625-6.878907 24.183593-12.082031 37.335937-15.457031l4.855469-1.246094 5.527344-27.433594h50.90625l5.519531 27.441406 4.855469 1.246094c13.152343 3.375 25.710937 8.578125 37.335937 15.457031l4.328125 2.558594 23.3125-15.496094 35.992188 35.992188-15.496094 23.304687 2.558594 4.328125c6.871093 11.609375 12.082031 24.167969 15.457031 37.328125l1.246094 4.863282 27.441406 5.527343v50.738281l-32.105469 5.664063c-.4375-10.097656-7.109375-18.503906-16.277343-21.601563.238281-3.121093.382812-6.238281.382812-9.351562 0-66.167969-53.832031-120-120-120s-120 53.832031-120 120c0 3.113281.144531 6.230469.382812 9.351562-9.167968 3.097657-15.839843 11.511719-16.277343 21.601563l-32.105469-5.664063zm96.472656 33.449219c-.289062-2.65625-.472656-5.328125-.472656-8 0-39.695312 32.296875-72 72-72s72 32.304688 72 72c0 2.671875-.175781 5.34375-.472656 8zm71.527344-96c-48.519531 0-88 39.480469-88 88 0 2.671875.160156 5.335938.398438 8h-16.078126c-.199218-2.671875-.320312-5.34375-.320312-8 0-57.34375 46.65625-104 104-104s104 46.65625 104 104c0 2.65625-.121094 5.328125-.320312 8h-16.078126c.238282-2.65625.398438-5.328125.398438-8 0-48.519531-39.480469-88-88-88zm-120 152v-32c0-4.40625 3.585938-8 8-8h224c4.414062 0 8 3.59375 8 8v32c0 4.40625-3.585938 8-8 8h-224c-4.414062 0-8-3.59375-8-8zm32 24h176v32h-176zm208 168v32c0 4.40625-3.585938 8-8 8h-224c-4.414062 0-8-3.59375-8-8v-32c0-4.40625 3.585938-8 8-8h224c4.414062 0 8 3.59375 8 8zm-32-24h-176v-32h176zm32-56c0 4.40625-3.585938 8-8 8h-224c-4.414062 0-8-3.59375-8-8v-32c0-4.40625 3.585938-8 8-8h224c4.414062 0 8 3.59375 8 8zm112 120h-64v-80h64zm0 0"/><path d="m432 416h32v16h-32zm0 0"/><path d="m432 448h32v16h-32zm0 0"/><path d="m32 352h32v16h-32zm0 0"/><path d="m32 384h32v16h-32zm0 0"/></svg>