<svg height="496pt" viewBox="0 0 496 496" width="496pt" xmlns="http://www.w3.org/2000/svg"><path d="m336 112v-48h-144v48zm-80-16h-16v-16h16zm16-16h16v16h-16zm48 16h-16v-16h16zm-112-16h16v16h-16zm0 0"/><path d="m64 64h16v16h-16zm0 0"/><path d="m96 64h16v16h-16zm0 0"/><path d="m128 64h16v16h-16zm0 0"/><path d="m64 96h32v16h-32zm0 0"/><path d="m112 96h32v16h-32zm0 0"/><path d="m64 160v48h144v-48zm80 16h16v16h-16zm-16 16h-16v-16h16zm-48-16h16v16h-16zm112 16h-16v-16h16zm0 0"/><path d="m256 160h16v16h-16zm0 0"/><path d="m256 192h16v16h-16zm0 0"/><path d="m64 256h16v16h-16zm0 0"/><path d="m96 256h16v16h-16zm0 0"/><path d="m128 256h16v16h-16zm0 0"/><path d="m64 288h32v16h-32zm0 0"/><path d="m112 288h32v16h-32zm0 0"/><path d="m88 352c-13.230469 0-24 10.769531-24 24s10.769531 24 24 24 24-10.769531 24-24-10.769531-24-24-24zm0 32c-4.40625 0-8-3.59375-8-8s3.59375-8 8-8 8 3.59375 8 8-3.59375 8-8 8zm0 0"/><path d="m152 352c-13.230469 0-24 10.769531-24 24s10.769531 24 24 24 24-10.769531 24-24-10.769531-24-24-24zm0 32c-4.40625 0-8-3.59375-8-8s3.59375-8 8-8 8 3.59375 8 8-3.59375 8-8 8zm0 0"/><path d="m208 400h128v-48h-128zm112-16h-40v-16h40zm-96-16h40v16h-40zm0 0"/><path d="m496 278.214844v-60.429688l-23.136719-5.90625c-.160156-.390625-.328125-.78125-.488281-1.167968l12.183594-20.535157-42.726563-42.726562-20.535156 12.183593c-.394531-.167968-.785156-.328124-1.167969-.488281l-5.914062-23.144531h-14.214844v-112c0-13.230469-10.769531-24-24-24h-352c-13.230469 0-24 10.769531-24 24v416c0 13.230469 10.769531 24 24 24h1.753906l8 32h76.492188l8-32h155.507812l8 32h76.492188l8-32h9.753906c13.230469 0 24-10.769531 24-24v-80h14.214844l5.90625-23.136719c.390625-.160156.78125-.328125 1.167968-.488281l20.535157 12.183594 42.726562-42.726563-12.183593-20.535156c.167968-.394531.328124-.785156.488281-1.167969zm-398.246094 201.785156h-51.507812l-4-16h59.507812zm248 0h-51.507812l-4-16h59.507812zm38.246094-40c0 4.40625-3.59375 8-8 8h-352c-4.40625 0-8-3.59375-8-8v-416c0-4.40625 3.59375-8 8-8h352c4.40625 0 8 3.59375 8 8v112h-16v-104h-336v400h336v-72h16zm-88.375-229.296875c-.167969.394531-.328125.785156-.488281 1.167969l-23.136719 5.914062v6.214844h-32v-80h111.742188l-3.863282 15.136719c-.390625.160156-.78125.328125-1.167968.488281l-20.535157-12.183594-42.726562 42.726563zm56.375-82.703125h-176v-80h176zm-192 0h-112v-80h112zm-112 16h176v80h-176zm0 96h112v80h-112zm0 96h265.609375l12.558594 12.558594 20.535156-12.183594c.394531.167969.785156.328125 1.167969.488281l4.128906 16.144531v62.992188h-304zm128-16v-80h96v16h-80v48h92.527344l-1.085938 1.832031 14.167969 14.167969zm32-32v-16h16v16zm86.015625 0h-54.015625v-16h32v6.214844l23.144531 5.90625c.160157.390625.320313.78125.488281 1.167968zm170.441406 15.3125-25.152343 25.152344-17.105469-10.144532-3.855469 1.839844c-2.480469 1.183594-5.015625 2.238282-7.632812 3.167969l-4.023438 1.425781-4.902344 19.246094h-35.570312l-4.910156-19.257812-4.023438-1.421876c-2.617188-.921874-5.152344-1.984374-7.632812-3.167968l-3.855469-1.839844-17.105469 10.144531-25.152344-25.152343 10.144532-17.105469-1.839844-3.855469c-1.183594-2.480469-2.238282-5.015625-3.167969-7.640625l-1.433594-4.015625-19.238281-4.902344v-35.570312l19.257812-4.910156 1.421876-4.023438c.921874-2.617188 1.984374-5.152344 3.167968-7.632812l1.839844-3.855469-10.144531-17.105469 25.152343-25.152344 17.105469 10.144532 3.855469-1.839844c2.480469-1.183594 5.015625-2.238282 7.632812-3.167969l4.023438-1.425781 4.902344-19.246094h35.570312l4.910156 19.257812 4.023438 1.421876c2.617188.921874 5.152344 1.984374 7.632812 3.167968l3.855469 1.839844 17.105469-10.144531 25.152344 25.152343-10.144532 17.105469 1.839844 3.855469c1.183594 2.480469 2.238282 5.015625 3.167969 7.632812l1.425781 4.023438 19.246094 4.902344v35.570312l-19.246094 4.910156-1.433594 4.015626c-.929687 2.617187-1.984374 5.160156-3.167968 7.640624l-1.839844 3.855469zm0 0"/><path d="m384 184c-35.289062 0-64 28.710938-64 64s28.710938 64 64 64 64-28.710938 64-64-28.710938-64-64-64zm0 112c-26.472656 0-48-21.527344-48-48s21.527344-48 48-48 48 21.527344 48 48-21.527344 48-48 48zm0 0"/><path d="m384 216c-17.648438 0-32 14.351562-32 32s14.351562 32 32 32 32-14.351562 32-32-14.351562-32-32-32zm0 48c-8.824219 0-16-7.175781-16-16s7.175781-16 16-16 16 7.175781 16 16-7.175781 16-16 16zm0 0"/></svg>