<svg height="496pt" viewBox="0 0 496 496" width="496pt" xmlns="http://www.w3.org/2000/svg"><path d="m392 176h-112v-48h-16v128h17.863281l-33.863281 56.457031-33.863281-56.457031h17.863281v-128h-16v48h-112v75.144531l104 112v132.855469h18.128906l61.871094-35.359375v-97.496094l104-112zm-120 180.855469v94.503906l-48 27.433594v-121.9375l-104-112v-20.855469h80v-16h-80v-16h96v48h-30.136719l62.136719 103.542969 62.136719-103.542969h-30.136719v-48h96v16h-80v16h80v20.855469zm0 0"/><path d="m467.296875 202.464844c-5.710937-27.722656-16.472656-53.6875-32.023437-77.335938l15.117187-25.464844-54.046875-54.039062-25.472656 15.109375c-23.65625-15.558594-49.625-26.320313-77.335938-32.023437l-7.320312-28.710938h-76.4375l-7.320313 28.695312c-27.714843 5.710938-53.679687 16.464844-77.335937 32.023438l-25.472656-15.109375-54.046876 54.039063 15.117188 25.464843c-15.550781 23.648438-26.3125 49.613281-32.023438 77.335938l-28.695312 7.335937v76.429688l28.703125 7.320312c5.710937 27.722656 16.464844 53.6875 32.023437 77.335938l-15.117187 25.464844 54.054687 54.054687 25.464844-15.125c19.847656 13.039063 41.625 22.78125 64.808594 28.980469l4.140625-15.453125c-23.085937-6.175781-44.652344-16.128907-64.125-29.578125l-4.21875-2.910156-23.542969 13.976562-36.464844-36.464844 13.976563-23.542968-2.917969-4.21875c-16.800781-24.3125-28.007812-51.382813-33.320312-80.453126l-.921875-5.050781-26.542969-6.765625v-51.570312l26.527344-6.765625.929687-5.050781c5.3125-29.070313 16.519531-56.140626 33.320313-80.453126l2.917968-4.21875-13.976562-23.542968 36.472656-36.464844 23.535156 13.96875 4.21875-2.910156c24.320313-16.800782 51.390626-28.007813 80.453126-33.320313l5.050781-.921875 6.765625-26.535156h51.5625l6.773437 26.535156 5.050781.921875c29.0625 5.304688 56.132813 16.511719 80.453126 33.320313l4.21875 2.910156 23.535156-13.96875 36.472656 36.464844-13.976562 23.542968 2.917968 4.21875c16.800782 24.3125 28.007813 51.375 33.320313 80.453126l.921875 5.050781 26.535156 6.765625v51.570312l-26.527344 6.773438-.929687 5.042968c-5.3125 29.070313-16.519531 56.140626-33.320313 80.453126l-2.917968 4.21875 13.976562 23.542968-36.464844 36.464844-23.542968-13.976562-4.21875 2.910156c-19.46875 13.457031-41.039063 23.402344-64.125 29.578125l4.140624 15.453125c23.175782-6.199219 44.953126-15.941406 64.808594-28.980469l25.464844 15.125 54.054688-54.054687-15.117188-25.464844c15.558594-23.648438 26.3125-49.613282 32.023438-77.335938l28.695312-7.320312v-76.429688zm0 0"/><path d="m440 248c0-105.871094-86.136719-192-192-192s-192 86.128906-192 192c0 83.894531 53.679688 157.40625 133.566406 182.910156l4.859375-15.230468c-73.226562-23.382813-122.425781-90.777344-122.425781-167.679688 0-97.046875 78.953125-176 176-176s176 78.953125 176 176c0 76.902344-49.199219 144.296875-122.433594 167.679688l4.859375 15.230468c79.894531-25.503906 133.574219-99.015625 133.574219-182.910156zm0 0"/></svg>