<svg height="496pt" viewBox="0 0 496 496" width="496pt" xmlns="http://www.w3.org/2000/svg"><path d="m418.425781 368-24-16h-74.425781v64h-49.472656c-2.414063-6.777344-7.75-12.113281-14.527344-14.527344v-129.472656h144c13.230469 0 24-10.769531 24-24v-160c0-13.230469-10.769531-24-24-24h-24v-64h-256v64h-24c-13.230469 0-24 10.769531-24 24v160c0 13.230469 10.769531 24 24 24h144v129.472656c-6.777344 2.414063-12.113281 7.75-14.527344 14.527344h-49.472656v-48h-77.574219l-24-16h-74.425781v144h176v-64h49.472656c3.3125 9.289062 12.113282 16 22.527344 16s19.214844-6.710938 22.527344-16h49.472656v64h176v-128zm-10.425781-256v16h-237.070312l7.261718-12.113281c1.441406-2.398438 4.074219-3.886719 6.863282-3.886719zm0-24v8h-96l9.609375-12.808594c1.496094-2 3.886719-3.191406 6.390625-3.191406h72c4.414062 0 8 3.585938 8 8zm-48-72v48h-32c-7.511719 0-14.695312 3.585938-19.191406 9.601562l-16.800782 22.398438h-106.945312c-8.375 0-16.261719 4.464844-20.582031 11.648438l-28.480469 47.464843v-139.113281zm-264 64h24v101.785156l-32 53.335938v-147.121094c0-4.414062 3.585938-8 8-8zm-1.664062 175.664062 66.992187-111.664062h246.671875v104c0 4.414062-3.585938 8-8 8h-304c-.59375 0-1.113281-.214844-1.664062-.335938zm-24.761719 112.335938 24 16h66.425781v16h-144v-32zm-53.574219 112v-64h144v64zm232-48c-4.414062 0-8-3.585938-8-8s3.585938-8 8-8 8 3.585938 8 8-3.585938 8-8 8zm141.574219-64 24 16h66.425781v16h-144v-32zm-53.574219 112v-64h144v64zm0 0"/><path d="m152 32h192v16h-192zm0 0"/><path d="m152 64h136v16h-136zm0 0"/></svg>