<svg height="496pt" viewBox="0 0 496 496" width="496pt" xmlns="http://www.w3.org/2000/svg"><path d="m464 216c-1.511719 0-2.953125.238281-4.40625.449219l-39.65625-95.738281c1.175781-.886719 2.367188-1.757813 3.429688-2.824219 12.480468-12.472657 12.480468-32.773438 0-45.253907-12.480469-12.480468-32.773438-12.480468-45.253907 0-1.066406 1.0625-1.929687 2.253907-2.824219 3.429688l-95.738281-39.65625c.210938-1.453125.449219-2.894531.449219-4.40625 0-17.648438-14.351562-32-32-32s-32 14.351562-32 32c0 1.511719.238281 2.953125.449219 4.40625l-95.738281 39.65625c-.886719-1.175781-1.757813-2.367188-2.824219-3.429688-12.480469-12.480468-32.773438-12.480468-45.253907 0-12.480468 12.480469-12.480468 32.78125 0 45.253907 1.0625 1.066406 2.253907 1.929687 3.429688 2.824219l-39.65625 95.738281c-1.453125-.210938-2.894531-.449219-4.40625-.449219-17.648438 0-32 14.351562-32 32s14.351562 32 32 32c1.511719 0 2.953125-.238281 4.40625-.449219l39.671875 95.777344c-1.183594.871094-2.390625 1.71875-3.445313 2.785156-6.039062 6.046875-9.367187 14.078125-9.367187 22.621094 0 8.546875 3.328125 16.585937 9.367187 22.625 6.039063 6.046875 14.078126 9.375 22.632813 9.375 8.550781 0 16.582031-3.328125 22.621094-9.375 1.066406-1.0625 1.929687-2.246094 2.816406-3.421875l95.738281 39.65625c-.203125 1.453125-.441406 2.894531-.441406 4.40625 0 17.648438 14.351562 32 32 32s32-14.351562 32-32c0-1.511719-.238281-2.953125-.449219-4.40625l95.738281-39.65625c.886719 1.175781 1.757813 2.367188 2.816407 3.421875 6.039062 6.046875 14.078125 9.375 22.621093 9.375 8.546876 0 16.585938-3.328125 22.632813-9.375 6.039063-6.039063 9.367187-14.078125 9.367187-22.625 0-8.542969-3.328124-16.574219-9.367187-22.621094-1.054687-1.058593-2.261719-1.90625-3.449219-2.785156l39.675782-95.777344c1.460937.210938 2.902343.449219 4.414062.449219 17.648438 0 32-14.351562 32-32s-14.351562-32-32-32zm-19.191406 6.558594c-5.664063 4.289062-9.832032 10.371094-11.664063 17.441406h-49.542969c-1.839843-31.464844-14.378906-60.039062-34.089843-82.199219l35.054687-35.058593c4.867188 2.875 10.371094 4.523437 16.167969 4.523437 1.503906 0 2.953125-.234375 4.417969-.433594zm-196.808594 145.441406c-37.777344 0-71.480469-17.585938-93.496094-44.960938l22.617188-13.589843c5.949218-3.570313 12.765625-5.449219 19.703125-5.449219 10.230469 0 19.847656 3.984375 27.078125 11.214844l18.523437 18.519531c6.613281 6.625 15.40625 10.265625 24.765625 10.265625h1.792969c19.3125 0 35.015625-15.710938 35.015625-35.015625 0-10.695313-4.792969-20.664063-13.144531-27.34375l-21.742188-17.394531c-3.25-2.597656-5.113281-6.46875-5.113281-10.628906 0-16.328126-13.289062-29.617188-29.617188-29.617188h-29.949218c-6.859375 0-12.433594-5.574219-12.433594-12.433594 0-9.925781-5.289062-19.261718-13.800781-24.375l-23.695313-14.230468c11.0625-13.753907 25.113282-24.945313 41.128906-32.761719l4.742188 14.242187c5.898438 17.679688 22.386719 29.558594 41.023438 29.558594 7.28125 0 14.121093 2.832031 19.265624 7.984375l12.183594 12.183594c4.617188 4.609375 7.152344 10.734375 7.152344 17.257812v4.023438c0 16.863281 12 31.503906 28.535156 34.816406 6.640625 1.328125 11.464844 7.214844 11.464844 13.972656 0 11.539063 6.40625 21.90625 16.625 27.019531l14.640625 7.566407c-20.90625 35.351562-59.3125 59.175781-103.265625 59.175781zm-102.632812-181.863281 24.59375 14.765625c3.726562 2.242187 6.039062 6.320312 6.039062 10.664062 0 15.679688 12.753906 28.433594 28.433594 28.433594h29.949218c7.511719 0 13.617188 6.105469 13.617188 13.617188 0 9.039062 4.046875 17.472656 11.113281 23.125l21.75 17.402343c4.535157 3.625 7.136719 9.03125 7.136719 14.839844 0 10.488281-8.527344 19.015625-19.015625 19.015625h-1.792969c-5.078125 0-9.855468-1.976562-13.449218-5.566406l-18.519532-18.523438c-10.253906-10.261718-23.886718-15.910156-38.398437-15.910156-9.832031 0-19.496094 2.671875-27.945313 7.734375l-23.511718 14.128906c-10.941407-18.09375-17.367188-39.214843-17.367188-61.863281s6.425781-43.769531 17.367188-61.863281zm213.21875 108.457031-14.707032-7.601562c-4.863281-2.433594-7.878906-7.3125-7.878906-12.753907 0-14.367187-10.222656-26.839843-24.320312-29.664062-9.085938-1.8125-15.679688-9.855469-15.679688-19.117188v-4.023437c0-10.792969-4.199219-20.945313-11.832031-28.578125l-12.183594-12.183594c-8.167969-8.175781-19.03125-12.671875-30.585937-12.671875-11.742188 0-22.125-7.488281-25.839844-18.632812l-5.09375-15.269532c11.824218-3.90625 24.421875-6.097656 37.535156-6.097656 66.167969 0 120 53.832031 120 120 0 16.511719-3.359375 32.265625-9.414062 46.59375zm30.839843-210.640625c3.117188-3.121094 7.214844-4.671875 11.308594-4.671875 4.097656 0 8.195313 1.558594 11.320313 4.671875 6.234374 6.238281 6.242187 16.390625 0 22.632813-6.046876 6.046874-16.582032 6.046874-22.628907 0-3.027343-3.027344-4.691406-7.042969-4.691406-11.3125 0-4.273438 1.664063-8.296876 4.691406-11.320313zm-20.257812 6.894531c-.199219 1.464844-.433594 2.921875-.433594 4.417969 0 5.796875 1.648437 11.300781 4.523437 16.167969l-35.058593 35.054687c-22.160157-19.710937-50.726563-32.242187-82.199219-34.089843v-49.535157c7.070312-1.839843 13.152344-6 17.441406-11.664062zm-121.167969-74.847656c8.824219 0 16 7.175781 16 16s-7.175781 16-16 16-16-7.175781-16-16 7.175781-16 16-16zm-25.441406 35.191406c4.289062 5.664063 10.371094 9.832032 17.441406 11.664063v49.542969c-31.464844 1.839843-60.039062 14.378906-82.199219 34.089843l-35.058593-35.054687c2.875-4.867188 4.523437-10.371094 4.523437-16.167969 0-1.503906-.234375-2.960937-.433594-4.417969zm-138.605469 32.761719c3.117187-3.121094 7.214844-4.671875 11.320313-4.671875 4.101562 0 8.191406 1.558594 11.3125 4.671875 3.023437 3.023437 4.6875 7.039063 4.6875 11.320313 0 4.277343-1.664063 8.285156-4.6875 11.3125-6.050782 6.046874-16.585938 6.046874-22.632813 0-6.242187-6.25-6.242187-16.402344 0-22.632813zm6.894531 42.878906c1.464844.199219 2.921875.433594 4.417969.433594 5.796875 0 11.300781-1.648437 16.167969-4.523437l35.054687 35.058593c-19.710937 22.160157-32.242187 50.726563-34.089843 82.199219h-49.535157c-1.839843-7.070312-6-13.152344-11.664062-17.441406zm-74.847656 121.167969c0-8.824219 7.175781-16 16-16s16 7.175781 16 16-7.175781 16-16 16-16-7.175781-16-16zm35.199219 25.441406c5.664062-4.289062 9.832031-10.371094 11.664062-17.441406h49.542969c1.839844 31.464844 14.378906 60.039062 34.089844 82.199219l-35.128906 35.128906c-6.183594-3.488281-13.398438-4.785156-20.40625-3.886719zm55.375 138.605469c-6.046875 6.050781-16.582031 6.050781-22.628907 0-3.015624-3.023437-4.679687-7.039063-4.679687-11.3125 0-4.269531 1.664063-8.285156 4.679687-11.308594 6.046876-6.050781 16.582032-6.050781 22.628907 0 3.027343 3.023438 4.691406 7.039063 4.691406 11.308594 0 4.273437-1.664063 8.289063-4.691406 11.3125zm20.257812-6.894531c.199219-1.457032.433594-2.914063.433594-4.417969 0-5.796875-1.648437-11.300781-4.523437-16.167969l35.058593-35.054687c22.160157 19.710937 50.726563 32.242187 82.199219 34.089843v49.542969c-7.070312 1.839844-13.152344 6-17.441406 11.664063zm121.167969 74.847656c-8.824219 0-16-7.175781-16-16s7.175781-16 16-16 16 7.175781 16 16-7.175781 16-16 16zm25.441406-35.199219c-4.289062-5.664062-10.371094-9.832031-17.441406-11.664062v-49.542969c31.464844-1.839844 60.039062-14.378906 82.199219-34.089844l35.058593 35.054688c-2.875 4.867187-4.523437 10.371094-4.523437 16.167968 0 1.503907.234375 2.960938.433594 4.417969zm138.605469-32.753906c-6.046875 6.050781-16.582031 6.050781-22.632813 0-3.023437-3.023437-4.6875-7.039063-4.6875-11.3125 0-4.269531 1.664063-8.285156 4.6875-11.308594 3.027344-3.027343 7.042969-4.691406 11.3125-4.691406 4.273438 0 8.296876 1.664063 11.320313 4.691406 3.015625 3.023438 4.679687 7.039063 4.679687 11.308594 0 4.273437-1.65625 8.289063-4.679687 11.3125zm-7.007813-42.613281c-7.007812-.898438-14.222656.398437-20.40625 3.886718l-35.128906-35.128906c19.710938-22.160156 32.238282-50.726562 34.089844-82.199218h49.542969c1.839843 7.070312 6 13.152343 11.664062 17.441406zm58.960938-105.433594c-8.824219 0-16-7.175781-16-16s7.175781-16 16-16 16 7.175781 16 16-7.175781 16-16 16zm0 0"/><path d="m272 152h16v16h-16zm0 0"/><path d="m152 264h16v16h-16zm0 0"/><path d="m216 256h16v16h-16zm0 0"/><path d="m328 208h16v16h-16zm0 0"/></svg>