<svg height="496pt" viewBox="0 0 496 496" width="496pt" xmlns="http://www.w3.org/2000/svg"><path d="m336 288c-17.648438 0-32 14.351562-32 32s14.351562 32 32 32 32-14.351562 32-32-14.351562-32-32-32zm0 48c-8.824219 0-16-7.175781-16-16s7.175781-16 16-16 16 7.175781 16 16-7.175781 16-16 16zm0 0"/><path d="m456 96h-93.105469l-91.308593-76.097656c-1.953126-11.277344-11.753907-19.902344-23.585938-19.902344s-21.632812 8.625-23.585938 19.902344l-91.308593 76.097656h-93.105469c-22.054688 0-40 17.945312-40 40v192c0 22.054688 17.945312 40 40 40h226.855469c-2.863281 7.566406-3.933594 14.6875 1.257812 19.878906 7.007813 7 17.488281 2.707032 27.886719-2.175781v110.296875l40-30 40 30v-110.296875c10.390625 4.882813 20.878906 9.183594 27.886719 2.175781 5.191406-5.191406 4.121093-12.3125 1.257812-19.878906h50.855469c22.054688 0 40-17.945312 40-40v-192c0-22.054688-17.945312-40-40-40zm-208-80c4.40625 0 8 3.585938 8 8s-3.59375 8-8 8-8-3.585938-8-8 3.59375-8 8-8zm-19.777344 21.558594c4.335938 6.296875 11.578125 10.441406 19.777344 10.441406s15.441406-4.144531 19.777344-10.441406l70.125 58.441406h-179.804688zm107.777344 408.441406-24 18v-83.398438c1.527344 2.832032 3.367188 7.910157 4.585938 11.34375 4.183593 11.832032 8.519531 24.054688 19.414062 24.054688s15.230469-12.230469 19.414062-24.0625c1.21875-3.425781 3.050782-8.511719 4.585938-11.34375v83.40625zm44.679688-75.777344c-9.710938-4.597656-18.886719-8.925781-26.320313-5.855468-7.214844 3-10.367187 11.90625-14.023437 22.226562-1.136719 3.222656-2.816407 7.941406-4.335938 11.054688-1.519531-3.113282-3.191406-7.832032-4.335938-11.046876-3.65625-10.320312-6.816406-19.242187-14.03125-22.234374-1.746093-.71875-3.578124-1.039063-5.488281-1.039063-6.265625 0-13.382812 3.375-20.824219 6.894531-2.792968 1.320313-6.808593 3.21875-9.90625 4.363282 1.136719-3.105469 3.035157-7.121094 4.355469-9.90625 4.597657-9.703126 8.941407-18.871094 5.855469-26.3125-2.992188-7.214844-11.90625-10.375-22.226562-14.023438-3.214844-1.144531-7.941407-2.824219-11.054688-4.34375 3.113281-1.519531 7.839844-3.199219 11.0625-4.34375 10.320312-3.648438 19.234375-6.808594 22.226562-14.023438 3.078126-7.441406-1.265624-16.609374-5.855468-26.3125-1.320313-2.800781-3.21875-6.808593-4.351563-9.894531 3.101563 1.132813 7.109375 3.03125 9.894531 4.351563 9.710938 4.597656 18.886719 8.941406 26.320313 5.855468 7.214844-3 10.367187-11.90625 14.023437-22.226562 1.136719-3.222656 2.816407-7.941406 4.335938-11.054688 1.519531 3.113282 3.191406 7.832032 4.335938 11.046876 3.65625 10.320312 6.816406 19.242187 14.03125 22.234374 7.457031 3.078126 16.601562-1.257812 26.3125-5.855468 2.792968-1.320313 6.808593-3.21875 9.90625-4.363282-1.136719 3.105469-3.035157 7.121094-4.355469 9.90625-4.597657 9.703126-8.941407 18.871094-5.855469 26.3125 2.992188 7.214844 11.90625 10.375 22.226562 14.023438 3.214844 1.144531 7.941407 2.824219 11.054688 4.34375-3.113281 1.519531-7.839844 3.199219-11.0625 4.34375-10.320312 3.648438-19.234375 6.808594-22.226562 14.023438-3.078126 7.441406 1.265624 16.609374 5.855468 26.3125 1.320313 2.800781 3.21875 6.808593 4.351563 9.894531-3.09375-1.125-7.101563-3.03125-9.894531-4.351563zm-140.679688-50.222656h-192v-176h400v176h-16c0-10.894531-12.230469-15.230469-24.0625-19.425781-3.921875-1.390625-10.21875-3.613281-12.5625-5.238281.449219-2.894532 3.449219-9.230469 5.3125-13.167969 5.25-11.097657 10.679688-22.558594 3.191406-30.046875-7.488281-7.488282-18.957031-2.058594-30.054687 3.191406-4.128907 1.953125-10.878907 5.160156-13.015625 5.503906-1.632813-2.160156-3.960938-8.71875-5.394532-12.769531-4.183593-11.824219-8.519531-24.046875-19.414062-24.046875s-15.230469 12.230469-19.414062 24.0625c-1.394532 3.921875-3.625 10.21875-5.25 12.5625-2.902344-.457031-9.230469-3.449219-13.167969-5.3125-11.089844-5.25-22.566407-10.679688-30.054688-3.191406-7.480469 7.488281-2.050781 18.949218 3.199219 30.046875 1.960938 4.128906 5.160156 10.886719 5.503906 13.03125-2.160156 1.632812-8.710937 3.953125-12.753906 5.386719-11.832031 4.183593-24.0625 8.519531-24.0625 19.414062zm240 8c0 13.230469-10.769531 24-24 24h-58.023438c-1.359374-3.015625-2.59375-5.921875-2.800781-7.191406 2.160157-1.632813 8.710938-3.953125 12.753907-5.382813 3.078124-1.089843 6.175781-2.203125 9.085937-3.425781h30.984375c8.824219 0 16-7.175781 16-16v-176c0-8.824219-7.175781-16-16-16h-400c-8.824219 0-16 7.175781-16 16v176c0 8.824219 7.175781 16 16 16h206.976562c2.910157 1.222656 6.007813 2.328125 9.085938 3.425781 3.921875 1.390625 10.21875 3.613281 12.5625 5.238281-.257812 1.671876-1.386719 4.496094-2.632812 7.335938h-233.992188c-13.230469 0-24-10.769531-24-24v-192c0-13.230469 10.769531-24 24-24h416c13.230469 0 24 10.769531 24 24zm0 0"/><path d="m195.121094 257.710938-27.121094-7.742188v-2.136719c9.96875-7.511719 16-19.328125 16-31.832031v-14.34375c0-21.496094-16.007812-39.726562-36.449219-41.503906-11.183593-.976563-22.335937 2.808594-30.574219 10.351562-8.25 7.566406-12.976562 18.320313-12.976562 29.496094v16c0 12.503906 6.03125 24.320312 16 31.832031v2.136719l-27.121094 7.742188c-17.007812 4.863281-28.878906 20.609374-28.878906 38.289062v8h160v-8c0-17.679688-11.871094-33.425781-28.878906-38.289062zm-113.722656 30.289062c2.546874-7.078125 8.378906-12.761719 15.882812-14.894531l38.71875-11.074219v-23.070312l-3.976562-2.3125c-7.527344-4.382813-12.023438-12.105469-12.023438-20.648438v-16c0-6.710938 2.839844-13.160156 7.792969-17.695312 5.007812-4.601563 11.519531-6.816407 18.382812-6.207032 12.230469 1.0625 21.824219 12.285156 21.824219 25.558594v14.34375c0 8.542969-4.496094 16.265625-12.023438 20.648438l-3.976562 2.3125v23.070312l38.71875 11.074219c7.503906 2.140625 13.335938 7.824219 15.882812 14.894531zm0 0"/><path d="m240 160h192v16h-192zm0 0"/><path d="m240 192h160v16h-160zm0 0"/><path d="m416 192h16v16h-16zm0 0"/></svg>