<svg height="496pt" viewBox="-32 0 496 496" width="496pt" xmlns="http://www.w3.org/2000/svg"><path d="m363.3125 0h-299.3125v96h-64v360c0 22.054688 17.945312 40 40 40h352c22.054688 0 40-17.945312 40-40v-387.3125zm4.6875 27.3125 36.6875 36.6875h-36.6875zm-328 452.6875c-13.230469 0-24-10.769531-24-24v-344h48v32h-32v288h16v-272h16v296c0 13.230469-10.769531 24-24 24zm352 0h-320.015625c5.023437-6.6875 8.015625-15 8.015625-24v-440h272v64h64v376c0 13.230469-10.769531 24-24 24zm0 0"/><path d="m32 448h16v16h-16zm0 0"/><path d="m96 464h160v-112h-160zm16-96h128v80h-128zm0 0"/><path d="m272 352h128v16h-128zm0 0"/><path d="m272 384h128v16h-128zm0 0"/><path d="m272 416h128v16h-128zm0 0"/><path d="m384 448h16v16h-16zm0 0"/><path d="m272 448h96v16h-96zm0 0"/><path d="m240 320h160v-112h-160zm16-96h128v80h-128zm0 0"/><path d="m96 208h128v16h-128zm0 0"/><path d="m96 240h128v16h-128zm0 0"/><path d="m96 272h128v16h-128zm0 0"/><path d="m96 304h96v16h-96zm0 0"/><path d="m208 304h16v16h-16zm0 0"/><path d="m256 168c0-17.679688-11.871094-33.425781-28.878906-38.289062l-27.121094-7.742188v-2.136719c9.96875-7.511719 16-19.328125 16-31.832031v-14.34375c0-21.496094-16.007812-39.726562-36.449219-41.503906-11.183593-1-22.34375 2.808594-30.574219 10.351562-8.25 7.566406-12.976562 18.320313-12.976562 29.496094v16c0 12.503906 6.03125 24.320312 16 31.832031v2.136719l-27.121094 7.742188c-17.007812 4.863281-28.878906 20.609374-28.878906 38.289062v8h160zm-142.601562-8c2.546874-7.078125 8.378906-12.761719 15.882812-14.894531l38.71875-11.074219v-23.070312l-3.976562-2.3125c-7.527344-4.382813-12.023438-12.105469-12.023438-20.648438v-16c0-6.710938 2.839844-13.160156 7.792969-17.695312 5.007812-4.601563 11.511719-6.792969 18.382812-6.207032 12.230469 1.0625 21.824219 12.285156 21.824219 25.558594v14.34375c0 8.542969-4.496094 16.265625-12.023438 20.648438l-3.976562 2.3125v23.070312l38.71875 11.074219c7.503906 2.140625 13.335938 7.824219 15.882812 14.894531zm0 0"/><path d="m232 32h104v16h-104zm0 0"/><path d="m232 64h104v16h-104zm0 0"/><path d="m232 96h168v16h-168zm0 0"/><path d="m272 128h128v16h-128zm0 0"/><path d="m384 160h16v16h-16zm0 0"/><path d="m272 160h96v16h-96zm0 0"/></svg>