<?xml version="1.0" encoding="UTF-8" standalone="no"?>
<!-- Generator: Gravit.io -->

<svg
   xmlns:dc="http://purl.org/dc/elements/1.1/"
   xmlns:cc="http://creativecommons.org/ns#"
   xmlns:rdf="http://www.w3.org/1999/02/22-rdf-syntax-ns#"
   xmlns:svg="http://www.w3.org/2000/svg"
   xmlns="http://www.w3.org/2000/svg"
   xmlns:sodipodi="http://sodipodi.sourceforge.net/DTD/sodipodi-0.dtd"
   xmlns:inkscape="http://www.inkscape.org/namespaces/inkscape"
   style="isolation:isolate"
   viewBox="0 0 1920 1080"
   width="1920"
   height="1080"
   version="1.1"
   id="svg1086"
   sodipodi:docname="photon-star-platform-large.svg"
   inkscape:version="0.92.3 (2405546, 2018-03-11)"
   inkscape:export-filename="/home/phi/Downloads/photon-logo-svg/photon-star-platform-large.png"
   inkscape:export-xdpi="102.4"
   inkscape:export-ydpi="102.4">
  <metadata
     id="metadata1090">
    <rdf:RDF>
      <cc:Work
         rdf:about="">
        <dc:format>image/svg+xml</dc:format>
        <dc:type
           rdf:resource="http://purl.org/dc/dcmitype/StillImage" />
        <dc:title />
      </cc:Work>
    </rdf:RDF>
  </metadata>
  <sodipodi:namedview
     pagecolor="#ffffff"
     bordercolor="#666666"
     borderopacity="1"
     objecttolerance="10"
     gridtolerance="10"
     guidetolerance="10"
     inkscape:pageopacity="0"
     inkscape:pageshadow="2"
     inkscape:window-width="1920"
     inkscape:window-height="1012"
     id="namedview1088"
     showgrid="false"
     inkscape:zoom="0.6765625"
     inkscape:cx="960"
     inkscape:cy="540"
     inkscape:window-x="0"
     inkscape:window-y="32"
     inkscape:window-maximized="1"
     inkscape:current-layer="layer2" />
  <defs
     id="defs1068">
    <clipPath
       id="_clipPath_zcfZ1TVDWDzy9VMGd0MFvKUUSi36Tuiy">
      <rect
         width="515"
         height="86.961998"
         id="rect1065"
         x="0"
         y="0" />
    </clipPath>
  </defs>
  <g
     inkscape:groupmode="layer"
     id="layer1"
     inkscape:label="bg"
     style="display:inline"
     sodipodi:insensitive="true">
    <rect
       y="-2.1508596"
       x="0"
       id="rect1070"
       style="isolation:isolate;fill:#212121;stroke-width:6.82655382"
       height="1085.7798"
       width="1922.1974" />
  </g>
  <g
     inkscape:groupmode="layer"
     id="layer2"
     inkscape:label="graphics">
    <g
       id="g1114"
       transform="translate(-9.40305)">
      <path
         d="m 532.74028,513.94117 v 0 q 7.07319,0 12.87319,3.25366 v 0 0 q 5.80001,3.25366 9.10083,9.14798 v 0 0 q 3.30082,5.89432 3.30082,13.72197 v 0 0 q 0,7.82765 -3.30082,13.72197 v 0 0 q -3.30082,5.89432 -9.10083,9.14798 v 0 0 q -5.8,3.25367 -12.87319,3.25367 v 0 0 q -9.71383,0 -15.27806,-6.13009 v 0 23.67157 H 502.75 v -69.03424 h 14.05205 v 5.84716 0 q 5.46993,-6.60163 15.93823,-6.60163 z m -2.54634,40.17567 v 0 q 5.65855,0 9.28944,-3.81952 v 0 0 q 3.6309,-3.81952 3.6309,-10.23254 v 0 0 q 0,-6.41301 -3.6309,-10.23253 v 0 0 q -3.63089,-3.81952 -9.28944,-3.81952 v 0 0 q -5.65854,0 -9.28944,3.81952 v 0 0 q -3.63091,3.81952 -3.63091,10.23253 v 0 0 q 0,6.41302 3.63091,10.23254 v 0 0 q 3.6309,3.81952 9.28944,3.81952 z m 68.46839,-40.17567 v 0 q 9.43091,0 15.23092,5.65854 v 0 0 q 5.8,5.65855 5.8,16.78702 v 0 29.04719 h -14.71221 v -26.78377 0 q 0,-6.03579 -2.64066,-9.00652 v 0 0 q -2.64065,-2.97073 -7.63903,-2.97073 v 0 0 q -5.56423,0 -8.86505,3.44227 v 0 0 q -3.30082,3.44228 -3.30082,10.23254 v 0 25.08621 h -14.71222 v -69.97733 h 14.71222 v 24.52036 0 q 2.92358,-2.92358 7.07318,-4.47968 v 0 0 q 4.1496,-1.5561 9.05367,-1.5561 z m 58.47163,52.24723 v 0 q -8.01627,0 -14.38213,-3.34798 v 0 0 q -6.36587,-3.34797 -9.94961,-9.28944 v 0 0 q -3.58375,-5.94147 -3.58375,-13.4862 v 0 0 q 0,-7.54473 3.58375,-13.4862 v 0 0 q 3.58374,-5.94147 9.94961,-9.28944 v 0 0 q 6.36586,-3.34797 14.38213,-3.34797 v 0 0 q 8.01627,0 14.33498,3.34797 v 0 0 q 6.31871,3.34797 9.90245,9.28944 v 0 0 q 3.58375,5.94147 3.58375,13.4862 v 0 0 q 0,7.54473 -3.58375,13.4862 v 0 0 q -3.58374,5.94147 -9.90245,9.28944 v 0 0 q -6.31871,3.34798 -14.33498,3.34798 z m 0,-12.07156 v 0 q 5.65855,0 9.28944,-3.81952 v 0 0 q 3.63091,-3.81952 3.63091,-10.23254 v 0 0 q 0,-6.41301 -3.63091,-10.23253 v 0 0 q -3.63089,-3.81952 -9.28944,-3.81952 v 0 0 q -5.65855,0 -9.3366,3.81952 v 0 0 q -3.67805,3.81952 -3.67805,10.23253 v 0 0 q 0,6.41302 3.67805,10.23254 v 0 0 q 3.67805,3.81952 9.3366,3.81952 z m 66.39359,-1.50895 3.96098,10.374 v 0 q -2.1691,1.60325 -5.32846,2.40488 v 0 0 q -3.15935,0.80163 -6.64879,0.80163 v 0 0 q -9.05367,0 -14.0049,-4.62115 v 0 0 q -4.95122,-4.62114 -4.95122,-13.58051 v 0 -20.8423 h -7.82766 v -11.31709 h 7.82766 v -12.35449 h 14.71221 v 12.35449 h 12.63742 v 11.31709 h -12.63742 v 20.65369 0 q 0,3.2065 1.65041,4.95122 v 0 0 q 1.65041,1.74472 4.6683,1.74472 v 0 0 q 3.48943,0 5.94147,-1.88618 z m 36.4033,13.58051 v 0 q -8.01627,0 -14.38213,-3.34798 v 0 0 q -6.36586,-3.34797 -9.94961,-9.28944 v 0 0 q -3.58374,-5.94147 -3.58374,-13.4862 v 0 0 q 0,-7.54473 3.58374,-13.4862 v 0 0 q 3.58375,-5.94147 9.94961,-9.28944 v 0 0 q 6.36586,-3.34797 14.38213,-3.34797 v 0 0 q 8.01628,0 14.33499,3.34797 v 0 0 q 6.3187,3.34797 9.90245,9.28944 v 0 0 q 3.58374,5.94147 3.58374,13.4862 v 0 0 q 0,7.54473 -3.58374,13.4862 v 0 0 q -3.58375,5.94147 -9.90245,9.28944 v 0 0 q -6.31871,3.34798 -14.33499,3.34798 z m 0,-12.07156 v 0 q 5.65855,0 9.28945,-3.81952 v 0 0 q 3.6309,-3.81952 3.6309,-10.23254 v 0 0 q 0,-6.41301 -3.6309,-10.23253 v 0 0 q -3.6309,-3.81952 -9.28945,-3.81952 v 0 0 q -5.65854,0 -9.3366,3.81952 v 0 0 q -3.67805,3.81952 -3.67805,10.23253 v 0 0 q 0,6.41302 3.67805,10.23254 v 0 0 q 3.67806,3.81952 9.3366,3.81952 z m 68.4684,-40.17567 v 0 q 9.43091,0 15.23092,5.65854 v 0 0 q 5.8,5.65855 5.8,16.78702 v 0 29.04719 h -14.71221 v -26.78377 0 q 0,-6.03579 -2.64066,-9.00652 v 0 0 q -2.64065,-2.97073 -7.63903,-2.97073 v 0 0 q -5.56424,0 -8.86506,3.44227 v 0 0 q -3.30082,3.44228 -3.30082,10.23254 v 0 25.08621 h -14.71221 v -50.73828 h 14.05205 v 5.94147 0 q 2.92358,-3.20651 7.2618,-4.95123 v 0 0 q 4.33821,-1.74471 9.52522,-1.74471 z"
         id="path1072"
         inkscape:connector-curvature="0"
         style="isolation:isolate;fill:#f9f4f4;fill-rule:evenodd;stroke-width:1.96477246" />
      <path
         d="m 1040.0641,515.17308 v 0 q 9.7413,0 15.2662,4.65258 v 0 0 q 5.525,4.65258 5.525,12.7946 v 0 0 q 0,8.14202 -5.525,12.75923 v 0 0 q -5.5249,4.61525 -15.2662,4.61525 v 0 h -13.667 v 16.06595 h -5.3795 v -50.88761 z m -0.1454,30.09638 v 0 q 7.5604,0 11.5587,-3.3067 v 0 0 q 3.9983,-3.30868 3.9983,-9.3425 v 0 0 q 0,-6.17921 -3.9983,-9.48592 v 0 0 q -3.9983,-3.30868 -11.5587,-3.30868 v 0 h -13.5216 v 25.4438 z m 35.2598,20.79123 v -50.88761 h 5.3795 v 46.23503 h 28.497 v 4.65258 z m 82.8033,0 -6.1065,-13.59427 h -28.3516 l -6.1066,13.59427 h -5.5976 l 23.2629,-50.88761 h 5.3069 l 23.2629,50.88761 z m -32.4953,-17.95606 h 24.426 l -12.213,-27.33391 z m 58.45,17.95606 v -46.23503 h -17.8834 v -4.65258 h 41.1463 v 4.65258 h -17.8834 v 46.23503 z m 68.7002,-46.23503 h -29.5148 v 19.99156 h 26.3162 v 4.65258 h -26.3162 v 21.59089 h -5.3795 v -50.88761 h 34.8943 z m 35.3325,46.67121 v 0 q -7.5604,0 -13.7023,-3.37941 v 0 0 q -6.1439,-3.38137 -9.5959,-9.2698 v 0 0 q -3.4541,-5.88842 -3.4541,-13.23077 v 0 0 q 0,-7.34236 3.4541,-13.23078 v 0 0 q 3.452,-5.88843 9.5959,-9.26784 v 0 0 q 6.1419,-3.38137 13.7023,-3.38137 v 0 0 q 7.5605,0 13.6316,3.34404 v 0 0 q 6.0692,3.34405 9.5586,9.2698 v 0 0 q 3.4895,5.92379 3.4895,13.26615 v 0 0 q 0,7.34235 -3.4895,13.2681 v 0 0 q -3.4894,5.92379 -9.5586,9.26784 v 0 0 q -6.0711,3.34404 -13.6316,3.34404 z m 0,-4.79798 v 0 q 6.0338,0 10.9045,-2.72513 v 0 0 q 4.8706,-2.72711 7.6331,-7.56045 v 0 0 q 2.7625,-4.83531 2.7625,-10.79642 v 0 0 q 0,-5.96112 -2.7625,-10.79447 v 0 0 q -2.7625,-4.8353 -7.6331,-7.56044 v 0 0 q -4.8707,-2.7271 -10.9045,-2.7271 v 0 0 q -6.0338,0 -10.9398,2.7271 v 0 0 q -4.908,2.72514 -7.7059,7.56044 v 0 0 q -2.7998,4.83335 -2.7998,10.79447 v 0 0 q 0,5.96111 2.7998,10.79642 v 0 0 q 2.7979,4.83334 7.7059,7.56045 v 0 0 q 4.906,2.72513 10.9398,2.72513 z m 81.3494,4.3618 h -5.8884 l -11.6314,-16.35673 v 0 q -1.9628,0.21809 -4.0711,0.21809 v 0 h -13.6669 v 16.13864 h -5.3796 v -50.88761 h 19.0465 v 0 q 9.7414,0 15.2664,4.65258 v 0 0 q 5.5249,4.65258 5.5249,12.7946 v 0 0 q 0,5.96112 -3.0159,10.06946 v 0 0 q -3.0179,4.10637 -8.6156,5.92379 v 0 z m -21.7362,-20.71853 v 0 q 7.5604,0 11.5587,-3.34404 v 0 0 q 3.9984,-3.34404 3.9984,-9.37786 v 0 0 q 0,-6.17921 -3.9984,-9.48592 v 0 0 q -3.9983,-3.30868 -11.5587,-3.30868 v 0 h -13.5216 v 25.5165 z m 84.0392,-30.16908 h 4.4345 v 50.88761 h -5.1615 V 525.3506 l -19.9916,34.24009 h -2.5443 l -19.9916,-34.022 v 40.492 h -5.1614 v -50.88761 h 4.4345 l 22.0997,37.72953 z"
         id="path1074"
         inkscape:connector-curvature="0"
         style="isolation:isolate;fill:#f9f4f4;fill-rule:evenodd;stroke-width:1.96477246" />
      <g
         transform="matrix(1.9647725,0,0,1.9647725,458.62907,454.56967)"
         id="g1080"
         style="isolation:isolate">
        <g
           id="g1078">
          <path
             d="m 243.419,11.962 4.608,20.395 17.679,-11.163 -11.163,17.679 20.395,4.608 -20.395,4.608 11.163,17.679 L 248.027,54.605 243.419,75 238.811,54.605 221.132,65.768 232.295,48.089 211.9,43.481 232.295,38.873 221.132,21.194 238.811,32.357 Z"
             id="path1076"
             inkscape:connector-curvature="0"
             style="fill:#ffffff" />
        </g>
      </g>
      <circle
         cx="936.89209"
         cy="539.99988"
         r="85.430214"
         id="circle1082"
         style="isolation:isolate;vector-effect:non-scaling-stroke;fill:none;stroke-width:1.96477246" />
    </g>
  </g>
</svg>
