<?xml version="1.0" encoding="UTF-8" standalone="no"?>
<!-- Generator: Gravit.io -->
<svg xmlns="http://www.w3.org/2000/svg" xmlns:xlink="http://www.w3.org/1999/xlink" style="isolation:isolate" viewBox="0 0 515 86.962" width="515" height="86.962"><defs><clipPath id="_clipPath_zcfZ1TVDWDzy9VMGd0MFvKUUSi36Tuiy"><rect width="515" height="86.962"/></clipPath></defs><g clip-path="url(#_clipPath_zcfZ1TVDWDzy9VMGd0MFvKUUSi36Tuiy)"><rect width="515" height="86.962" style="fill:rgb(33,33,33)"/><path d=" M 37.72 30.218 L 37.72 30.218 Q 41.32 30.218 44.272 31.874 L 44.272 31.874 L 44.272 31.874 Q 47.224 33.53 48.904 36.53 L 48.904 36.53 L 48.904 36.53 Q 50.584 39.53 50.584 43.514 L 50.584 43.514 L 50.584 43.514 Q 50.584 47.498 48.904 50.498 L 48.904 50.498 L 48.904 50.498 Q 47.224 53.498 44.272 55.154 L 44.272 55.154 L 44.272 55.154 Q 41.32 56.81 37.72 56.81 L 37.72 56.81 L 37.72 56.81 Q 32.776 56.81 29.944 53.69 L 29.944 53.69 L 29.944 65.738 L 22.456 65.738 L 22.456 30.602 L 29.608 30.602 L 29.608 33.578 L 29.608 33.578 Q 32.392 30.218 37.72 30.218 L 37.72 30.218 L 37.72 30.218 Z  M 36.424 50.666 L 36.424 50.666 Q 39.304 50.666 41.152 48.722 L 41.152 48.722 L 41.152 48.722 Q 43 46.778 43 43.514 L 43 43.514 L 43 43.514 Q 43 40.25 41.152 38.306 L 41.152 38.306 L 41.152 38.306 Q 39.304 36.362 36.424 36.362 L 36.424 36.362 L 36.424 36.362 Q 33.544 36.362 31.696 38.306 L 31.696 38.306 L 31.696 38.306 Q 29.848 40.25 29.848 43.514 L 29.848 43.514 L 29.848 43.514 Q 29.848 46.778 31.696 48.722 L 31.696 48.722 L 31.696 48.722 Q 33.544 50.666 36.424 50.666 L 36.424 50.666 L 36.424 50.666 Z  M 71.272 30.218 L 71.272 30.218 Q 76.072 30.218 79.024 33.098 L 79.024 33.098 L 79.024 33.098 Q 81.976 35.978 81.976 41.642 L 81.976 41.642 L 81.976 56.426 L 74.488 56.426 L 74.488 42.794 L 74.488 42.794 Q 74.488 39.722 73.144 38.21 L 73.144 38.21 L 73.144 38.21 Q 71.8 36.698 69.256 36.698 L 69.256 36.698 L 69.256 36.698 Q 66.424 36.698 64.744 38.45 L 64.744 38.45 L 64.744 38.45 Q 63.064 40.202 63.064 43.658 L 63.064 43.658 L 63.064 56.426 L 55.576 56.426 L 55.576 20.81 L 63.064 20.81 L 63.064 33.29 L 63.064 33.29 Q 64.552 31.802 66.664 31.01 L 66.664 31.01 L 66.664 31.01 Q 68.776 30.218 71.272 30.218 L 71.272 30.218 L 71.272 30.218 Z  M 101.032 56.81 L 101.032 56.81 Q 96.952 56.81 93.712 55.106 L 93.712 55.106 L 93.712 55.106 Q 90.472 53.402 88.648 50.378 L 88.648 50.378 L 88.648 50.378 Q 86.824 47.354 86.824 43.514 L 86.824 43.514 L 86.824 43.514 Q 86.824 39.674 88.648 36.65 L 88.648 36.65 L 88.648 36.65 Q 90.472 33.626 93.712 31.922 L 93.712 31.922 L 93.712 31.922 Q 96.952 30.218 101.032 30.218 L 101.032 30.218 L 101.032 30.218 Q 105.112 30.218 108.328 31.922 L 108.328 31.922 L 108.328 31.922 Q 111.544 33.626 113.368 36.65 L 113.368 36.65 L 113.368 36.65 Q 115.192 39.674 115.192 43.514 L 115.192 43.514 L 115.192 43.514 Q 115.192 47.354 113.368 50.378 L 113.368 50.378 L 113.368 50.378 Q 111.544 53.402 108.328 55.106 L 108.328 55.106 L 108.328 55.106 Q 105.112 56.81 101.032 56.81 L 101.032 56.81 L 101.032 56.81 Z  M 101.032 50.666 L 101.032 50.666 Q 103.912 50.666 105.76 48.722 L 105.76 48.722 L 105.76 48.722 Q 107.608 46.778 107.608 43.514 L 107.608 43.514 L 107.608 43.514 Q 107.608 40.25 105.76 38.306 L 105.76 38.306 L 105.76 38.306 Q 103.912 36.362 101.032 36.362 L 101.032 36.362 L 101.032 36.362 Q 98.152 36.362 96.28 38.306 L 96.28 38.306 L 96.28 38.306 Q 94.408 40.25 94.408 43.514 L 94.408 43.514 L 94.408 43.514 Q 94.408 46.778 96.28 48.722 L 96.28 48.722 L 96.28 48.722 Q 98.152 50.666 101.032 50.666 L 101.032 50.666 L 101.032 50.666 Z  M 134.824 49.898 L 136.84 55.178 L 136.84 55.178 Q 135.736 55.994 134.128 56.402 L 134.128 56.402 L 134.128 56.402 Q 132.52 56.81 130.744 56.81 L 130.744 56.81 L 130.744 56.81 Q 126.136 56.81 123.616 54.458 L 123.616 54.458 L 123.616 54.458 Q 121.096 52.106 121.096 47.546 L 121.096 47.546 L 121.096 36.938 L 117.112 36.938 L 117.112 31.178 L 121.096 31.178 L 121.096 24.89 L 128.584 24.89 L 128.584 31.178 L 135.016 31.178 L 135.016 36.938 L 128.584 36.938 L 128.584 47.45 L 128.584 47.45 Q 128.584 49.082 129.424 49.97 L 129.424 49.97 L 129.424 49.97 Q 130.264 50.858 131.8 50.858 L 131.8 50.858 L 131.8 50.858 Q 133.576 50.858 134.824 49.898 L 134.824 49.898 L 134.824 49.898 Z  M 153.352 56.81 L 153.352 56.81 Q 149.272 56.81 146.032 55.106 L 146.032 55.106 L 146.032 55.106 Q 142.792 53.402 140.968 50.378 L 140.968 50.378 L 140.968 50.378 Q 139.144 47.354 139.144 43.514 L 139.144 43.514 L 139.144 43.514 Q 139.144 39.674 140.968 36.65 L 140.968 36.65 L 140.968 36.65 Q 142.792 33.626 146.032 31.922 L 146.032 31.922 L 146.032 31.922 Q 149.272 30.218 153.352 30.218 L 153.352 30.218 L 153.352 30.218 Q 157.432 30.218 160.648 31.922 L 160.648 31.922 L 160.648 31.922 Q 163.864 33.626 165.688 36.65 L 165.688 36.65 L 165.688 36.65 Q 167.512 39.674 167.512 43.514 L 167.512 43.514 L 167.512 43.514 Q 167.512 47.354 165.688 50.378 L 165.688 50.378 L 165.688 50.378 Q 163.864 53.402 160.648 55.106 L 160.648 55.106 L 160.648 55.106 Q 157.432 56.81 153.352 56.81 L 153.352 56.81 L 153.352 56.81 Z  M 153.352 50.666 L 153.352 50.666 Q 156.232 50.666 158.08 48.722 L 158.08 48.722 L 158.08 48.722 Q 159.928 46.778 159.928 43.514 L 159.928 43.514 L 159.928 43.514 Q 159.928 40.25 158.08 38.306 L 158.08 38.306 L 158.08 38.306 Q 156.232 36.362 153.352 36.362 L 153.352 36.362 L 153.352 36.362 Q 150.472 36.362 148.6 38.306 L 148.6 38.306 L 148.6 38.306 Q 146.728 40.25 146.728 43.514 L 146.728 43.514 L 146.728 43.514 Q 146.728 46.778 148.6 48.722 L 148.6 48.722 L 148.6 48.722 Q 150.472 50.666 153.352 50.666 L 153.352 50.666 L 153.352 50.666 Z  M 188.2 30.218 L 188.2 30.218 Q 193 30.218 195.952 33.098 L 195.952 33.098 L 195.952 33.098 Q 198.904 35.978 198.904 41.642 L 198.904 41.642 L 198.904 56.426 L 191.416 56.426 L 191.416 42.794 L 191.416 42.794 Q 191.416 39.722 190.072 38.21 L 190.072 38.21 L 190.072 38.21 Q 188.728 36.698 186.184 36.698 L 186.184 36.698 L 186.184 36.698 Q 183.352 36.698 181.672 38.45 L 181.672 38.45 L 181.672 38.45 Q 179.992 40.202 179.992 43.658 L 179.992 43.658 L 179.992 56.426 L 172.504 56.426 L 172.504 30.602 L 179.656 30.602 L 179.656 33.626 L 179.656 33.626 Q 181.144 31.994 183.352 31.106 L 183.352 31.106 L 183.352 31.106 Q 185.56 30.218 188.2 30.218 L 188.2 30.218 L 188.2 30.218 Z " fill-rule="evenodd" fill="rgb(249,244,244)"/><path d=" M 294.912 30.845 L 294.912 30.845 Q 299.87 30.845 302.682 33.213 L 302.682 33.213 L 302.682 33.213 Q 305.494 35.581 305.494 39.725 L 305.494 39.725 L 305.494 39.725 Q 305.494 43.869 302.682 46.219 L 302.682 46.219 L 302.682 46.219 Q 299.87 48.568 294.912 48.568 L 294.912 48.568 L 287.956 48.568 L 287.956 56.745 L 285.218 56.745 L 285.218 30.845 L 294.912 30.845 L 294.912 30.845 Z  M 294.838 46.163 L 294.838 46.163 Q 298.686 46.163 300.721 44.48 L 300.721 44.48 L 300.721 44.48 Q 302.756 42.796 302.756 39.725 L 302.756 39.725 L 302.756 39.725 Q 302.756 36.58 300.721 34.897 L 300.721 34.897 L 300.721 34.897 Q 298.686 33.213 294.838 33.213 L 294.838 33.213 L 287.956 33.213 L 287.956 46.163 L 294.838 46.163 L 294.838 46.163 Z  M 312.784 56.745 L 312.784 30.845 L 315.522 30.845 L 315.522 54.377 L 330.026 54.377 L 330.026 56.745 L 312.784 56.745 L 312.784 56.745 Z  M 354.928 56.745 L 351.82 49.826 L 337.39 49.826 L 334.282 56.745 L 331.433 56.745 L 343.273 30.845 L 345.974 30.845 L 357.814 56.745 L 354.928 56.745 L 354.928 56.745 Z  M 338.389 47.606 L 350.821 47.606 L 344.605 33.694 L 338.389 47.606 L 338.389 47.606 Z  M 368.138 56.745 L 368.138 33.213 L 359.036 33.213 L 359.036 30.845 L 379.978 30.845 L 379.978 33.213 L 370.876 33.213 L 370.876 56.745 L 368.138 56.745 L 368.138 56.745 Z  M 403.104 33.213 L 388.082 33.213 L 388.082 43.388 L 401.476 43.388 L 401.476 45.756 L 388.082 45.756 L 388.082 56.745 L 385.344 56.745 L 385.344 30.845 L 403.104 30.845 L 403.104 33.213 L 403.104 33.213 Z  M 421.087 56.967 L 421.087 56.967 Q 417.239 56.967 414.113 55.247 L 414.113 55.247 L 414.113 55.247 Q 410.986 53.526 409.229 50.529 L 409.229 50.529 L 409.229 50.529 Q 407.471 47.532 407.471 43.795 L 407.471 43.795 L 407.471 43.795 Q 407.471 40.058 409.229 37.061 L 409.229 37.061 L 409.229 37.061 Q 410.986 34.064 414.113 32.344 L 414.113 32.344 L 414.113 32.344 Q 417.239 30.623 421.087 30.623 L 421.087 30.623 L 421.087 30.623 Q 424.935 30.623 428.025 32.325 L 428.025 32.325 L 428.025 32.325 Q 431.114 34.027 432.89 37.043 L 432.89 37.043 L 432.89 37.043 Q 434.666 40.058 434.666 43.795 L 434.666 43.795 L 434.666 43.795 Q 434.666 47.532 432.89 50.548 L 432.89 50.548 L 432.89 50.548 Q 431.114 53.563 428.025 55.265 L 428.025 55.265 L 428.025 55.265 Q 424.935 56.967 421.087 56.967 L 421.087 56.967 L 421.087 56.967 Z  M 421.087 54.525 L 421.087 54.525 Q 424.158 54.525 426.637 53.138 L 426.637 53.138 L 426.637 53.138 Q 429.116 51.75 430.522 49.29 L 430.522 49.29 L 430.522 49.29 Q 431.928 46.829 431.928 43.795 L 431.928 43.795 L 431.928 43.795 Q 431.928 40.761 430.522 38.301 L 430.522 38.301 L 430.522 38.301 Q 429.116 35.84 426.637 34.453 L 426.637 34.453 L 426.637 34.453 Q 424.158 33.065 421.087 33.065 L 421.087 33.065 L 421.087 33.065 Q 418.016 33.065 415.519 34.453 L 415.519 34.453 L 415.519 34.453 Q 413.021 35.84 411.597 38.301 L 411.597 38.301 L 411.597 38.301 Q 410.172 40.761 410.172 43.795 L 410.172 43.795 L 410.172 43.795 Q 410.172 46.829 411.597 49.29 L 411.597 49.29 L 411.597 49.29 Q 413.021 51.75 415.519 53.138 L 415.519 53.138 L 415.519 53.138 Q 418.016 54.525 421.087 54.525 L 421.087 54.525 L 421.087 54.525 Z  M 462.491 56.745 L 459.494 56.745 L 453.574 48.42 L 453.574 48.42 Q 452.575 48.531 451.502 48.531 L 451.502 48.531 L 444.546 48.531 L 444.546 56.745 L 441.808 56.745 L 441.808 30.845 L 451.502 30.845 L 451.502 30.845 Q 456.46 30.845 459.272 33.213 L 459.272 33.213 L 459.272 33.213 Q 462.084 35.581 462.084 39.725 L 462.084 39.725 L 462.084 39.725 Q 462.084 42.759 460.549 44.85 L 460.549 44.85 L 460.549 44.85 Q 459.013 46.94 456.164 47.865 L 456.164 47.865 L 462.491 56.745 L 462.491 56.745 Z  M 451.428 46.2 L 451.428 46.2 Q 455.276 46.2 457.311 44.498 L 457.311 44.498 L 457.311 44.498 Q 459.346 42.796 459.346 39.725 L 459.346 39.725 L 459.346 39.725 Q 459.346 36.58 457.311 34.897 L 457.311 34.897 L 457.311 34.897 Q 455.276 33.213 451.428 33.213 L 451.428 33.213 L 444.546 33.213 L 444.546 46.2 L 451.428 46.2 L 451.428 46.2 Z  M 494.201 30.845 L 496.458 30.845 L 496.458 56.745 L 493.831 56.745 L 493.831 36.025 L 483.656 53.452 L 482.361 53.452 L 472.186 36.136 L 472.186 56.745 L 469.559 56.745 L 469.559 30.845 L 471.816 30.845 L 483.064 50.048 L 494.201 30.845 L 494.201 30.845 Z " fill-rule="evenodd" fill="rgb(249,244,244)"/><g><g><path d=" M 243.419 11.962 L 248.027 32.357 L 265.706 21.194 L 254.543 38.873 L 274.938 43.481 L 254.543 48.089 L 265.706 65.768 L 248.027 54.605 L 243.419 75 L 238.811 54.605 L 221.132 65.768 L 232.295 48.089 L 211.9 43.481 L 232.295 38.873 L 221.132 21.194 L 238.811 32.357 L 243.419 11.962 Z " fill="rgb(255,255,255)"/></g></g><circle vector-effect="non-scaling-stroke" cx="243.41902755503514" cy="43.48097337990496" r="43.48097241910261" fill="none"/></g></svg>