<?xml version="1.0" encoding="UTF-8" standalone="no"?>
<!-- Generator: Gravit.io -->
<svg xmlns="http://www.w3.org/2000/svg" xmlns:xlink="http://www.w3.org/1999/xlink" style="isolation:isolate" viewBox="0 0 291 86.962" width="291" height="86.962"><defs><clipPath id="_clipPath_m0Ndwv3kLk0fk9iARRRuPgqyQHCHdB0R"><rect width="291" height="86.962"/></clipPath></defs><g clip-path="url(#_clipPath_m0Ndwv3kLk0fk9iARRRuPgqyQHCHdB0R)"><rect width="291" height="86.962" style="fill:rgb(33,33,33)"/><path d=" M 38.72 30.218 L 38.72 30.218 Q 42.32 30.218 45.272 31.874 L 45.272 31.874 L 45.272 31.874 Q 48.224 33.53 49.904 36.53 L 49.904 36.53 L 49.904 36.53 Q 51.584 39.53 51.584 43.514 L 51.584 43.514 L 51.584 43.514 Q 51.584 47.498 49.904 50.498 L 49.904 50.498 L 49.904 50.498 Q 48.224 53.498 45.272 55.154 L 45.272 55.154 L 45.272 55.154 Q 42.32 56.81 38.72 56.81 L 38.72 56.81 L 38.72 56.81 Q 33.776 56.81 30.944 53.69 L 30.944 53.69 L 30.944 65.738 L 23.456 65.738 L 23.456 30.602 L 30.608 30.602 L 30.608 33.578 L 30.608 33.578 Q 33.392 30.218 38.72 30.218 L 38.72 30.218 L 38.72 30.218 Z  M 37.424 50.666 L 37.424 50.666 Q 40.304 50.666 42.152 48.722 L 42.152 48.722 L 42.152 48.722 Q 44 46.778 44 43.514 L 44 43.514 L 44 43.514 Q 44 40.25 42.152 38.306 L 42.152 38.306 L 42.152 38.306 Q 40.304 36.362 37.424 36.362 L 37.424 36.362 L 37.424 36.362 Q 34.544 36.362 32.696 38.306 L 32.696 38.306 L 32.696 38.306 Q 30.848 40.25 30.848 43.514 L 30.848 43.514 L 30.848 43.514 Q 30.848 46.778 32.696 48.722 L 32.696 48.722 L 32.696 48.722 Q 34.544 50.666 37.424 50.666 L 37.424 50.666 L 37.424 50.666 Z  M 72.272 30.218 L 72.272 30.218 Q 77.072 30.218 80.024 33.098 L 80.024 33.098 L 80.024 33.098 Q 82.976 35.978 82.976 41.642 L 82.976 41.642 L 82.976 56.426 L 75.488 56.426 L 75.488 42.794 L 75.488 42.794 Q 75.488 39.722 74.144 38.21 L 74.144 38.21 L 74.144 38.21 Q 72.8 36.698 70.256 36.698 L 70.256 36.698 L 70.256 36.698 Q 67.424 36.698 65.744 38.45 L 65.744 38.45 L 65.744 38.45 Q 64.064 40.202 64.064 43.658 L 64.064 43.658 L 64.064 56.426 L 56.576 56.426 L 56.576 20.81 L 64.064 20.81 L 64.064 33.29 L 64.064 33.29 Q 65.552 31.802 67.664 31.01 L 67.664 31.01 L 67.664 31.01 Q 69.776 30.218 72.272 30.218 L 72.272 30.218 L 72.272 30.218 Z  M 102.032 56.81 L 102.032 56.81 Q 97.952 56.81 94.712 55.106 L 94.712 55.106 L 94.712 55.106 Q 91.472 53.402 89.648 50.378 L 89.648 50.378 L 89.648 50.378 Q 87.824 47.354 87.824 43.514 L 87.824 43.514 L 87.824 43.514 Q 87.824 39.674 89.648 36.65 L 89.648 36.65 L 89.648 36.65 Q 91.472 33.626 94.712 31.922 L 94.712 31.922 L 94.712 31.922 Q 97.952 30.218 102.032 30.218 L 102.032 30.218 L 102.032 30.218 Q 106.112 30.218 109.328 31.922 L 109.328 31.922 L 109.328 31.922 Q 112.544 33.626 114.368 36.65 L 114.368 36.65 L 114.368 36.65 Q 116.192 39.674 116.192 43.514 L 116.192 43.514 L 116.192 43.514 Q 116.192 47.354 114.368 50.378 L 114.368 50.378 L 114.368 50.378 Q 112.544 53.402 109.328 55.106 L 109.328 55.106 L 109.328 55.106 Q 106.112 56.81 102.032 56.81 L 102.032 56.81 L 102.032 56.81 Z  M 102.032 50.666 L 102.032 50.666 Q 104.912 50.666 106.76 48.722 L 106.76 48.722 L 106.76 48.722 Q 108.608 46.778 108.608 43.514 L 108.608 43.514 L 108.608 43.514 Q 108.608 40.25 106.76 38.306 L 106.76 38.306 L 106.76 38.306 Q 104.912 36.362 102.032 36.362 L 102.032 36.362 L 102.032 36.362 Q 99.152 36.362 97.28 38.306 L 97.28 38.306 L 97.28 38.306 Q 95.408 40.25 95.408 43.514 L 95.408 43.514 L 95.408 43.514 Q 95.408 46.778 97.28 48.722 L 97.28 48.722 L 97.28 48.722 Q 99.152 50.666 102.032 50.666 L 102.032 50.666 L 102.032 50.666 Z  M 135.824 49.898 L 137.84 55.178 L 137.84 55.178 Q 136.736 55.994 135.128 56.402 L 135.128 56.402 L 135.128 56.402 Q 133.52 56.81 131.744 56.81 L 131.744 56.81 L 131.744 56.81 Q 127.136 56.81 124.616 54.458 L 124.616 54.458 L 124.616 54.458 Q 122.096 52.106 122.096 47.546 L 122.096 47.546 L 122.096 36.938 L 118.112 36.938 L 118.112 31.178 L 122.096 31.178 L 122.096 24.89 L 129.584 24.89 L 129.584 31.178 L 136.016 31.178 L 136.016 36.938 L 129.584 36.938 L 129.584 47.45 L 129.584 47.45 Q 129.584 49.082 130.424 49.97 L 130.424 49.97 L 130.424 49.97 Q 131.264 50.858 132.8 50.858 L 132.8 50.858 L 132.8 50.858 Q 134.576 50.858 135.824 49.898 L 135.824 49.898 L 135.824 49.898 Z  M 154.352 56.81 L 154.352 56.81 Q 150.272 56.81 147.032 55.106 L 147.032 55.106 L 147.032 55.106 Q 143.792 53.402 141.968 50.378 L 141.968 50.378 L 141.968 50.378 Q 140.144 47.354 140.144 43.514 L 140.144 43.514 L 140.144 43.514 Q 140.144 39.674 141.968 36.65 L 141.968 36.65 L 141.968 36.65 Q 143.792 33.626 147.032 31.922 L 147.032 31.922 L 147.032 31.922 Q 150.272 30.218 154.352 30.218 L 154.352 30.218 L 154.352 30.218 Q 158.432 30.218 161.648 31.922 L 161.648 31.922 L 161.648 31.922 Q 164.864 33.626 166.688 36.65 L 166.688 36.65 L 166.688 36.65 Q 168.512 39.674 168.512 43.514 L 168.512 43.514 L 168.512 43.514 Q 168.512 47.354 166.688 50.378 L 166.688 50.378 L 166.688 50.378 Q 164.864 53.402 161.648 55.106 L 161.648 55.106 L 161.648 55.106 Q 158.432 56.81 154.352 56.81 L 154.352 56.81 L 154.352 56.81 Z  M 154.352 50.666 L 154.352 50.666 Q 157.232 50.666 159.08 48.722 L 159.08 48.722 L 159.08 48.722 Q 160.928 46.778 160.928 43.514 L 160.928 43.514 L 160.928 43.514 Q 160.928 40.25 159.08 38.306 L 159.08 38.306 L 159.08 38.306 Q 157.232 36.362 154.352 36.362 L 154.352 36.362 L 154.352 36.362 Q 151.472 36.362 149.6 38.306 L 149.6 38.306 L 149.6 38.306 Q 147.728 40.25 147.728 43.514 L 147.728 43.514 L 147.728 43.514 Q 147.728 46.778 149.6 48.722 L 149.6 48.722 L 149.6 48.722 Q 151.472 50.666 154.352 50.666 L 154.352 50.666 L 154.352 50.666 Z  M 189.2 30.218 L 189.2 30.218 Q 194 30.218 196.952 33.098 L 196.952 33.098 L 196.952 33.098 Q 199.904 35.978 199.904 41.642 L 199.904 41.642 L 199.904 56.426 L 192.416 56.426 L 192.416 42.794 L 192.416 42.794 Q 192.416 39.722 191.072 38.21 L 191.072 38.21 L 191.072 38.21 Q 189.728 36.698 187.184 36.698 L 187.184 36.698 L 187.184 36.698 Q 184.352 36.698 182.672 38.45 L 182.672 38.45 L 182.672 38.45 Q 180.992 40.202 180.992 43.658 L 180.992 43.658 L 180.992 56.426 L 173.504 56.426 L 173.504 30.602 L 180.656 30.602 L 180.656 33.626 L 180.656 33.626 Q 182.144 31.994 184.352 31.106 L 184.352 31.106 L 184.352 31.106 Q 186.56 30.218 189.2 30.218 L 189.2 30.218 L 189.2 30.218 Z " fill-rule="evenodd" fill="rgb(249,244,244)"/><g><g><path d=" M 247.519 11.962 L 242.911 32.357 L 225.232 21.194 L 236.395 38.873 L 216 43.481 L 236.395 48.089 L 225.232 65.768 L 242.911 54.605 L 247.519 75 L 252.127 54.605 L 269.806 65.768 L 258.643 48.089 L 279.038 43.481 L 258.643 38.873 L 269.806 21.194 L 252.127 32.357 L 247.519 11.962 Z " fill="rgb(255,255,255)"/></g></g><circle vector-effect="non-scaling-stroke" cx="247.5190275808974" cy="43.48097337990496" r="43.48097241910261" fill="none"/></g></svg>