<?xml version="1.0" encoding="UTF-8" standalone="no"?>
<!-- Generator: Gravit.io -->
<svg xmlns="http://www.w3.org/2000/svg" xmlns:xlink="http://www.w3.org/1999/xlink" style="isolation:isolate" viewBox="0 0 291 86.962" width="291" height="86.962"><defs><clipPath id="_clipPath_B1Es6CsLum7ez7Guy4ZMFPy9iGSfrkDj"><rect width="291" height="86.962"/></clipPath></defs><g clip-path="url(#_clipPath_B1Es6CsLum7ez7Guy4ZMFPy9iGSfrkDj)"><rect width="291" height="86.962" style="fill:rgb(33,33,33)"/><path d=" M 101.682 30.218 L 101.682 30.218 Q 105.282 30.218 108.234 31.874 L 108.234 31.874 L 108.234 31.874 Q 111.186 33.53 112.866 36.53 L 112.866 36.53 L 112.866 36.53 Q 114.546 39.53 114.546 43.514 L 114.546 43.514 L 114.546 43.514 Q 114.546 47.498 112.866 50.498 L 112.866 50.498 L 112.866 50.498 Q 111.186 53.498 108.234 55.154 L 108.234 55.154 L 108.234 55.154 Q 105.282 56.81 101.682 56.81 L 101.682 56.81 L 101.682 56.81 Q 96.738 56.81 93.906 53.69 L 93.906 53.69 L 93.906 65.738 L 86.418 65.738 L 86.418 30.602 L 93.57 30.602 L 93.57 33.578 L 93.57 33.578 Q 96.354 30.218 101.682 30.218 L 101.682 30.218 L 101.682 30.218 Z  M 100.386 50.666 L 100.386 50.666 Q 103.266 50.666 105.114 48.722 L 105.114 48.722 L 105.114 48.722 Q 106.962 46.778 106.962 43.514 L 106.962 43.514 L 106.962 43.514 Q 106.962 40.25 105.114 38.306 L 105.114 38.306 L 105.114 38.306 Q 103.266 36.362 100.386 36.362 L 100.386 36.362 L 100.386 36.362 Q 97.506 36.362 95.658 38.306 L 95.658 38.306 L 95.658 38.306 Q 93.81 40.25 93.81 43.514 L 93.81 43.514 L 93.81 43.514 Q 93.81 46.778 95.658 48.722 L 95.658 48.722 L 95.658 48.722 Q 97.506 50.666 100.386 50.666 L 100.386 50.666 L 100.386 50.666 Z  M 135.234 30.218 L 135.234 30.218 Q 140.034 30.218 142.986 33.098 L 142.986 33.098 L 142.986 33.098 Q 145.938 35.978 145.938 41.642 L 145.938 41.642 L 145.938 56.426 L 138.45 56.426 L 138.45 42.794 L 138.45 42.794 Q 138.45 39.722 137.106 38.21 L 137.106 38.21 L 137.106 38.21 Q 135.762 36.698 133.218 36.698 L 133.218 36.698 L 133.218 36.698 Q 130.386 36.698 128.706 38.45 L 128.706 38.45 L 128.706 38.45 Q 127.026 40.202 127.026 43.658 L 127.026 43.658 L 127.026 56.426 L 119.538 56.426 L 119.538 20.81 L 127.026 20.81 L 127.026 33.29 L 127.026 33.29 Q 128.514 31.802 130.626 31.01 L 130.626 31.01 L 130.626 31.01 Q 132.738 30.218 135.234 30.218 L 135.234 30.218 L 135.234 30.218 Z  M 164.994 56.81 L 164.994 56.81 Q 160.914 56.81 157.674 55.106 L 157.674 55.106 L 157.674 55.106 Q 154.434 53.402 152.61 50.378 L 152.61 50.378 L 152.61 50.378 Q 150.786 47.354 150.786 43.514 L 150.786 43.514 L 150.786 43.514 Q 150.786 39.674 152.61 36.65 L 152.61 36.65 L 152.61 36.65 Q 154.434 33.626 157.674 31.922 L 157.674 31.922 L 157.674 31.922 Q 160.914 30.218 164.994 30.218 L 164.994 30.218 L 164.994 30.218 Q 169.074 30.218 172.29 31.922 L 172.29 31.922 L 172.29 31.922 Q 175.506 33.626 177.33 36.65 L 177.33 36.65 L 177.33 36.65 Q 179.154 39.674 179.154 43.514 L 179.154 43.514 L 179.154 43.514 Q 179.154 47.354 177.33 50.378 L 177.33 50.378 L 177.33 50.378 Q 175.506 53.402 172.29 55.106 L 172.29 55.106 L 172.29 55.106 Q 169.074 56.81 164.994 56.81 L 164.994 56.81 L 164.994 56.81 Z  M 164.994 50.666 L 164.994 50.666 Q 167.874 50.666 169.722 48.722 L 169.722 48.722 L 169.722 48.722 Q 171.57 46.778 171.57 43.514 L 171.57 43.514 L 171.57 43.514 Q 171.57 40.25 169.722 38.306 L 169.722 38.306 L 169.722 38.306 Q 167.874 36.362 164.994 36.362 L 164.994 36.362 L 164.994 36.362 Q 162.114 36.362 160.242 38.306 L 160.242 38.306 L 160.242 38.306 Q 158.37 40.25 158.37 43.514 L 158.37 43.514 L 158.37 43.514 Q 158.37 46.778 160.242 48.722 L 160.242 48.722 L 160.242 48.722 Q 162.114 50.666 164.994 50.666 L 164.994 50.666 L 164.994 50.666 Z  M 198.786 49.898 L 200.802 55.178 L 200.802 55.178 Q 199.698 55.994 198.09 56.402 L 198.09 56.402 L 198.09 56.402 Q 196.482 56.81 194.706 56.81 L 194.706 56.81 L 194.706 56.81 Q 190.098 56.81 187.578 54.458 L 187.578 54.458 L 187.578 54.458 Q 185.058 52.106 185.058 47.546 L 185.058 47.546 L 185.058 36.938 L 181.074 36.938 L 181.074 31.178 L 185.058 31.178 L 185.058 24.89 L 192.546 24.89 L 192.546 31.178 L 198.978 31.178 L 198.978 36.938 L 192.546 36.938 L 192.546 47.45 L 192.546 47.45 Q 192.546 49.082 193.386 49.97 L 193.386 49.97 L 193.386 49.97 Q 194.226 50.858 195.762 50.858 L 195.762 50.858 L 195.762 50.858 Q 197.538 50.858 198.786 49.898 L 198.786 49.898 L 198.786 49.898 Z  M 217.314 56.81 L 217.314 56.81 Q 213.234 56.81 209.994 55.106 L 209.994 55.106 L 209.994 55.106 Q 206.754 53.402 204.93 50.378 L 204.93 50.378 L 204.93 50.378 Q 203.106 47.354 203.106 43.514 L 203.106 43.514 L 203.106 43.514 Q 203.106 39.674 204.93 36.65 L 204.93 36.65 L 204.93 36.65 Q 206.754 33.626 209.994 31.922 L 209.994 31.922 L 209.994 31.922 Q 213.234 30.218 217.314 30.218 L 217.314 30.218 L 217.314 30.218 Q 221.394 30.218 224.61 31.922 L 224.61 31.922 L 224.61 31.922 Q 227.826 33.626 229.65 36.65 L 229.65 36.65 L 229.65 36.65 Q 231.474 39.674 231.474 43.514 L 231.474 43.514 L 231.474 43.514 Q 231.474 47.354 229.65 50.378 L 229.65 50.378 L 229.65 50.378 Q 227.826 53.402 224.61 55.106 L 224.61 55.106 L 224.61 55.106 Q 221.394 56.81 217.314 56.81 L 217.314 56.81 L 217.314 56.81 Z  M 217.314 50.666 L 217.314 50.666 Q 220.194 50.666 222.042 48.722 L 222.042 48.722 L 222.042 48.722 Q 223.89 46.778 223.89 43.514 L 223.89 43.514 L 223.89 43.514 Q 223.89 40.25 222.042 38.306 L 222.042 38.306 L 222.042 38.306 Q 220.194 36.362 217.314 36.362 L 217.314 36.362 L 217.314 36.362 Q 214.434 36.362 212.562 38.306 L 212.562 38.306 L 212.562 38.306 Q 210.69 40.25 210.69 43.514 L 210.69 43.514 L 210.69 43.514 Q 210.69 46.778 212.562 48.722 L 212.562 48.722 L 212.562 48.722 Q 214.434 50.666 217.314 50.666 L 217.314 50.666 L 217.314 50.666 Z  M 252.162 30.218 L 252.162 30.218 Q 256.962 30.218 259.914 33.098 L 259.914 33.098 L 259.914 33.098 Q 262.866 35.978 262.866 41.642 L 262.866 41.642 L 262.866 56.426 L 255.378 56.426 L 255.378 42.794 L 255.378 42.794 Q 255.378 39.722 254.034 38.21 L 254.034 38.21 L 254.034 38.21 Q 252.69 36.698 250.146 36.698 L 250.146 36.698 L 250.146 36.698 Q 247.314 36.698 245.634 38.45 L 245.634 38.45 L 245.634 38.45 Q 243.954 40.202 243.954 43.658 L 243.954 43.658 L 243.954 56.426 L 236.466 56.426 L 236.466 30.602 L 243.618 30.602 L 243.618 33.626 L 243.618 33.626 Q 245.106 31.994 247.314 31.106 L 247.314 31.106 L 247.314 31.106 Q 249.522 30.218 252.162 30.218 L 252.162 30.218 L 252.162 30.218 Z " fill-rule="evenodd" fill="rgb(249,244,244)"/><g><g><path d=" M 43.481 11.962 L 48.089 32.357 L 65.768 21.194 L 54.605 38.873 L 75 43.481 L 54.605 48.089 L 65.768 65.768 L 48.089 54.605 L 43.481 75 L 38.873 54.605 L 21.194 65.768 L 32.357 48.089 L 11.962 43.481 L 32.357 38.873 L 21.194 21.194 L 38.873 32.357 L 43.481 11.962 Z " fill="rgb(255,255,255)"/></g></g><circle vector-effect="non-scaling-stroke" cx="43.480972419102606" cy="43.480972419102606" r="43.48097241910261" fill="none"/></g></svg>