<?xml version="1.0" encoding="UTF-8" standalone="no"?>
<!-- Generator: Gravit.io -->
<svg xmlns="http://www.w3.org/2000/svg" xmlns:xlink="http://www.w3.org/1999/xlink" style="isolation:isolate" viewBox="0 0 515 86.962" width="515" height="86.962"><defs><clipPath id="_clipPath_3GSWCnDI1LcKArdK11zcm7GLkCsKcqFa"><rect width="515" height="86.962"/></clipPath></defs><g clip-path="url(#_clipPath_3GSWCnDI1LcKArdK11zcm7GLkCsKcqFa)"><rect width="515" height="86.962" style="fill:rgb(33,33,33)"/><path d=" M 101.682 30.218 L 101.682 30.218 Q 105.282 30.218 108.234 31.874 L 108.234 31.874 L 108.234 31.874 Q 111.186 33.53 112.866 36.53 L 112.866 36.53 L 112.866 36.53 Q 114.546 39.53 114.546 43.514 L 114.546 43.514 L 114.546 43.514 Q 114.546 47.498 112.866 50.498 L 112.866 50.498 L 112.866 50.498 Q 111.186 53.498 108.234 55.154 L 108.234 55.154 L 108.234 55.154 Q 105.282 56.81 101.682 56.81 L 101.682 56.81 L 101.682 56.81 Q 96.738 56.81 93.906 53.69 L 93.906 53.69 L 93.906 65.738 L 86.418 65.738 L 86.418 30.602 L 93.57 30.602 L 93.57 33.578 L 93.57 33.578 Q 96.354 30.218 101.682 30.218 L 101.682 30.218 L 101.682 30.218 Z  M 100.386 50.666 L 100.386 50.666 Q 103.266 50.666 105.114 48.722 L 105.114 48.722 L 105.114 48.722 Q 106.962 46.778 106.962 43.514 L 106.962 43.514 L 106.962 43.514 Q 106.962 40.25 105.114 38.306 L 105.114 38.306 L 105.114 38.306 Q 103.266 36.362 100.386 36.362 L 100.386 36.362 L 100.386 36.362 Q 97.506 36.362 95.658 38.306 L 95.658 38.306 L 95.658 38.306 Q 93.81 40.25 93.81 43.514 L 93.81 43.514 L 93.81 43.514 Q 93.81 46.778 95.658 48.722 L 95.658 48.722 L 95.658 48.722 Q 97.506 50.666 100.386 50.666 L 100.386 50.666 L 100.386 50.666 Z  M 135.234 30.218 L 135.234 30.218 Q 140.034 30.218 142.986 33.098 L 142.986 33.098 L 142.986 33.098 Q 145.938 35.978 145.938 41.642 L 145.938 41.642 L 145.938 56.426 L 138.45 56.426 L 138.45 42.794 L 138.45 42.794 Q 138.45 39.722 137.106 38.21 L 137.106 38.21 L 137.106 38.21 Q 135.762 36.698 133.218 36.698 L 133.218 36.698 L 133.218 36.698 Q 130.386 36.698 128.706 38.45 L 128.706 38.45 L 128.706 38.45 Q 127.026 40.202 127.026 43.658 L 127.026 43.658 L 127.026 56.426 L 119.538 56.426 L 119.538 20.81 L 127.026 20.81 L 127.026 33.29 L 127.026 33.29 Q 128.514 31.802 130.626 31.01 L 130.626 31.01 L 130.626 31.01 Q 132.738 30.218 135.234 30.218 L 135.234 30.218 L 135.234 30.218 Z  M 164.994 56.81 L 164.994 56.81 Q 160.914 56.81 157.674 55.106 L 157.674 55.106 L 157.674 55.106 Q 154.434 53.402 152.61 50.378 L 152.61 50.378 L 152.61 50.378 Q 150.786 47.354 150.786 43.514 L 150.786 43.514 L 150.786 43.514 Q 150.786 39.674 152.61 36.65 L 152.61 36.65 L 152.61 36.65 Q 154.434 33.626 157.674 31.922 L 157.674 31.922 L 157.674 31.922 Q 160.914 30.218 164.994 30.218 L 164.994 30.218 L 164.994 30.218 Q 169.074 30.218 172.29 31.922 L 172.29 31.922 L 172.29 31.922 Q 175.506 33.626 177.33 36.65 L 177.33 36.65 L 177.33 36.65 Q 179.154 39.674 179.154 43.514 L 179.154 43.514 L 179.154 43.514 Q 179.154 47.354 177.33 50.378 L 177.33 50.378 L 177.33 50.378 Q 175.506 53.402 172.29 55.106 L 172.29 55.106 L 172.29 55.106 Q 169.074 56.81 164.994 56.81 L 164.994 56.81 L 164.994 56.81 Z  M 164.994 50.666 L 164.994 50.666 Q 167.874 50.666 169.722 48.722 L 169.722 48.722 L 169.722 48.722 Q 171.57 46.778 171.57 43.514 L 171.57 43.514 L 171.57 43.514 Q 171.57 40.25 169.722 38.306 L 169.722 38.306 L 169.722 38.306 Q 167.874 36.362 164.994 36.362 L 164.994 36.362 L 164.994 36.362 Q 162.114 36.362 160.242 38.306 L 160.242 38.306 L 160.242 38.306 Q 158.37 40.25 158.37 43.514 L 158.37 43.514 L 158.37 43.514 Q 158.37 46.778 160.242 48.722 L 160.242 48.722 L 160.242 48.722 Q 162.114 50.666 164.994 50.666 L 164.994 50.666 L 164.994 50.666 Z  M 198.786 49.898 L 200.802 55.178 L 200.802 55.178 Q 199.698 55.994 198.09 56.402 L 198.09 56.402 L 198.09 56.402 Q 196.482 56.81 194.706 56.81 L 194.706 56.81 L 194.706 56.81 Q 190.098 56.81 187.578 54.458 L 187.578 54.458 L 187.578 54.458 Q 185.058 52.106 185.058 47.546 L 185.058 47.546 L 185.058 36.938 L 181.074 36.938 L 181.074 31.178 L 185.058 31.178 L 185.058 24.89 L 192.546 24.89 L 192.546 31.178 L 198.978 31.178 L 198.978 36.938 L 192.546 36.938 L 192.546 47.45 L 192.546 47.45 Q 192.546 49.082 193.386 49.97 L 193.386 49.97 L 193.386 49.97 Q 194.226 50.858 195.762 50.858 L 195.762 50.858 L 195.762 50.858 Q 197.538 50.858 198.786 49.898 L 198.786 49.898 L 198.786 49.898 Z  M 217.314 56.81 L 217.314 56.81 Q 213.234 56.81 209.994 55.106 L 209.994 55.106 L 209.994 55.106 Q 206.754 53.402 204.93 50.378 L 204.93 50.378 L 204.93 50.378 Q 203.106 47.354 203.106 43.514 L 203.106 43.514 L 203.106 43.514 Q 203.106 39.674 204.93 36.65 L 204.93 36.65 L 204.93 36.65 Q 206.754 33.626 209.994 31.922 L 209.994 31.922 L 209.994 31.922 Q 213.234 30.218 217.314 30.218 L 217.314 30.218 L 217.314 30.218 Q 221.394 30.218 224.61 31.922 L 224.61 31.922 L 224.61 31.922 Q 227.826 33.626 229.65 36.65 L 229.65 36.65 L 229.65 36.65 Q 231.474 39.674 231.474 43.514 L 231.474 43.514 L 231.474 43.514 Q 231.474 47.354 229.65 50.378 L 229.65 50.378 L 229.65 50.378 Q 227.826 53.402 224.61 55.106 L 224.61 55.106 L 224.61 55.106 Q 221.394 56.81 217.314 56.81 L 217.314 56.81 L 217.314 56.81 Z  M 217.314 50.666 L 217.314 50.666 Q 220.194 50.666 222.042 48.722 L 222.042 48.722 L 222.042 48.722 Q 223.89 46.778 223.89 43.514 L 223.89 43.514 L 223.89 43.514 Q 223.89 40.25 222.042 38.306 L 222.042 38.306 L 222.042 38.306 Q 220.194 36.362 217.314 36.362 L 217.314 36.362 L 217.314 36.362 Q 214.434 36.362 212.562 38.306 L 212.562 38.306 L 212.562 38.306 Q 210.69 40.25 210.69 43.514 L 210.69 43.514 L 210.69 43.514 Q 210.69 46.778 212.562 48.722 L 212.562 48.722 L 212.562 48.722 Q 214.434 50.666 217.314 50.666 L 217.314 50.666 L 217.314 50.666 Z  M 252.162 30.218 L 252.162 30.218 Q 256.962 30.218 259.914 33.098 L 259.914 33.098 L 259.914 33.098 Q 262.866 35.978 262.866 41.642 L 262.866 41.642 L 262.866 56.426 L 255.378 56.426 L 255.378 42.794 L 255.378 42.794 Q 255.378 39.722 254.034 38.21 L 254.034 38.21 L 254.034 38.21 Q 252.69 36.698 250.146 36.698 L 250.146 36.698 L 250.146 36.698 Q 247.314 36.698 245.634 38.45 L 245.634 38.45 L 245.634 38.45 Q 243.954 40.202 243.954 43.658 L 243.954 43.658 L 243.954 56.426 L 236.466 56.426 L 236.466 30.602 L 243.618 30.602 L 243.618 33.626 L 243.618 33.626 Q 245.106 31.994 247.314 31.106 L 247.314 31.106 L 247.314 31.106 Q 249.522 30.218 252.162 30.218 L 252.162 30.218 L 252.162 30.218 Z " fill-rule="evenodd" fill="rgb(249,244,244)"/><path d=" M 290.25 30.113 L 290.25 30.113 Q 295.342 30.113 298.23 32.545 L 298.23 32.545 L 298.23 32.545 Q 301.118 34.977 301.118 39.233 L 301.118 39.233 L 301.118 39.233 Q 301.118 43.489 298.23 45.902 L 298.23 45.902 L 298.23 45.902 Q 295.342 48.315 290.25 48.315 L 290.25 48.315 L 283.106 48.315 L 283.106 56.713 L 280.294 56.713 L 280.294 30.113 L 290.25 30.113 L 290.25 30.113 Z  M 290.174 45.845 L 290.174 45.845 Q 294.126 45.845 296.216 44.116 L 296.216 44.116 L 296.216 44.116 Q 298.306 42.387 298.306 39.233 L 298.306 39.233 L 298.306 39.233 Q 298.306 36.003 296.216 34.274 L 296.216 34.274 L 296.216 34.274 Q 294.126 32.545 290.174 32.545 L 290.174 32.545 L 283.106 32.545 L 283.106 45.845 L 290.174 45.845 L 290.174 45.845 Z  M 307.578 56.713 L 307.578 30.113 L 310.39 30.113 L 310.39 54.281 L 325.286 54.281 L 325.286 56.713 L 307.578 56.713 L 307.578 56.713 Z  M 349.834 56.713 L 346.642 49.607 L 331.822 49.607 L 328.63 56.713 L 325.704 56.713 L 337.864 30.113 L 340.638 30.113 L 352.798 56.713 L 349.834 56.713 L 349.834 56.713 Z  M 332.848 47.327 L 345.616 47.327 L 339.232 33.039 L 332.848 47.327 L 332.848 47.327 Z  M 362.374 56.713 L 362.374 32.545 L 353.026 32.545 L 353.026 30.113 L 374.534 30.113 L 374.534 32.545 L 365.186 32.545 L 365.186 56.713 L 362.374 56.713 L 362.374 56.713 Z  M 397.258 32.545 L 381.83 32.545 L 381.83 42.995 L 395.586 42.995 L 395.586 45.427 L 381.83 45.427 L 381.83 56.713 L 379.018 56.713 L 379.018 30.113 L 397.258 30.113 L 397.258 32.545 L 397.258 32.545 Z  M 414.7 56.941 L 414.7 56.941 Q 410.748 56.941 407.537 55.174 L 407.537 55.174 L 407.537 55.174 Q 404.326 53.407 402.521 50.329 L 402.521 50.329 L 402.521 50.329 Q 400.716 47.251 400.716 43.413 L 400.716 43.413 L 400.716 43.413 Q 400.716 39.575 402.521 36.497 L 402.521 36.497 L 402.521 36.497 Q 404.326 33.419 407.537 31.652 L 407.537 31.652 L 407.537 31.652 Q 410.748 29.885 414.7 29.885 L 414.7 29.885 L 414.7 29.885 Q 418.652 29.885 421.825 31.633 L 421.825 31.633 L 421.825 31.633 Q 424.998 33.381 426.822 36.478 L 426.822 36.478 L 426.822 36.478 Q 428.646 39.575 428.646 43.413 L 428.646 43.413 L 428.646 43.413 Q 428.646 47.251 426.822 50.348 L 426.822 50.348 L 426.822 50.348 Q 424.998 53.445 421.825 55.193 L 421.825 55.193 L 421.825 55.193 Q 418.652 56.941 414.7 56.941 L 414.7 56.941 L 414.7 56.941 Z  M 414.7 54.433 L 414.7 54.433 Q 417.854 54.433 420.4 53.008 L 420.4 53.008 L 420.4 53.008 Q 422.946 51.583 424.39 49.056 L 424.39 49.056 L 424.39 49.056 Q 425.834 46.529 425.834 43.413 L 425.834 43.413 L 425.834 43.413 Q 425.834 40.297 424.39 37.77 L 424.39 37.77 L 424.39 37.77 Q 422.946 35.243 420.4 33.818 L 420.4 33.818 L 420.4 33.818 Q 417.854 32.393 414.7 32.393 L 414.7 32.393 L 414.7 32.393 Q 411.546 32.393 408.981 33.818 L 408.981 33.818 L 408.981 33.818 Q 406.416 35.243 404.953 37.77 L 404.953 37.77 L 404.953 37.77 Q 403.49 40.297 403.49 43.413 L 403.49 43.413 L 403.49 43.413 Q 403.49 46.529 404.953 49.056 L 404.953 49.056 L 404.953 49.056 Q 406.416 51.583 408.981 53.008 L 408.981 53.008 L 408.981 53.008 Q 411.546 54.433 414.7 54.433 L 414.7 54.433 L 414.7 54.433 Z  M 456.196 56.713 L 453.118 56.713 L 447.038 48.163 L 447.038 48.163 Q 446.012 48.277 444.91 48.277 L 444.91 48.277 L 437.766 48.277 L 437.766 56.713 L 434.954 56.713 L 434.954 30.113 L 444.91 30.113 L 444.91 30.113 Q 450.002 30.113 452.89 32.545 L 452.89 32.545 L 452.89 32.545 Q 455.778 34.977 455.778 39.233 L 455.778 39.233 L 455.778 39.233 Q 455.778 42.349 454.201 44.496 L 454.201 44.496 L 454.201 44.496 Q 452.624 46.643 449.698 47.593 L 449.698 47.593 L 456.196 56.713 L 456.196 56.713 Z  M 444.834 45.883 L 444.834 45.883 Q 448.786 45.883 450.876 44.135 L 450.876 44.135 L 450.876 44.135 Q 452.966 42.387 452.966 39.233 L 452.966 39.233 L 452.966 39.233 Q 452.966 36.003 450.876 34.274 L 450.876 34.274 L 450.876 34.274 Q 448.786 32.545 444.834 32.545 L 444.834 32.545 L 437.766 32.545 L 437.766 45.883 L 444.834 45.883 L 444.834 45.883 Z  M 487.736 30.113 L 490.054 30.113 L 490.054 56.713 L 487.356 56.713 L 487.356 35.433 L 476.906 53.331 L 475.576 53.331 L 465.126 35.547 L 465.126 56.713 L 462.428 56.713 L 462.428 30.113 L 464.746 30.113 L 476.298 49.835 L 487.736 30.113 L 487.736 30.113 Z " fill-rule="evenodd" fill="rgb(249,244,244)"/><g><g><path d=" M 43.481 11.962 L 48.089 32.357 L 65.768 21.194 L 54.605 38.873 L 75 43.481 L 54.605 48.089 L 65.768 65.768 L 48.089 54.605 L 43.481 75 L 38.873 54.605 L 21.194 65.768 L 32.357 48.089 L 11.962 43.481 L 32.357 38.873 L 21.194 21.194 L 38.873 32.357 L 43.481 11.962 Z " fill="rgb(255,255,255)"/></g></g><circle vector-effect="non-scaling-stroke" cx="43.480972419102606" cy="43.480972419102606" r="43.48097241910261" fill="none"/></g></svg>