<svg height="496pt" viewBox="0 0 496 496" width="496pt" xmlns="http://www.w3.org/2000/svg"><path d="m472 0h-448c-13.230469 0-24 10.769531-24 24v288c0 13.230469 10.769531 24 24 24h54.144531l-29.976562 142.351562-.167969 17.648438h62.550781l9.601563-48h255.6875l9.601562 48h62.558594v-16l-30.152344-144h54.152344c13.230469 0 24-10.769531 24-24v-288c0-13.230469-10.769531-24-24-24zm-448 16h448c4.414062 0 8 3.59375 8 8v264h-464v-264c0-4.40625 3.585938-8 8-8zm73.449219 464h-33.28125l30.320312-144h31.75zm255.992187-144 12.796875 64h-236.476562l12.796875-64zm-230.089844 96 3.199219-16h242.890625l3.199219 16zm308.480469 48h-33.273437l-28.796875-144h31.75zm40.167969-160h-448c-4.414062 0-8-3.59375-8-8v-8h464v8c0 4.40625-3.585938 8-8 8zm0 0"/><path d="m124.6875 152 56 56-17.535156 17.535156 11.3125 11.3125 17.535156-17.535156 56 56 56-56 17.535156 17.535156 11.3125-11.3125-17.535156-17.535156 56-56-56-56 17.535156-17.535156-11.3125-11.3125-17.535156 17.535156-56-56-56 56-17.535156-17.535156-11.3125 11.3125 17.535156 17.535156zm85.65625 26.34375-18.34375 18.34375-36.6875-36.6875h84.6875v84.6875l-36.6875-36.6875 18.34375-18.34375zm82.34375 29.65625-36.6875 36.6875v-84.6875h84.6875l-36.6875 36.6875-18.34375-18.34375-11.3125 11.3125zm-7.03125-82.34375 18.34375-18.34375 36.6875 36.6875h-84.6875v-84.6875l36.6875 36.6875-18.34375 18.34375zm-45.65625-66.34375v84.6875h-84.6875l36.6875-36.6875 18.34375 18.34375 11.3125-11.3125-18.34375-18.34375zm0 0"/><path d="m32 32h96v16h-96zm0 0"/><path d="m32 64h96v16h-96zm0 0"/><path d="m32 96h96v16h-96zm0 0"/><path d="m144 192h-112v80h112zm-16 64h-80v-48h80zm0 0"/><path d="m64 224h48v16h-48zm0 0"/><path d="m368 256h96v16h-96zm0 0"/><path d="m368 224h96v16h-96zm0 0"/><path d="m368 192h96v16h-96zm0 0"/><path d="m464 32h-112v80h112zm-16 64h-80v-48h80zm0 0"/><path d="m384 64h48v16h-48zm0 0"/></svg>