<svg height="496pt" viewBox="-1 0 496 496" width="496pt" xmlns="http://www.w3.org/2000/svg"><path d="m197.335938 339.617188 69.542968 34.773437c-1.839844 5.539063-2.878906 11.449219-2.878906 17.609375 0 30.878906 25.121094 56 56 56s56-25.121094 56-56-25.121094-56-56-56c-19.015625 0-35.824219 9.542969-45.953125 24.078125l-64.640625-32.316406c18.960938-21.234375 30.59375-49.128907 30.59375-79.761719s-11.632812-58.527344-30.59375-79.761719l64.640625-32.316406c10.128906 14.535156 26.9375 24.078125 45.953125 24.078125 30.878906 0 56-25.121094 56-56s-25.121094-56-56-56-56 25.121094-56 56c0 6.160156 1.039062 12.0625 2.878906 17.617188l-69.542968 34.773437c-20.902344-17.679687-47.878907-28.390625-77.335938-28.390625-66.167969 0-120 53.832031-120 120s53.832031 120 120 120c29.457031 0 56.425781-10.710938 77.335938-28.382812zm122.664062 12.382812c22.054688 0 40 17.945312 40 40s-17.945312 40-40 40-40-17.945312-40-40 17.945312-40 40-40zm0-288c22.054688 0 40 17.945312 40 40s-17.945312 40-40 40-40-17.945312-40-40 17.945312-40 40-40zm-209.535156 176c-11.710938 0-22.738282 6.238281-28.761719 16.28125-8.78125 14.628906-24.832031 23.71875-41.886719 23.71875h-18.71875c-2.480468-7.648438-4.050781-15.695312-4.683594-24h23.105469c13.382813 0 25-9.070312 28.257813-22.054688 1.445312-5.855468 6.6875-9.945312 12.71875-9.945312 17.222656 0 33.671875-8.222656 44.304687-22.398438 7.222657-9.632812 11.199219-21.5625 11.199219-33.601562v-22.640625c24.175781 3.761719 45.574219 15.824219 61.238281 33.242187l-15.230469 2.175782c-17.097656 2.4375-30.007812 17.3125-30.03125 34.589844v2.527343c-.015624 11.488281 5.679688 22.144531 15.535157 28.714844 5.3125 3.558594 8.488281 9.460937 8.488281 15.816406v18.949219c0 6.410156 2.496094 12.441406 7.03125 16.976562l16.511719 16.511719c-17.480469 20.761719-42.902344 34.535157-71.542969 36.738281v-9.847656c0-18.226562 4.3125-36.472656 12.464844-52.777344 2.3125-4.640624 3.535156-9.824218 3.535156-15.441406 0-18.488281-15.046875-33.535156-33.535156-33.535156zm98.472656 61.625-14.601562-14.601562c-1.503907-1.503907-2.335938-3.519532-2.335938-5.65625v-18.953126c0-11.703124-5.839844-22.589843-15.921875-29.316406-5.085937-3.394531-8.117187-9.066406-8.109375-15.1875v-2.527344c.007812-9.375 7.015625-17.4375 16.304688-18.765624l23.949218-3.425782c9.9375 15.9375 15.777344 34.679688 15.777344 54.808594 0 19.632812-5.566406 37.945312-15.0625 53.625zm-88.9375-157.625v24c0 8.601562-2.839844 17.128906-8.296875 24.390625-7.328125 9.777344-19 15.609375-31.207031 15.609375-13.382813 0-25 9.070312-28.257813 22.054688-1.460937 5.855468-6.703125 9.945312-12.734375 9.945312h-23.097656c4.105469-53.609375 48.945312-96 103.59375-96zm-92.167969 152h11.984375c22.648438 0 43.960938-12.0625 55.609375-31.488281 3.140625-5.246094 8.910157-8.511719 15.039063-8.511719 9.671875 0 17.535156 7.863281 17.535156 17.976562 0 2.710938-.640625 5.421876-1.847656 7.839844-9.257813 18.511719-14.152344 39.230469-14.152344 59.925782v9.851562c-36.625-2.808594-67.960938-24.601562-84.167969-55.59375zm0 0"/><path d="m320 128c13.230469 0 24-10.769531 24-24s-10.769531-24-24-24-24 10.769531-24 24 10.769531 24 24 24zm0-32c4.40625 0 8 3.59375 8 8s-3.59375 8-8 8-8-3.59375-8-8 3.59375-8 8-8zm0 0"/><path d="m320 416c13.230469 0 24-10.769531 24-24s-10.769531-24-24-24-24 10.769531-24 24 10.769531 24 24 24zm0-32c4.40625 0 8 3.59375 8 8s-3.59375 8-8 8-8-3.59375-8-8 3.59375-8 8-8zm0 0"/><path d="m110.175781 98.992188-12.253906-10.289063c-4.890625 5.824219-9.578125 11.96875-13.9375 18.265625l13.160156 9.109375c4.070313-5.894531 8.457031-11.636719 13.03125-17.085937zm0 0"/><path d="m139.296875 69.921875-10.265625-12.273437c-5.640625 4.71875-11.160156 9.757812-16.390625 14.992187l11.3125 11.320313c4.894531-4.90625 10.054687-9.625 15.34375-14.039063zm0 0"/><path d="m288 16c68.136719 0 131.089844 28.992188 175.214844 80h-47.214844v16h72v-72h-16v41.832031c-46.976562-52.214843-112.832031-81.832031-184-81.832031-50.503906 0-99.105469 15.089844-140.542969 43.640625l9.078125 13.167969c38.753906-26.695313 84.21875-40.808594 131.464844-40.808594zm0 0"/><path d="m480.175781 378.007812c-4.085937 6.03125-8.511719 11.945313-13.160156 17.558594l12.34375 10.175782c4.953125-6 9.679687-12.316407 14.054687-18.765626zm0 0"/><path d="m435.566406 427.023438 10.1875 12.34375c6.078125-5.015626 12-10.398438 17.605469-16l-11.3125-11.320313c-5.238281 5.25-10.78125 10.289063-16.480469 14.976563zm0 0"/><path d="m288 480c-68.136719 0-131.089844-28.992188-175.214844-80h47.214844v-16h-72v72h16v-41.832031c46.976562 52.214843 112.832031 81.832031 184 81.832031 48.015625 0 94.601562-13.742188 134.710938-39.742188l-8.703126-13.433593c-37.511718 24.320312-81.085937 37.175781-126.007812 37.175781zm0 0"/></svg>