<svg height="496pt" viewBox="0 0 496 496" width="496pt" xmlns="http://www.w3.org/2000/svg"><path d="m208 128c0-44.113281-35.886719-80-80-80s-80 35.886719-80 80 35.886719 80 80 80 80-35.886719 80-80zm-80 64c-35.289062 0-64-28.710938-64-64s28.710938-64 64-64 64 28.710938 64 64-28.710938 64-64 64zm0 0"/><path d="m128 80c-26.472656 0-48 21.527344-48 48s21.527344 48 48 48 48-21.527344 48-48-21.527344-48-48-48zm0 80c-17.648438 0-32-14.351562-32-32s14.351562-32 32-32 32 14.351562 32 32-14.351562 32-32 32zm0 0"/><path d="m158.257812 0h-60.515624l-5.445313 21.894531c-4.890625 1.640625-9.609375 3.578125-14.113281 5.808594l-19.304688-11.605469-42.78125 42.78125 11.605469 19.304688c-2.230469 4.503906-4.167969 9.222656-5.808594 14.113281l-21.894531 5.445313v60.503906l21.894531 5.449218c1.640625 4.890626 3.578125 9.609376 5.808594 14.113282l-11.605469 19.3125 42.78125 42.78125 19.304688-11.605469c4.503906 2.230469 9.222656 4.167969 14.113281 5.808594l5.445313 21.894531h14.257812v112h-72c-22.054688 0-40 17.945312-40 40s17.945312 40 40 40h72v48h384v-496zm-52.632812 221.414062-4.417969-1.285156c-6.894531-2-13.4375-4.695312-19.4375-8l-4.035156-2.226562-16.382813 9.851562-25.09375-25.097656 9.847657-16.382812-2.226563-4.035157c-3.304687-6-6-12.535156-8-19.4375l-1.285156-4.417969-18.59375-4.640624v-35.496094l18.585938-4.628906 1.285156-4.417969c2-6.894531 4.695312-13.4375 8-19.4375l2.226562-4.035157-9.839844-16.375 25.09375-25.09375 16.382813 9.847657 4.035156-2.226563c6-3.304687 12.535157-6 19.4375-8l4.417969-1.285156 4.632812-18.59375h35.484376l4.632812 18.585938 4.417969 1.285156c6.894531 2 13.4375 4.695312 19.4375 8l4.035156 2.226562 16.382813-9.851562 25.09375 25.097656-9.847657 16.382812 2.226563 4.035157c3.304687 6 6 12.535156 8 19.4375l1.285156 4.417969 18.59375 4.640624v35.496094l-18.585938 4.628906-1.285156 4.417969c-2 6.894531-4.695312 13.4375-8 19.4375l-2.226562 4.035157 9.851562 16.382812-25.097656 25.097656-16.382812-9.851562-4.035157 2.226562c-6 3.304688-12.535156 6-19.4375 8l-4.417969 1.285156-4.640624 18.585938h-35.496094zm128.480469-129.117187c-1.640625-4.890625-3.578125-9.609375-5.808594-14.113281l11.605469-19.304688-10.886719-10.878906h218.984375v80h-192v-30.257812zm133.894531 335.246094 3.3125-1.238281c7.589844-2.839844 12.6875-10.199219 12.6875-18.304688s-5.097656-15.464844-12.679688-18.304688l-3.320312-1.238281v-20.457031h80v80h-80zm-2.296875-22.863281c1.375.519531 2.296875 1.847656 2.296875 3.320312s-.921875 2.800781-2.304688 3.320312l-45.695312 17.136719v-40.914062zm-269.703125 27.320312h-16v-48h16zm16-16h192v16h-192zm192-16h-192v-16h192zm-288 8c0-13.230469 10.769531-24 24-24h24v48h-24c-13.230469 0-24-10.769531-24-24zm464 72h-352v-32h185.449219l38.550781-14.457031v30.457031h112v-112h-112v30.457031l-38.550781-14.457031h-185.449219v-112h30.257812l5.445313-21.894531c4.890625-1.640625 9.609375-3.578125 14.113281-5.808594l19.304688 11.605469 42.78125-42.78125-11.605469-19.304688c2.230469-4.503906 4.167969-9.222656 5.808594-14.113281l21.894531-5.445313v-14.257812h208v-112h-250.984375l-15.894531-15.902344-19.304688 11.605469c-4.503906-2.230469-9.222656-4.167969-14.113281-5.808594l-1.472656-5.894531h317.769531zm0 0"/><path d="m352 336h112v-112h-112zm16-96h80v80h-80zm0 0"/><path d="m144 320h192v16h-192zm0 0"/><path d="m144 288h192v16h-192zm0 0"/><path d="m192 256h144v16h-144zm0 0"/><path d="m240 224h96v16h-96zm0 0"/><path d="m448 192h16v16h-16zm0 0"/><path d="m272 192h160v16h-160zm0 0"/><path d="m272 160h16v16h-16zm0 0"/><path d="m304 160h160v16h-160zm0 0"/></svg>