<svg height="496pt" viewBox="0 0 496 496" width="496pt" xmlns="http://www.w3.org/2000/svg"><path d="m184 128c0 12.296875 3.542969 23.742188 9.574219 33.503906l-62.023438 118.144532c-2.328125 4.070312-3.550781 8.695312-3.550781 13.390624 0 10.960938 6.59375 20.367188 16 24.585938v34.375h16v-32.199219c8.480469-.960937 16.136719-5.914062 20.542969-13.640625l59.984375-114.632812c2.457031.289062 4.945312.472656 7.472656.472656 2.886719 0 5.703125-.257812 8.488281-.632812l27.398438 48.632812h-11.886719c-8.824219 0-16 7.175781-16 16v16c0 8.824219 7.175781 16 16 16h8v41.886719l21.265625 42.539062c3.574219 7.132813 10.757813 11.574219 18.734375 11.574219s15.160156-4.441406 18.734375-11.574219l21.265625-42.539062v-41.886719h8c8.824219 0 16-7.175781 16-16v-16c0-8.824219-7.175781-16-16-16h-22.296875l-42.984375-78.976562c5.847656-9.65625 9.28125-20.933594 9.28125-33.023438 0-23.625-12.902344-44.257812-32-55.34375v-48.65625c0-13.230469-10.769531-24-24-24h-16c-13.230469 0-24 10.769531-24 24v48.65625c-19.097656 11.085938-32 31.71875-32 55.34375zm-17.488281 170.480469c-1.945313 3.40625-5.589844 5.519531-9.519531 5.519531h-2.03125c-6.050782 0-10.960938-4.910156-10.960938-10.960938 0-1.902343.496094-3.792968 1.585938-5.695312l59.023437-112.433594c5.78125 5.355469 12.519531 9.648438 19.964844 12.59375zm145.488281-10.480469v32h-16v-32zm12.425781 77.257812c-1.691406 3.390626-7.160156 3.382813-8.839843.007813l-14.640626-29.265625h38.109376zm19.574219-45.257812h-16v-32h16zm24-48h-96v-16l96-.015625zm-65.742188-32-29.792968-52.878906c7.230468-3.007813 13.765625-7.328125 19.382812-12.625l35.648438 65.503906zm-70.257812-216c0-4.414062 3.585938-8 8-8h16c4.414062 0 8 3.585938 8 8v42.105469c-5.128906-1.328125-10.464844-2.105469-16-2.105469s-10.871094.777344-16 2.105469zm16 56c26.472656 0 48 21.527344 48 48s-21.527344 48-48 48-48-21.527344-48-48 21.527344-48 48-48zm0 0"/><path d="m248 160c17.648438 0 32-14.351562 32-32s-14.351562-32-32-32-32 14.351562-32 32 14.351562 32 32 32zm0-48c8.824219 0 16 7.175781 16 16s-7.175781 16-16 16-16-7.175781-16-16 7.175781-16 16-16zm0 0"/><path d="m467.585938 203.871094c-5.722657-28.703125-16.84375-55.542969-33.121094-79.933594l16.183594-24.007812-54.585938-54.585938-24.007812 16.183594c-22.703126-15.144532-47.671876-25.863282-74.285157-31.910156l-3.546875 15.605468c26.378906 5.984375 51.007813 16.921875 73.191406 32.519532l4.507813 3.167968 22.15625-14.925781 35.929687 35.925781-14.929687 22.160156 3.167969 4.503907c17.691406 25.160156 29.320312 53.25 34.585937 83.488281l.945313 5.425781 26.222656 5.105469v50.8125l-26.214844 5.113281-.945312 5.425781c-5.265625 30.230469-16.894532 58.328126-34.582032 83.488282l-3.167968 4.503906 14.925781 22.160156-35.925781 35.925782-22.160156-14.925782-4.503907 3.167969c-25.160156 17.6875-53.25 29.320313-83.488281 34.582031l-5.425781.945313-5.105469 26.207031h-50.8125l-5.113281-26.214844-5.425781-.945312c-30.230469-5.265625-58.328126-16.894532-83.488282-34.582032l-4.503906-3.167968-22.160156 14.925781-35.925782-35.925781 14.925782-22.160156-3.167969-4.503907c-17.6875-25.160156-29.320313-53.25-34.582031-83.488281l-.945313-5.425781-26.207031-5.105469v-50.8125l26.214844-5.113281.945312-5.425781c5.265625-30.230469 16.894532-58.328126 34.582032-83.488282l3.167968-4.503906-14.925781-22.160156 35.925781-35.925782 22.160156 14.925782 4.503907-3.167969c22.1875-15.597656 46.824219-26.535156 73.195312-32.519531l-3.546875-15.605469c-26.613281 6.046875-51.582031 16.773437-74.285156 31.910156l-24.007812-16.183593-54.585938 54.585937 16.183594 24.007813c-16.269532 24.390624-27.398438 51.230468-33.121094 79.933593l-28.40625 5.542969v77.1875l28.414062 5.527344c5.722657 28.703125 16.84375 55.542968 33.121094 79.933594l-16.183594 24.007812 54.585938 54.585938 24.007812-16.183594c24.390626 16.269531 51.230469 27.398437 79.933594 33.121094l5.527344 28.414062h77.1875l5.527344-28.414062c28.703125-5.722657 55.542968-16.84375 79.933594-33.121094l24.007812 16.183594 54.585938-54.585938-16.183594-24.007812c16.269531-24.390626 27.398437-51.230469 33.121094-79.933594l28.414062-5.527344v-77.1875zm0 0"/><path d="m186.785156 82.96875-5.5625-15c-74.902344 27.800781-125.222656 100.144531-125.222656 180.03125 0 105.863281 86.136719 192 192 192s192-86.136719 192-192c0-79.886719-50.320312-152.230469-125.214844-180.03125l-5.5625 15c68.648438 25.480469 114.777344 91.800781 114.777344 165.03125 0 97.046875-78.953125 176-176 176s-176-78.953125-176-176c0-73.230469 46.128906-139.550781 114.785156-165.03125zm0 0"/></svg>