<svg height="496pt" viewBox="0 0 496 496" width="496pt" xmlns="http://www.w3.org/2000/svg"><path d="m264 88c-22.054688 0-40 17.945312-40 40s17.945312 40 40 40 40-17.945312 40-40-17.945312-40-40-40zm0 64c-13.230469 0-24-10.769531-24-24s10.769531-24 24-24 24 10.769531 24 24-10.769531 24-24 24zm0 0"/><path d="m376 256c13.230469 0 24-10.769531 24-24v-24h8c13.230469 0 24-10.769531 24-24v-32c0-13.230469-10.769531-24-24-24h-8v-56c0-11.425781-8.039062-20.96875-18.742188-23.375l-24.3125-48.625h-185.890624l-24.3125 48.625c-10.703126 2.40625-18.742188 11.949219-18.742188 23.375v24h-8c-13.230469 0-24 10.769531-24 24v32c0 13.230469 10.769531 24 24 24h8v56c0 13.230469 10.769531 24 24 24h8v48h-48v-16c0-8.824219-7.175781-16-16-16h-16c-8.824219 0-16 7.175781-16 16v48c0 8.824219 7.175781 16 16 16h16c8.824219 0 16-7.175781 16-16v-16h48v16c-8.824219 0-16 7.175781-16 16v16c0 8.824219 7.175781 16 16 16h44.351562l-36.351562 94.511719v17.488281h45.640625l26.359375-73.816406v73.816406h48v-73.816406l26.359375 73.816406h45.640625v-17.488281l-36.351562-94.511719h44.351562c8.824219 0 16-7.175781 16-16v-16c0-8.824219-7.175781-16-16-16v-80zm-280 80h-16v-48h16zm280-96h-8v-48h16v40c0 4.40625-3.59375 8-8 8zm-216-96h-16v-16h16zm0-32h-16v-16h16zm-16 48h16v16h-16zm32-96h24c4.40625 0 8 3.59375 8 8v10.847656c-9.984375 12.359375-16 28.0625-16 45.152344s6.015625 32.792969 16 45.152344v34.847656h-32zm144 64c0 30.878906-25.121094 56-56 56s-56-25.121094-56-56 25.121094-56 56-56 56 25.121094 56 56zm-96 59.824219c11.449219 7.679687 25.207031 12.175781 40 12.175781s28.550781-4.496094 40-12.175781v20.175781h-80zm96-14.671875c9.984375-12.359375 16-28.0625 16-45.152344s-6.015625-32.792969-16-45.152344v-10.847656c0-4.40625 3.59375-8 8-8h24v144h-32zm64-61.152344h-16v-16h16zm-16 48h16v16h-16zm16-16h-16v-16h16zm24 0c4.40625 0 8 3.59375 8 8v32c0 4.40625-3.59375 8-8 8h-8v-48zm-24-64h-16v-16h8c4.40625 0 8 3.59375 8 8zm-203.054688-64h166.109376l16 32h-35.054688c-12.007812 0-21.886719 8.886719-23.640625 20.414062-11.519531-7.828124-25.414063-12.414062-40.359375-12.414062s-28.839844 4.585938-40.359375 12.414062c-1.753906-11.527343-11.632813-20.414062-23.640625-20.414062h-35.054688zm-28.945312 48h8v16h-16v-8c0-4.40625 3.59375-8 8-8zm-32 96c-4.40625 0-8-3.59375-8-8v-32c0-4.40625 3.59375-8 8-8h8v48zm32 80c-4.40625 0-8-3.59375-8-8v-40h16v48zm50.359375 240h-17.792969l36.929688-96h15.152344zm53.640625 0v-96h16v96zm87.433594 0h-17.792969l-34.28125-96h15.152344zm24.574218-112h-208.007812v-16h208zm-192.007812-32v-112h176v112zm0 0"/><path d="m192 320h80v-80h-80zm16-64h48v48h-48zm0 0"/><path d="m288 240h48v16h-48zm0 0"/><path d="m288 272h48v16h-48zm0 0"/><path d="m288 304h16v16h-16zm0 0"/><path d="m320 304h16v16h-16zm0 0"/><path d="m440 272h16v24h-16zm0 0"/><path d="m408.410156 291.707031 11.3125-11.3125 16.972656 16.96875-11.3125 11.3125zm0 0"/><path d="m400 312h24v16h-24zm0 0"/><path d="m408.410156 348.273438 16.972656-16.96875 11.3125 11.3125-16.96875 16.972656zm0 0"/><path d="m440 344h16v24h-16zm0 0"/><path d="m459.324219 342.617188 11.3125-11.3125 16.972656 16.96875-11.316406 11.316406zm0 0"/><path d="m472 312h24v16h-24zm0 0"/><path d="m459.324219 297.363281 16.96875-16.972656 11.3125 11.316406-16.96875 16.96875zm0 0"/><path d="m40 168h16v24h-16zm0 0"/><path d="m8.417969 187.707031 11.3125-11.3125 16.96875 16.96875-11.3125 11.3125zm0 0"/><path d="m0 208h24v16h-24zm0 0"/><path d="m8.417969 244.277344 16.96875-16.972656 11.316406 11.316406-16.972656 16.96875zm0 0"/><path d="m40 240h16v24h-16zm0 0"/><path d="m59.328125 238.617188 11.316406-11.3125 16.96875 16.972656-11.3125 11.3125zm0 0"/><path d="m72 208h24v16h-24zm0 0"/><path d="m59.328125 193.363281 16.972656-16.972656 11.3125 11.316406-16.972656 16.96875zm0 0"/><path d="m448 16h16v16h-16zm0 0"/><path d="m448 48h16v16h-16zm0 0"/><path d="m464 32h16v16h-16zm0 0"/><path d="m432 32h16v16h-16zm0 0"/><path d="m32 416h16v16h-16zm0 0"/><path d="m32 448h16v16h-16zm0 0"/><path d="m48 432h16v16h-16zm0 0"/><path d="m16 432h16v16h-16zm0 0"/></svg>