<svg height="496pt" viewBox="0 0 496 496" width="496pt" xmlns="http://www.w3.org/2000/svg"><path d="m422.425781 189.007812-61.777343 18.03125c-4.808594-13.175781-11.753907-25.3125-20.585938-35.878906l48.769531-41.832031-5.617187-6.097656c-24.472656-26.566407-56.046875-45.191407-91.304688-53.863281l-7.78125-1.910157-15.273437 62.488281c-6.785157-1.203124-13.726563-1.945312-20.855469-1.945312-7.007812 0-13.832031.726562-20.511719 1.886719l-11.839843-63.183594-8.089844 1.816406c-35.238282 7.90625-67.167969 25.9375-92.3125 52.144531l-5.542969 5.785157 46.472656 44.453125c-8.863281 10.546875-15.855469 22.65625-20.703125 35.808594l-60.664062-21.335938-2.472656 7.914062c-10.777344 34.480469-11.121094 71.136719-.992188 106.007813l2.222656 7.695313 61.777344-18.03125c4.808594 13.175781 11.753906 25.320312 20.585938 35.878906l-48.769532 41.824218 5.617188 6.105469c24.460937 26.558594 56.03125 45.183594 91.300781 53.863281l7.785156 1.910157 15.273438-62.488281c6.792969 1.203124 13.734375 1.945312 20.863281 1.945312 7.007812 0 13.832031-.726562 20.511719-1.886719l11.839843 63.183594 8.089844-1.816406c35.238282-7.90625 67.160156-25.9375 92.3125-52.144531l5.542969-5.785157-46.472656-44.453125c8.863281-10.546875 15.855469-22.65625 20.703125-35.816406l60.664062 21.34375 2.472656-7.914062c10.777344-34.480469 11.121094-71.136719.992188-106.007813zm-126.59375-102.007812c26.414063 7.832031 50.304688 21.886719 69.847657 41.113281l-36.769532 31.535157c-12.664062-11.609376-27.75-20.609376-44.496094-25.953126zm-92.816406-.855469 8.894531 47.421875c-16.765625 5.304688-31.878906 14.273438-44.574218 25.859375l-34.855469-33.347656c19.992187-18.957031 44.113281-32.621094 70.535156-39.933594zm-118.351563 200.945313c-6.441406-26.800782-6.199218-54.523438.671876-81.058594l45.566406 16.03125c-1.855469 8.363281-2.902344 17.027344-2.902344 25.9375 0 8.792969 1.015625 17.351562 2.816406 25.609375zm115.503907 121.910156c-26.425781-7.832031-50.3125-21.886719-69.847657-41.113281l36.757813-31.535157c12.664063 11.609376 27.753906 20.609376 44.496094 25.953126zm92.816406.855469-8.886719-47.421875c16.765625-5.304688 31.878906-14.273438 44.574219-25.847656l34.847656 33.335937c-20 18.957031-44.121093 32.613281-70.535156 39.933594zm-44.984375-57.855469c-57.34375 0-104-46.65625-104-104s46.65625-104 104-104 104 46.65625 104 104-46.65625 104-104 104zm162.664062-62.03125-45.566406-16.03125c1.855469-8.371094 2.902344-17.027344 2.902344-25.9375 0-8.792969-1.015625-17.351562-2.816406-25.609375l46.152344-13.46875c6.441406 26.789063 6.199218 54.511719-.671876 81.046875zm0 0"/><path d="m248 176c-39.703125 0-72 32.304688-72 72 0 39.703125 32.296875 72 72 72s72-32.296875 72-72c0-39.695312-32.296875-72-72-72zm0 128c-30.871094 0-56-25.128906-56-56 0-30.878906 25.128906-56 56-56s56 25.121094 56 56c0 30.871094-25.128906 56-56 56zm0 0"/><path d="m496 268.945312v-41.890624l-26.671875-13.335938c-2.464844-16.023438-6.648437-31.710938-12.488281-46.742188l16.398437-24.839843-20.941406-36.273438-29.785156 1.792969c-10.128907-12.585938-21.589844-24.046875-34.167969-34.167969l1.792969-29.792969-36.28125-20.941406-24.832031 16.398438c-15.023438-5.832032-30.703126-10.015625-46.742188-12.480469l-13.335938-26.671875h-41.890624l-13.335938 26.671875c-16.039062 2.464844-31.71875 6.65625-46.742188 12.480469l-24.832031-16.398438-36.28125 20.941406 1.792969 29.792969c-12.566406 10.121094-24.039062 21.582031-34.167969 34.167969l-29.785156-1.792969-20.941406 36.273438 16.398437 24.839843c-5.832031 15.03125-10.023437 30.710938-12.488281 46.742188l-26.671875 13.335938v41.890624l26.671875 13.335938c2.464844 16.023438 6.648437 31.710938 12.488281 46.742188l-16.398437 24.832031 20.941406 36.28125 29.785156-1.792969c10.128907 12.578125 21.582031 24.039062 34.167969 34.167969l-1.792969 29.785156 36.28125 20.941406 24.832031-16.398437c15.03125 5.832031 30.71875 10.023437 46.742188 12.488281l13.335938 26.671875h41.890624l13.335938-26.671875c16.023438-2.464844 31.710938-6.648437 46.742188-12.488281l24.832031 16.398437 36.28125-20.941406-1.792969-29.785156c12.578125-10.128907 24.039062-21.582031 34.167969-34.167969l29.785156 1.792969 20.941406-36.28125-16.398437-24.832031c5.832031-15.03125 10.023437-30.71875 12.488281-46.742188zm-41.359375 2.796876-.5625 4.195312c-2.359375 17.542969-6.933594 34.695312-13.605469 50.964844l-1.609375 3.914062 15.585938 23.597656-11.058594 19.160157-28.292969-1.703125-2.59375 3.34375c-10.800781 13.945312-23.335937 26.488281-37.28125 37.28125l-3.34375 2.59375 1.707032 28.292968-19.160157 11.058594-23.601562-15.585937-3.914063 1.609375c-16.269531 6.671875-33.421875 11.246094-50.964844 13.605468l-4.191406.5625-12.699218 25.367188h-22.109376l-12.6875-25.359375-4.195312-.5625c-17.542969-2.359375-34.695312-6.933594-50.964844-13.605469l-3.914062-1.609375-23.597656 15.585938-19.160157-11.058594 1.703125-28.292969-3.34375-2.59375c-13.945312-10.800781-26.488281-23.335937-37.28125-37.28125l-2.59375-3.34375-28.292968 1.707032-11.058594-19.160157 15.585937-23.601562-1.609375-3.914063c-6.671875-16.269531-11.246094-33.421875-13.605468-50.964844l-.5625-4.191406-25.367188-12.699218v-22.109376l25.359375-12.679687.5625-4.195313c2.359375-17.558593 6.933594-34.703124 13.605469-50.972656l1.609375-3.914062-15.585938-23.609375 11.058594-19.148438 28.292969 1.695313 2.59375-3.335938c10.800781-13.953125 23.34375-26.496094 37.28125-37.289062l3.34375-2.585938-1.707032-28.300781 19.160157-11.058594 23.601562 15.585938 3.914063-1.609375c16.253906-6.671875 33.40625-11.253906 50.964844-13.617188l4.191406-.566406 12.699218-25.34375h22.109376l12.6875 25.351562 4.195312.570313c17.558594 2.359375 34.710938 6.933594 50.964844 13.613281l3.914062 1.609375 23.597656-15.585937 19.160157 11.058594-1.703125 28.304687 3.34375 2.582031c13.9375 10.800782 26.488281 23.335938 37.28125 37.289063l2.59375 3.335937 28.292968-1.695312 11.058594 19.152344-15.585937 23.605468 1.609375 3.914063c6.671875 16.269531 11.246094 33.414062 13.605468 50.972656l.5625 4.195313 25.367188 12.671874v22.109376zm0 0"/></svg>