<svg height="497pt" viewBox="0 0 497 497.512" width="497pt" xmlns="http://www.w3.org/2000/svg"><path d="m496.257812 321.511719v-19.464844l-30.441406-28.535156h27.382813l-64-128h-108.941407v-32.472657c9.125-1.976562 16-10.09375 16-19.808593v-5.007813c0-6.933594-3.480468-13.3125-9.320312-17.0625l-110.679688-71.160156-110.683593 71.160156c-5.832031 3.742188-9.316407 10.121094-9.316407 17.054688v5.007812c0 9.714844 6.871094 17.832032 16 19.808594v32.480469h-44.945312l-64 128h28.945312v176h-8c-13.234374 0-24 10.769531-24 24v24h496v-24c0-10.414063-6.714843-19.214844-16-22.527344v-129.472656zm-96 128v-96h-80v96h-32v-128h144v128zm-16 0h-48v-80h48zm-112 0h-16v-128h16zm80-152c0-4.40625 3.589844-8 8-8 4.40625 0 8 3.59375 8 8 0 4.410156-3.59375 8-8 8-4.410156 0-8-3.589844-8-8zm30.527344 8c.894532-2.511719 1.472656-5.183594 1.472656-8 0-13.230469-10.769531-24-24-24-13.234374 0-24 10.769531-24 24 0 2.816406.574219 5.488281 1.46875 8h-45.519531l68.050781-64.992188 68.039063 64.992188zm-22.527344-87.121094-91.210937 87.121094h-25.09375l116.304687-109.03125 116.300782 109.03125h-25.09375zm-232-108.597656 88-58.664063 88 58.664063v51.71875h-56v-64h-64v64h-56zm0 67.71875h16v16h-16zm32 0h16v16h-16zm72-16h-32v-48h32zm-40 16h16v16h-16zm32 0h16v16h-16zm32 0h16v16h-16zm32 0h16v16h-16zm-168 32h192c2.8125 0 5.261719 1.519531 6.695313 3.761719l-13.058594 12.238281h-193.636719v-8c0-4.40625 3.589844-8 8-8zm299.054688-48 48 96h-18.558594l-88.496094-82.96875-29.546874 27.695312c-2.75-3.308593-6.351563-5.847656-10.453126-7.300781v-33.425781zm-307.054688-73.296875c0-1.460938.734376-2.816406 1.964844-3.597656l102.035156-65.59375 102.03125 65.59375c1.230469.789062 1.96875 2.136718 1.96875 3.597656v5.007812c0 3.203125-3.992187 5.335938-6.65625 3.5625l-97.34375-64.890625-97.347656 64.898438c-2.679687 1.773437-6.652344-.359375-6.652344-3.5625zm-35.058593 73.296875h35.058593v33.472656c-9.289062 3.3125-16 12.113281-16 22.527344v24h192.566407l-17.0625 16h-242.5625zm-28.941407 112h206.4375l-30.4375 28.535156v19.464844h16v128h-192zm432 208h-464v-8c0-4.40625 3.589844-8 8-8h448c4.40625 0 8 3.59375 8 8zm-16-32h-16v-128h16zm0 0"/><path d="m144.257812 289.511719h-80v64h80zm-64 16h16v32h-16zm48 32h-16v-32h16zm0 0"/><path d="m144.257812 433.511719h80v-64h-80zm64-16h-16v-32h16zm-48-32h16v32h-16zm0 0"/></svg>