<svg height="496pt" viewBox="0 0 496 496" width="496pt" xmlns="http://www.w3.org/2000/svg"><path d="m280 160c0-17.648438-14.351562-32-32-32s-32 14.351562-32 32 14.351562 32 32 32 32-14.351562 32-32zm-48 0c0-8.824219 7.175781-16 16-16s16 7.175781 16 16-7.175781 16-16 16-16-7.175781-16-16zm0 0"/><path d="m208 320v48h80v-48h-16v-112h-64v48h16v64zm16-80v-16h32v112h16v16h-48v-16h16v-96zm0 0"/><path d="m248 0c-136.742188 0-248 111.257812-248 248s111.257812 248 248 248 248-111.257812 248-248-111.257812-248-248-248zm0 480c-127.929688 0-232-104.070312-232-232s104.070312-232 232-232 232 104.070312 232 232-104.070312 232-232 232zm0 0"/><path d="m248 48c-41.886719 0-82.03125 12.855469-116.097656 37.191406l9.296875 13.023438c31.335937-22.382813 68.273437-34.214844 106.800781-34.214844 101.457031 0 184 82.542969 184 184 0 38.527344-11.832031 75.464844-34.214844 106.800781l13.023438 9.296875c24.335937-34.066406 37.191406-74.210937 37.191406-116.097656 0-110.28125-89.71875-200-200-200zm0 0"/><path d="m248 432c-101.457031 0-184-82.542969-184-184 0-38.535156 11.832031-75.464844 34.214844-106.800781l-13.015625-9.296875c-24.335938 34.066406-37.199219 74.210937-37.199219 116.097656 0 110.28125 89.71875 200 200 200 41.886719 0 82.03125-12.855469 116.097656-37.191406l-9.296875-13.023438c-31.335937 22.382813-68.273437 34.214844-106.800781 34.214844zm0 0"/></svg>