<svg height="496pt" viewBox="0 0 496 496" width="496pt" xmlns="http://www.w3.org/2000/svg"><path d="m456 128h-80v-30.160156l-21.976562-5.824219c-1.582032-4.710937-3.457032-9.261719-5.582032-13.601563l11.390625-19.613281-42.640625-42.648437-19.605468 11.398437c-4.355469-2.136719-8.898438-4-13.601563-5.589843l-5.824219-21.960938h-60.320312l-5.824219 21.976562c-4.703125 1.582032-9.246094 3.457032-13.601563 5.589844l-19.605468-11.398437-42.640625 42.648437 11.390625 19.617188c-2.132813 4.335937-4 8.886718-5.582032 13.597656l-21.976562 5.808594v30.160156h-80c-22.054688 0-40 17.945312-40 40v240c0 22.054688 17.945312 40 40 40h104v32h-32v16h272v-16h-32v-32h104c22.054688 0 40-17.945312 40-40v-240c0-22.054688-17.945312-40-40-40zm-320-17.839844 18.671875-4.945312 1.273437-4.320313c1.976563-6.695312 4.582032-13.039062 7.765626-18.847656l2.160156-3.957031-9.679688-16.664063 25.234375-25.234375 16.652344 9.679688 3.960937-2.167969c5.832032-3.183594 12.167969-5.792969 18.839844-7.75l4.320313-1.273437 4.960937-18.679688h35.6875l4.953125 18.679688 4.320313 1.273437c6.671875 1.957031 13.015625 4.566406 18.839844 7.75l3.960937 2.167969 16.652344-9.679688 25.234375 25.234375-9.679688 16.664063 2.160156 3.957031c3.175782 5.816406 5.789063 12.160156 7.765626 18.847656l1.273437 4.320313 18.671875 4.945312v35.6875l-18.671875 4.945313-1.273437 4.320312c-1.976563 6.695313-4.582032 13.039063-7.765626 18.847657l-2.160156 3.960937 9.679688 16.664063-19.808594 19.804687v-30.390625c0-5.960938-.808594-11.71875-2.175781-17.265625 6.566406-11.824219 10.175781-25.09375 10.175781-38.734375 0-44.113281-35.886719-80-80-80s-80 35.886719-80 80c0 13.632812 3.609375 26.894531 10.183594 38.734375-1.375 5.546875-2.183594 11.304687-2.183594 17.265625v30.390625l-19.816406-19.816406 9.679687-16.664063-2.160156-3.957031c-3.175781-5.816406-5.792969-12.160156-7.765625-18.847656l-1.273438-4.320313-18.664062-4.945312zm64 119.617188c-4.761719-2.777344-8-7.882813-8-13.777344s3.238281-11 8-13.777344zm-16-101.777344c0-35.289062 28.710938-64 64-64s64 28.710938 64 64c0 6.273438-.96875 12.441406-2.734375 18.359375-12.691406-20.574219-35.371094-34.359375-61.265625-34.359375s-48.566406 13.785156-61.257812 34.359375c-1.773438-5.925781-2.742188-12.09375-2.742188-18.359375zm104 56h-1.375c-12.457031 0-24.167969-4.847656-32.96875-13.65625l-5.65625-5.664062-5.65625 5.664062c-8.808594 8.808594-20.511719 13.65625-32.96875 13.65625h-1.375c-5.855469 0-11.273438 1.695312-16 4.449219v-4.449219c0-30.878906 25.128906-56 56-56s56 25.121094 56 56v4.449219c-4.726562-2.753907-10.144531-4.449219-16-4.449219zm-24 93.335938-16 21.328124-16-21.328124v-.136719c5.015625 1.785156 10.382812 2.800781 16 2.800781s10.984375-1.023438 16-2.800781zm-42.800781 12.265624 15.601562 20.796876-16.722656 12.539062-9.757813-29.265625zm-25.863281 9.695313 16.585937 49.765625 36.078125-27.0625 36.078125 27.054688 16.585937-49.765626 11.761719 4.40625c9.316407 3.496094 15.574219 12.527344 15.574219 22.480469v25.824219h-160v-25.824219c0-9.953125 6.257812-18.984375 15.574219-22.480469zm80.585937 23.640625-16.722656-12.539062 15.601562-20.796876 10.878907 4.078126zm-27.921875-58.9375c-17.648438 0-32-14.351562-32-32v-32.542969c11.710938-1.234375 22.761719-5.503906 32-12.769531 9.238281 7.273438 20.289062 11.535156 32 12.769531v32.542969c0 17.648438-14.351562 32-32 32zm48-61.777344c4.761719 2.777344 8 7.882813 8 13.777344s-3.238281 11-8 13.777344zm-256-58.222656h80v14.160156l21.976562 5.824219c1.582032 4.710937 3.457032 9.261719 5.582032 13.601563l-11.390625 19.613281 42.640625 42.648437 5.121094-2.976562c4.742187 5.472656 11.230468 9.320312 18.671874 10.59375 2.679688 7.847656 7.34375 14.773437 13.398438 20.214844v6.777343l-38.046875 14.261719c-15.519531 5.824219-25.953125 20.882812-25.953125 37.457031v41.824219h192v-41.824219c0-16.574219-10.433594-31.632812-25.953125-37.464843l-38.046875-14.253907v-6.777343c6.054688-5.433594 10.71875-12.359376 13.398438-20.222657 7.433593-1.273437 13.921874-5.128906 18.664062-10.59375l5.121094 2.976563 42.640625-42.648438-11.390625-19.617187c2.132812-4.335938 4-8.886719 5.582031-13.597657l21.984375-5.816406v-14.160156h80c13.230469 0 24 10.769531 24 24v216h-464v-216c0-13.230469 10.769531-24 24-24zm296 336h-176v-32h176zm120-48h-416c-13.230469 0-24-10.769531-24-24v-8h464v8c0 13.230469-10.769531 24-24 24zm0 0"/></svg>