<svg height="496pt" viewBox="0 0 496 496" width="496pt" xmlns="http://www.w3.org/2000/svg"><path d="m248 32c-17.648438 0-32 14.351562-32 32s14.351562 32 32 32 32-14.351562 32-32-14.351562-32-32-32zm0 48c-8.824219 0-16-7.175781-16-16s7.175781-16 16-16 16 7.175781 16 16-7.175781 16-16 16zm0 0"/><path d="m472 320h-45.039062l-66.960938-57.390625v57.390625h-32c-13.230469 0-24 10.769531-24 24v64c0 13.230469 10.769531 24 24 24h144c13.230469 0 24-10.769531 24-24v-64c0-13.230469-10.769531-24-24-24zm8 88c0 4.414062-3.585938 8-8 8h-144c-4.414062 0-8-3.585938-8-8v-64c0-4.414062 3.585938-8 8-8h48v-38.609375l45.039062 38.609375h50.960938c4.414062 0 8 3.585938 8 8zm0 0"/><path d="m346.046875 0-22.144531 73.816406c-1.308594-.753906-2.535156-1.609375-3.902344-2.28125-.246094-39.488281-32.457031-71.535156-72-71.535156s-71.753906 32.046875-72 71.527344c-19.617188 9.703125-33.3125 27.5625-38.046875 48.472656h-113.953125c-13.230469 0-24 10.769531-24 24v64c0 13.230469 10.769531 24 24 24h45.039062l66.960938 57.390625v-57.390625h32c13.230469 0 24-10.769531 24-24v-1.855469c5.152344 1.175781 10.496094 1.855469 16 1.855469v112h-48v48h16v32h-16v48h48v19.3125l28.6875 28.6875h22.625l28.6875-28.6875v-259.3125c39.703125 0 72-32.296875 72-72 0-20.214844-8.367188-38.816406-22.40625-52.121094l20.359375-67.878906h138.046875v-16zm-170.046875 208c0 4.414062-3.585938 8-8 8h-48v38.609375l-45.039062-38.609375h-50.960938c-4.414062 0-8-3.585938-8-8v-64c0-4.414062 3.585938-8 8-8h112c0 11.503906 2.777344 22.34375 7.601562 32h-7.601562v16h16v-2.839844c6.488281 8.03125 14.679688 14.59375 24 19.246094zm0 224v-16h16v-64h-16v-16h32v96zm112-240c-2.382812 0-4.710938-.199219-7.007812-.496094l-8.992188-1.121094v270.304688l-19.3125 19.3125h-9.375l-19.3125-19.3125v-270.304688l-8.992188 1.128907c-2.296874.289062-4.625.488281-7.007812.488281-30.871094 0-56-25.128906-56-56 0-22.992188 13.824219-43.390625 35.207031-51.960938l5.394531-2.695312-.425781-5.832031c-.078125-1.167969-.175781-2.328125-.175781-3.511719 0-30.871094 25.128906-56 56-56s56 25.128906 56 56c0 1.183594-.097656 2.34375-.175781 3.503906l-.457031 6.359375 5.425781 2.167969c21.382812 8.578125 35.207031 28.976562 35.207031 51.96875 0 30.871094-25.128906 56-56 56zm0 0"/><path d="m376 32h120v16h-120zm0 0"/><path d="m480 64h16v16h-16zm0 0"/><path d="m376 64h88v16h-88zm0 0"/><path d="m440 368h16v16h-16zm0 0"/><path d="m392 368h16v16h-16zm0 0"/><path d="m344 368h16v16h-16zm0 0"/><path d="m88 168h16v16h-16zm0 0"/><path d="m40 168h16v16h-16zm0 0"/></svg>