<svg height="499pt" viewBox="-1 0 499 499.312" width="499pt" xmlns="http://www.w3.org/2000/svg"><path d="m343.835938 248c0 8.863281-3.816407 17.3125-10.464844 23.167969l-66.664063 58.832031 10.585938 12 66.664062-58.832031c10.09375-8.894531 15.878907-21.71875 15.878907-35.167969zm0 0"/><path d="m448.554688 352c-12.132813 0-23.574219 4.503906-32.398438 12.734375-8.832031-8.230469-20.273438-12.734375-32.398438-12.734375-12.28125 0-23.457031 4.710938-31.90625 12.375l-24.167968-24.167969 37.449218-33.039062c8.605469-7.601563 15.335938-16.902344 19.894532-27.167969h23.128906c48.519531 0 88-39.480469 88-88 0-48.921875-40.410156-88.390625-89.191406-87.992188-7.878906-58.929687-58.609375-104.007812-118.808594-104.007812-35.921875 0-70.222656 16.457031-92.945312 44.289062-8.765626-2.847656-17.839844-4.289062-27.054688-4.289062-39.519531 0-74.152344 26.601562-84.710938 64.128906-46.34375 2.445313-83.289062 40.925782-83.289062 87.871094 0 48.519531 39.480469 88 88 88h22.847656c4.542969 10.207031 11.222656 19.472656 19.761719 27.03125l37.6875 33.367188-23.984375 23.984374c-8.457031-7.671874-19.632812-12.382812-31.914062-12.382812-12.132813 0-23.574219 4.503906-32.398438 12.734375-8.832031-8.230469-20.273438-12.734375-32.398438-12.734375-26.25 0-47.601562 21.351562-47.601562 47.601562 0 12.710938 4.953125 24.664063 13.945312 33.65625l66.054688 66.054688 66.0625-66.054688c8.984375-8.992187 13.9375-20.945312 13.9375-33.65625 0-8.167968-2.070312-15.859374-5.710938-22.585937l26-26 67.382813 59.65625 67.832031-59.855469 26.199219 26.199219c-3.632813 6.726563-5.703125 14.417969-5.703125 22.585937 0 12.710938 4.953125 24.664063 13.945312 33.65625l66.054688 66.054688 66.0625-66.054688c8.984375-8.992187 13.9375-20.945312 13.9375-33.65625 0-26.25-21.351562-47.601562-47.601562-47.601562zm-313.65625 69.945312-54.742188 54.742188-54.746094-54.742188c-5.964844-5.96875-9.253906-13.90625-9.253906-22.34375 0-17.425781 14.175781-31.601562 31.601562-31.601562 8.4375 0 16.375 3.289062 22.34375 9.257812l10.054688 10.054688 10.0625-10.054688c5.960938-5.96875 13.898438-9.257812 22.335938-9.257812 17.425781 0 31.601562 14.175781 31.601562 31.601562 0 8.4375-3.289062 16.375-9.257812 22.34375zm-46.742188-157.945312c-39.695312 0-72-32.304688-72-72 0-39.6875 32.28125-71.984375 72.253906-71.984375h.042969l7.816406.207031 1.328125-6.558594c6.742188-33.40625 36.414063-57.664062 70.558594-57.664062 9.183594 0 18.207031 1.761719 26.824219 5.214844l5.75 2.320312 3.671875-5c19.882812-27.03125 50.410156-42.535156 83.753906-42.535156 54.472656 0 100 42.601562 103.640625 96.984375l.550781 8.289063 8.257813-.867188c2.488281-.261719 5-.40625 7.550781-.40625 39.695312 0 72 32.304688 72 72s-32.304688 72-72 72h-18c1.078125-5.222656 1.671875-10.585938 1.671875-16v-1.078125c0-43.515625-35.398437-78.914063-79.007813-78.914063-17.9375 0-35.503906 6.191407-49.480468 17.441407l-15.3125 12.320312-15.839844-12.601562c-13.902344-11.078125-31.351562-17.167969-49.121094-17.167969-21.140625 0-41 8.257812-55.917968 23.238281-14.921876 14.992188-23.089844 34.890625-22.992188 56.035157v1.03125c.023438 5.320312.632812 10.566406 1.695312 15.695312zm53.214844 31.046875c-13.398438-11.855469-21.128906-28.925781-21.207032-46.816406v-1.03125c-.070312-16.863281 6.433594-32.726563 18.328126-44.671875 11.894531-11.941406 27.71875-18.527344 44.582031-18.527344 14.167969 0 28.074219 4.855469 39.160156 13.671875l25.867187 20.566406 25.277344-20.34375c11.136719-8.957031 25.144532-13.894531 39.535156-13.894531 34.691407 0 62.921876 28.222656 62.921876 62.910156v1.089844c0 18.039062-7.761719 35.238281-21.296876 47.175781l-106.695312 94.144531zm329.527344 126.898437-54.742188 54.742188-54.746094-54.742188c-5.964844-5.96875-9.253906-13.90625-9.253906-22.34375 0-17.425781 14.175781-31.601562 31.601562-31.601562 8.4375 0 16.375 3.289062 22.34375 9.257812l10.054688 10.054688 10.0625-10.054688c5.960938-5.96875 13.898438-9.257812 22.335938-9.257812 17.425781 0 31.601562 14.175781 31.601562 31.601562 0 8.4375-3.289062 16.375-9.257812 22.34375zm0 0"/></svg>