<svg height="497pt" viewBox="0 0 497.296 497" width="497pt" xmlns="http://www.w3.org/2000/svg"><path d="m120.648438 64.148438h256v96h16v-120c0-22.054688-17.945313-40-40-40h-208c-22.054688 0-40 17.945312-40 40v120h16zm24-48h208c13.230468 0 24 10.765624 24 24v8h-256v-8c0-13.234376 10.765624-24 24-24zm0 0"/><path d="m376.648438 416.148438h-256v-80h-16v120c0 22.054687 17.945312 40 40 40h208c22.054687 0 40-17.945313 40-40v-120h-16zm-24 64h-208c-13.234376 0-24-10.769532-24-24v-24h256v24c0 13.230468-10.769532 24-24 24zm0 0"/><path d="m208.648438 448.148438h80v16h-80zm0 0"/><path d="m344.648438 176.148438v16h152.648437l-42.402344-53-12.496093 10 21.601562 27zm0 0"/><path d="m152.648438 176.148438h-119.351563l21.597656-27-12.496093-10-42.398438 53h152.648438zm0 0"/><path d="m152.648438 320.148438v-16h-152.648438l42.398438 53 12.496093-10-21.597656-27zm0 0"/><path d="m344.648438 320.148438h119.351562l-21.601562 27 12.496093 10 42.402344-53h-152.648437zm0 0"/><path d="m16.648438 208.148438h16v80h-16zm0 0"/><path d="m128.648438 208.148438h16v80h-16zm0 0"/><path d="m48.648438 240.148438v16c0 17.648437 14.351562 32 32 32 17.648437 0 32-14.351563 32-32v-16c0-17.648438-14.351563-32-32-32-17.648438 0-32 14.351562-32 32zm48 0v16c0 8.824218-7.175782 16-16 16-8.824219 0-16-7.175782-16-16v-16c0-8.824219 7.175781-16 16-16 8.824218 0 16 7.175781 16 16zm0 0"/><path d="m432.648438 208.148438h16v80h-16zm0 0"/><path d="m464.648438 208.148438h16v80h-16zm0 0"/><path d="m352.648438 240.148438v16c0 17.648437 14.351562 32 32 32 17.648437 0 32-14.351563 32-32v-16c0-17.648438-14.351563-32-32-32-17.648438 0-32 14.351562-32 32zm48 0v16c0 8.824218-7.175782 16-16 16-8.824219 0-16-7.175782-16-16v-16c0-8.824219 7.175781-16 16-16 8.824218 0 16 7.175781 16 16zm0 0"/><path d="m336.648438 226.378906-19.648438-6.542968 9.265625-18.519532-30.785156-30.785156-18.511719 9.257812-6.554688-19.640624h-43.527343l-6.550781 19.640624-18.511719-9.257812-30.785157 30.785156 9.265626 18.519532-19.65625 6.542968v43.527344l19.648437 6.546875-9.265625 18.519531 30.785156 30.785156 18.511719-9.257812 6.550781 19.648438h43.527344l6.554688-19.640626 18.511718 9.257813 30.785156-30.785156-9.265624-18.519531 19.65625-6.546876zm-16 32-18.382813 6.128906-1.34375 3.558594c-.386719 1.019532-.785156 2.019532-1.226563 3l-1.550781 3.464844 8.648438 17.296875-14.472657 14.472656-17.296874-8.648437-3.464844 1.550781c-1 .449219-2.007813.839844-3.03125 1.242187l-3.527344 1.351563-6.121094 18.351563h-20.472656l-6.117188-18.351563-3.527343-1.351563c-1.027344-.402343-2.042969-.800781-3.035157-1.242187l-3.460937-1.550781-17.296875 8.648437-14.472656-14.472656 8.648437-17.296875-1.550781-3.464844c-.441406-.980468-.839844-1.980468-1.226562-3l-1.34375-3.558594-18.375-6.128906v-20.472656l18.382812-6.125 1.34375-3.5625c.386719-1.015625.785156-2.015625 1.226562-3l1.550782-3.460938-8.648438-17.296874 14.472656-14.472657 17.296876 8.648438 3.460937-1.550781c1-.449219 2.007813-.84375 3.035156-1.242188l3.527344-1.351562 6.117187-18.34375h20.472657l6.121093 18.351562 3.527344 1.351562c1.023438.402344 2.039063.800782 3.03125 1.242188l3.464844 1.550781 17.296875-8.648437 14.472656 14.472656-8.648437 17.296875 1.550781 3.460937c.441406.984376.839844 1.984376 1.226563 3l1.34375 3.5625 18.375 6.125zm0 0"/><path d="m248.648438 208.148438c-22.054688 0-40 17.945312-40 40 0 22.054687 17.945312 40 40 40 22.054687 0 40-17.945313 40-40 0-22.054688-17.945313-40-40-40zm0 64c-13.234376 0-24-10.769532-24-24 0-13.234376 10.765624-24 24-24 13.230468 0 24 10.765624 24 24 0 13.230468-10.769532 24-24 24zm0 0"/></svg>