<svg height="496pt" viewBox="0 0 496 496" width="496pt" xmlns="http://www.w3.org/2000/svg"><path d="m456 128h-8v-128h-400v128h-8c-22.054688 0-40 17.945312-40 40v240c0 22.054688 17.945312 40 40 40h104v32h-32v16h272v-16h-32v-32h104c22.054688 0 40-17.945312 40-40v-240c0-22.054688-17.945312-40-40-40zm-315.28125 96h-44.71875v-112h128v34.65625c-11.96875 2.625-23.183594 7.214844-33.390625 13.34375h-78.609375v16h57.769531c-5 4.886719-9.53125 10.246094-13.546875 16h-44.222656v16h34.960938c-2.457032 5.144531-4.585938 10.464844-6.242188 16zm107.28125-64c52.9375 0 96 43.0625 96 96s-43.0625 96-96 96-96-43.0625-96-96 43.0625-96 96-96zm91.785156 32c-4.023437-5.753906-8.546875-11.113281-13.546875-16h57.761719v-16h-78.609375c-10.207031-6.128906-21.414063-10.71875-33.390625-13.34375v-34.65625h128v112h-44.71875c-1.65625-5.535156-3.792969-10.855469-6.242188-16h34.960938v-16zm18.933594 48h57.28125v-144h-160v48.40625c-2.65625-.191406-5.296875-.40625-8-.40625s-5.34375.214844-8 .40625v-48.40625h-160v144h57.28125c-.761719 5.238281-1.28125 10.550781-1.28125 16 0 11.121094 1.679688 21.847656 4.71875 32h-76.71875v-208h368v208h-76.71875c3.039062-10.152344 4.71875-20.878906 4.71875-32 0-5.449219-.519531-10.761719-1.28125-16zm73.28125-224v48h-368v-48zm-392 128h8v160h98.960938c18.023437 37.777344 56.472656 64 101.039062 64s83.015625-26.222656 101.039062-64h98.960938v-160h8c13.230469 0 24 10.769531 24 24v216h-464v-216c0-13.230469 10.769531-24 24-24zm296 336h-176v-32h176zm120-48h-416c-13.230469 0-24-10.769531-24-24v-8h464v8c0 13.230469-10.769531 24-24 24zm0 0"/><path d="m80 32h16v16h-16zm0 0"/><path d="m112 32h16v16h-16zm0 0"/><path d="m144 32h16v16h-16zm0 0"/><path d="m310.945312 203.96875-13.890624-7.9375-59.261719 103.710938-40.671875-33.886719-10.242188 12.289062 55.328125 46.113281zm0 0"/><path d="m112 128h96v16h-96zm0 0"/><path d="m288 128h96v16h-96zm0 0"/></svg>