<svg height="496pt" viewBox="0 0 496 496" width="496pt" xmlns="http://www.w3.org/2000/svg"><path d="m32 32h16v16h-16zm0 0"/><path d="m336 32h16v16h-16zm0 0"/><path d="m192 48c-79.398438 0-144 64.601562-144 144v256h288v-144h-14.703125c-10.105469 0-19.183594-5.585938-23.839844-14.273438 23.832031-25.703124 38.542969-59.992187 38.542969-97.726562 0-79.398438-64.601562-144-144-144zm0 16c70.574219 0 128 57.425781 128 128s-57.425781 128-128 128c-6.886719 0-13.71875-.753906-20.480469-1.832031l18-46.296875c.832031.015625 1.640625.128906 2.480469.128906 44.113281 0 80-35.886719 80-80s-35.886719-80-80-80-80 35.886719-80 80c0 25.960938 12.792969 50.167969 33.710938 65.089844l-23.679688 42.09375c-35.976562-23.542969-58.03125-63.894532-58.03125-107.183594 0-70.574219 57.425781-128 128-128zm-28.886719 194.792969c.964844-1.722657 2.789063-2.792969 4.765625-2.792969h2.648438c3.015625 0 5.472656 2.457031 5.472656 5.472656 0 .671875-.128906 1.34375-.375 1.984375l-49.191406 126.496094c-2.371094 6.101563-8.128906 10.046875-14.679688 10.046875-8.691406 0-15.753906-7.0625-15.753906-15.753906v-2.023438c0-2.695312.695312-5.367187 2.023438-7.71875zm28.078125-2.832031c-2.457031-9.160157-10.742187-15.960938-20.664062-15.960938h-2.648438c-4.632812 0-8.957031 1.640625-12.574218 4.296875-16.9375-11.921875-27.304688-31.394531-27.304688-52.296875 0-35.289062 28.710938-64 64-64s64 28.710938 64 64-28.710938 64-64 64c-.273438 0-.535156-.039062-.808594-.039062zm-77.007812 57.167968-3.863282 6.871094h-46.320312v-62.230469c11.441406 22.253907 28.617188 41.46875 50.183594 55.359375zm-50.183594 22.871094h37.320312l-17.242187 30.65625c-2.671875 4.742188-4.078125 10.128906-4.078125 15.566406v2.023438c0 17.507812 14.246094 31.753906 31.753906 31.753906 13.191406 0 24.8125-7.945312 29.589844-20.246094l24.191406-62.21875c3.464844.640625 6.953125 1.167969 10.457032 1.5625v96.902344h-111.992188zm256-16.015625v16.015625h-72v16h72v16h-112v16h112v16h-112v16h112v16h-128v-96c35.792969 0 68.503906-13.207031 93.71875-34.902344 7.648438 11.253906 20.257812 18.46875 34.28125 18.886719zm0 0"/><path d="m224 192c0-17.648438-14.351562-32-32-32s-32 14.351562-32 32 14.351562 32 32 32 32-14.351562 32-32zm-48 0c0-8.824219 7.175781-16 16-16s16 7.175781 16 16-7.175781 16-16 16-16-7.175781-16-16zm0 0"/><path d="m496 278.214844v-60.429688l-23.136719-5.90625c-.160156-.390625-.328125-.78125-.488281-1.167968l12.183594-20.535157-36.558594-36.566406v-91.082031c9.289062-3.3125 16-12.113282 16-22.527344 0-13.230469-10.769531-24-24-24s-24 10.769531-24 24c0 10.414062 6.710938 19.214844 16 22.527344v90.753906l-10.703125 6.351562c-.394531-.167968-.785156-.328124-1.167969-.488281l-5.914062-23.144531h-30.214844v-96c0-22.054688-17.945312-40-40-40h-304c-22.054688 0-40 17.945312-40 40v416c0 22.054688 17.945312 40 40 40h304c22.054688 0 40-17.945312 40-40v-96h30.214844l5.90625-23.136719c.390625-.160156.78125-.328125 1.167968-.488281l10.710938 6.351562v90.753907c-9.289062 3.3125-16 12.113281-16 22.527343 0 13.230469 10.769531 24 24 24s24-10.769531 24-24c0-10.414062-6.710938-19.214843-16-22.527343v-91.089844l36.558594-36.558594-12.183594-20.535156c.167969-.394531.328125-.785156.488281-1.167969zm-128 177.785156c0 13.230469-10.769531 24-24 24h-304c-13.230469 0-24-10.769531-24-24v-416c0-13.230469 10.769531-24 24-24h304c13.230469 0 24 10.769531 24 24zm72-424c4.40625 0 8 3.59375 8 8s-3.59375 8-8 8-8-3.59375-8-8 3.59375-8 8-8zm-56 200c8.824219 0 16 7.175781 16 16s-7.175781 16-16 16zm0 48c17.648438 0 32-14.351562 32-32s-14.351562-32-32-32v-16c26.472656 0 48 21.527344 48 48s-21.527344 48-48 48zm56 184c-4.40625 0-8-3.59375-8-8s3.59375-8 8-8 8 3.59375 8 8-3.59375 8-8 8zm24.457031-160.6875-25.152343 25.152344-17.105469-10.144532-3.855469 1.839844c-2.480469 1.183594-5.015625 2.238282-7.632812 3.167969l-4.023438 1.425781-4.902344 19.246094h-17.785156v-32c35.289062 0 64-28.710938 64-64s-28.710938-64-64-64v-32h17.785156l4.910156 19.257812 4.023438 1.421876c2.617188.921874 5.152344 1.984374 7.632812 3.167968l3.855469 1.839844 17.105469-10.144531 25.152344 25.152343-10.144532 17.105469 1.839844 3.855469c1.183594 2.480469 2.238282 5.015625 3.167969 7.632812l1.425781 4.023438 19.246094 4.902344v35.570312l-19.246094 4.910156-1.433594 4.015626c-.929687 2.617187-1.984374 5.160156-3.167968 7.640624l-1.839844 3.855469zm0 0"/></svg>