<svg height="496pt" viewBox="0 0 496 496" width="496pt" xmlns="http://www.w3.org/2000/svg"><path d="m472 112h-75.753906c-4.175782 0-8.292969 1.097656-11.902344 3.167969l-16.34375 9.335937v-124.503906h-299.3125l-68.6875 68.6875v427.3125h368v-68.71875c41.230469-12.320312 72.457031-47.800781 78.71875-91.28125h25.28125c13.230469 0 24-10.769531 24-24v-176c0-13.230469-10.769531-24-24-24zm-79.710938 17.046875c1.199219-.6875 2.566407-1.046875 3.957032-1.046875h75.753906c4.40625 0 8 3.59375 8 8v40h-288v-8c0-4.40625 3.59375-8 8-8h138.128906zm-328.289062-101.734375v36.6875h-36.6875zm288 452.6875h-336v-400h64v-64h272v117.648438l-18.128906 10.351562h-133.871094c-13.230469 0-24 10.769531-24 24v144c0 13.230469 10.769531 24 24 24h25.28125c7.808594 54.183594 54.40625 96 110.71875 96 5.449219 0 10.761719-.519531 16-1.28125zm-112-160c0-50.238281 38.808594-91.503906 88-95.59375v17.632812c0 7.289063-2.40625 14.503907-6.777344 20.335938l-7.238281 9.65625c-6.441406 8.578125-9.984375 19.207031-9.984375 30.082031 0 12.917969-7.175781 24.535157-18.726562 30.3125-4.6875 2.34375-9.929688 3.574219-15.160157 3.574219h-28.664062c-.882813-5.214844-1.449219-10.535156-1.449219-16zm99.351562 75.078125 8.496094 2.128906c3.425782.855469 6.089844 3.519531 6.945313 6.953125l2.351562 9.414063c-6.808593 1.546875-13.871093 2.425781-21.144531 2.425781-41.703125 0-77.175781-26.777344-90.398438-64h24.511719c7.695313 0 15.414063-1.824219 22.3125-5.265625 17.007813-8.496094 27.574219-25.597656 27.574219-44.773437 0-7.28125 2.40625-14.503907 6.777344-20.335938l7.238281-9.65625c6.441406-8.578125 9.984375-19.207031 9.984375-29.929688v-17.632812c25.105469 2.089844 47.441406 13.875 63.351562 31.59375h-13.800781c-14.085937 0-25.550781 11.464844-25.550781 25.542969v5.066406c0 3.191406-1.59375 6.167969-4.257812 7.941406l-8.367188 5.578125c-7.117188 4.757813-11.375 12.703125-11.375 21.261719v9.960937c0 4.121094-2.625 7.761719-6.527344 9.0625-10.457031 3.480469-17.472656 13.21875-17.472656 24.234376v5.648437c0 11.742187 7.960938 21.933594 19.351562 24.78125zm33.089844 13.691406-2.121094-8.496093c-2.296874-9.175782-9.425781-16.296876-18.59375-18.585938l-8.496093-2.128906c-4.253907-1.0625-7.230469-4.871094-7.230469-9.261719v-5.648437c0-4.121094 2.625-7.761719 6.527344-9.0625 10.457031-3.480469 17.472656-13.21875 17.472656-24.234376v-9.960937c0-3.191406 1.59375-6.167969 4.257812-7.941406l8.367188-5.578125c7.117188-4.757813 11.375-12.703125 11.375-21.261719v-5.066406c0-5.261719 4.289062-9.542969 9.550781-9.542969h25.464844c8.199219 14.136719 12.984375 30.503906 12.984375 48 0 40.039062-24.65625 74.390625-59.558594 88.769531zm99.558594-88.769531h-24c0-61.761719-50.238281-112-112-112s-112 50.238281-112 112h-24c-4.40625 0-8-3.585938-8-8v-120h288v120c0 4.414062-3.59375 8-8 8zm0 0"/><path d="m400 144h64v16h-64zm0 0"/><path d="m32 464h176v-112h-176zm16-96h144v80h-144zm0 0"/><path d="m160 32h176v16h-176zm0 0"/><path d="m96 64h240v16h-240zm0 0"/><path d="m32 96h304v16h-304zm0 0"/><path d="m32 128h128v16h-128zm0 0"/><path d="m32 160h128v16h-128zm0 0"/><path d="m32 192h128v16h-128zm0 0"/><path d="m144 224h16v16h-16zm0 0"/><path d="m32 224h96v16h-96zm0 0"/></svg>