<svg height="496pt" viewBox="0 0 496 496" width="496pt" xmlns="http://www.w3.org/2000/svg"><path d="m298.992188 433.671875-26.992188-7.703125v-2.128906c9.96875-7.511719 16-19.328125 16-31.832032v-14.335937c0-21.503906-16.007812-39.726563-36.449219-41.503906-11.191406-.984375-22.34375 2.800781-30.574219 10.351562-8.25 7.550781-12.976562 18.304688-12.976562 29.480469v16c0 12.503906 6.03125 24.328125 16 31.832031v2.128907l-26.992188 7.710937c-17.078124 4.886719-29.007812 20.703125-29.007812 38.464844v23.863281h160v-23.863281c0-17.761719-11.929688-33.578125-29.007812-38.464844zm13.007812 46.328125h-128v-7.863281c0-10.664063 7.160156-20.152344 17.40625-23.082031l38.59375-11.023438v-23.070312l-3.976562-2.3125c-7.527344-4.382813-12.023438-12.105469-12.023438-20.648438v-16c0-6.703125 2.839844-13.160156 7.792969-17.695312 5.007812-4.601563 11.511719-6.816407 18.382812-6.207032 12.230469 1.0625 21.824219 12.285156 21.824219 25.566406v14.335938c0 8.542969-4.496094 16.265625-12.023438 20.648438l-3.976562 2.3125v23.070312l38.59375 11.023438c10.246094 2.9375 17.40625 12.425781 17.40625 23.082031zm0 0"/><path d="m298.992188 225.671875-26.992188-7.703125v-2.128906c9.96875-7.511719 16-19.328125 16-31.832032v-14.335937c0-21.503906-16.007812-39.726563-36.449219-41.503906-11.191406-1-22.34375 2.800781-30.574219 10.351562-8.25 7.550781-12.976562 18.304688-12.976562 29.480469v16c0 12.503906 6.03125 24.328125 16 31.832031v2.128907l-26.992188 7.710937c-17.078124 4.886719-29.007812 20.703125-29.007812 38.464844v23.863281h160v-23.863281c0-17.761719-11.929688-33.578125-29.007812-38.464844zm13.007812 46.328125h-128v-7.863281c0-10.664063 7.160156-20.152344 17.40625-23.082031l38.59375-11.023438v-23.070312l-3.976562-2.3125c-7.527344-4.382813-12.023438-12.105469-12.023438-20.648438v-16c0-6.703125 2.839844-13.160156 7.792969-17.695312 5.007812-4.601563 11.511719-6.808594 18.382812-6.207032 12.230469 1.0625 21.824219 12.285156 21.824219 25.566406v14.335938c0 8.542969-4.496094 16.265625-12.023438 20.648438l-3.976562 2.3125v23.070312l38.59375 11.023438c10.246094 2.9375 17.40625 12.425781 17.40625 23.082031zm0 0"/><path d="m466.992188 433.671875-26.992188-7.703125v-2.128906c9.96875-7.511719 16-19.328125 16-31.832032v-14.335937c0-21.503906-16.007812-39.726563-36.449219-41.503906-11.207031-.984375-22.335937 2.800781-30.574219 10.351562-8.25 7.550781-12.976562 18.304688-12.976562 29.480469v16c0 12.503906 6.03125 24.328125 16 31.832031v2.128907l-26.992188 7.710937c-17.078124 4.886719-29.007812 20.703125-29.007812 38.464844v23.863281h160v-23.863281c0-17.761719-11.929688-33.578125-29.007812-38.464844zm13.007812 46.328125h-128v-7.863281c0-10.664063 7.160156-20.152344 17.40625-23.082031l38.59375-11.023438v-23.070312l-3.976562-2.3125c-7.527344-4.382813-12.023438-12.105469-12.023438-20.648438v-16c0-6.703125 2.839844-13.160156 7.792969-17.695312 5.007812-4.601563 11.511719-6.816407 18.382812-6.207032 12.230469 1.0625 21.824219 12.285156 21.824219 25.566406v14.335938c0 8.542969-4.496094 16.265625-12.023438 20.648438l-3.976562 2.3125v23.070312l38.59375 11.023438c10.246094 2.9375 17.40625 12.425781 17.40625 23.082031zm0 0"/><path d="m130.992188 433.671875-26.992188-7.703125v-2.128906c9.96875-7.511719 16-19.328125 16-31.832032v-14.335937c0-21.503906-16.007812-39.726563-36.449219-41.503906-11.175781-.984375-22.335937 2.800781-30.574219 10.351562-8.25 7.550781-12.976562 18.304688-12.976562 29.480469v16c0 12.503906 6.03125 24.328125 16 31.832031v2.128907l-26.992188 7.710937c-17.078124 4.886719-29.007812 20.703125-29.007812 38.464844v23.863281h160v-23.863281c0-17.761719-11.929688-33.578125-29.007812-38.464844zm13.007812 46.328125h-128v-7.863281c0-10.664063 7.160156-20.152344 17.40625-23.082031l38.59375-11.023438v-23.070312l-3.976562-2.3125c-7.527344-4.382813-12.023438-12.105469-12.023438-20.648438v-16c0-6.703125 2.839844-13.160156 7.792969-17.695312 5.007812-4.601563 11.519531-6.816407 18.382812-6.207032 12.230469 1.0625 21.824219 12.285156 21.824219 25.566406v14.335938c0 8.542969-4.496094 16.265625-12.023438 20.648438l-3.976562 2.3125v23.070312l38.59375 11.023438c10.246094 2.9375 17.40625 12.425781 17.40625 23.082031zm0 0"/><path d="m256 96v-16c8.824219 0 16-7.175781 16-16h200c13.230469 0 24-10.769531 24-24s-10.769531-24-24-24h-200c0-8.824219-7.175781-16-16-16h-16c-8.824219 0-16 7.175781-16 16h-200c-13.230469 0-24 10.769531-24 24s10.769531 24 24 24h200c0 8.824219 7.175781 16 16 16v16h-51.3125l-22.070312 22.070312 17.957031 44.898438 14.859375-5.945312-14.042969-35.101563 9.921875-9.921875h105.375l9.929688 9.929688-14.042969 35.101562 14.859375 5.945312 17.957031-44.898437-22.078125-22.078125zm-232-48c-4.40625 0-8-3.59375-8-8s3.59375-8 8-8h200v16zm448-16c4.40625 0 8 3.59375 8 8s-3.59375 8-8 8h-200v-16zm-232-16h16l.007812 48h-16.007812zm0 0"/><path d="m448 240h35.3125l-67.3125-67.3125-67.3125 67.3125h35.3125v48h16v-64h-12.6875l28.6875-28.6875 28.6875 28.6875h-12.6875v64h16zm0 0"/><path d="m384 304h16v16h-16zm0 0"/><path d="m432 304h16v16h-16zm0 0"/><path d="m112 240h35.3125l-67.3125-67.3125-67.3125 67.3125h35.3125v48h16v-64h-12.6875l28.6875-28.6875 28.6875 28.6875h-12.6875v64h16zm0 0"/><path d="m48 304h16v16h-16zm0 0"/><path d="m96 304h16v16h-16zm0 0"/></svg>