<svg height="496pt" viewBox="0 0 496 496" width="496pt" xmlns="http://www.w3.org/2000/svg"><path d="m160 216h-16c0 17.648438 14.351562 32 32 32s32-14.351562 32-32h-16c0 8.824219-7.175781 16-16 16s-16-7.175781-16-16zm0 0"/><path d="m144 168c0 4.417969-3.582031 8-8 8s-8-3.582031-8-8 3.582031-8 8-8 8 3.582031 8 8zm0 0"/><path d="m224 168c0 4.417969-3.582031 8-8 8s-8-3.582031-8-8 3.582031-8 8-8 8 3.582031 8 8zm0 0"/><path d="m496 156.6875-68.6875-68.6875h-132.175781c-3.28125-18.128906-16.257813-33.207031-34.121094-38.886719-20.917969-30.777343-55.527344-49.113281-92.800781-49.113281-61.871094 0-112.214844 50.34375-112.214844 112.214844v90.121094c0 30.046874-16.695312 57.0625-43.574219 70.503906l-7.160156 3.574218 3.574219 7.160157c.558594 1.113281 10.894531 21.105469 38.191406 30.984375l-8.75 2.921875c-22.890625 7.625-38.28125 28.976562-38.28125 53.113281v125.40625h352v-72h144zm-64-41.375 36.6875 36.6875h-36.6875zm-240.839844 17.113281c-2.425781-4.839843-3.335937-10.265625-2.746094-15.554687 17.976563 11.816406 38.171876 20.511718 59.585938 25.578125v57.550781c0 39.703125-32.296875 72-72 72s-72-32.296875-72-72v-80.921875c19.023438 11.632813 40.351562 19.335937 62.472656 22.496094l31.519532 4.496093zm-15.160156 155.574219c14.40625 0 27.984375-3.550781 40-9.710938v13.957032l-40 33.339844-40-33.339844v-13.957032c12.015625 6.160157 25.59375 9.710938 40 9.710938zm-49.703125 17 37.847656 31.535156-41.222656 41.226563-25.28125-63.21875zm40.480469 95h18.445312l13.335938 80h-45.117188zm20.261718-16h-22.078124l-8.503907-17.144531 19.542969-19.542969 19.542969 19.542969zm.808594-47.464844 37.847656-31.535156 28.65625 9.550781-25.28125 63.21875zm44.152344-46.304687v-22.40625c13.6875-11.320313 23.824219-26.726563 28.710938-44.304688 7.59375-.902343 14.480468-3.886719 20.160156-8.449219 3.722656 27.921876 19.527344 52.585938 43.542968 67.59375-6.871093 8.023438-22.460937 20.9375-51.308593 21.273438zm32-90.230469v-38.527344c9.289062 3.3125 16 12.113282 16 22.527344 0 10.535156-6.871094 19.414062-16.335938 22.632812.167969-2.199218.335938-4.394531.335938-6.632812zm-95.785156-184c32.25 0 62.175781 16.015625 80.066406 42.839844l2.78125 4.167968 3 .753907c15.273438 3.8125 25.9375 17.476562 25.9375 33.222656v55.222656c-4.671875-3.535156-10.054688-6.183593-16-7.390625v-15.351562l-7.199219-1.464844c-24.496093-4.894531-48.015625-15.414062-68-30.398438l-7.664062-5.753906-4.289063 8.566406c-4.023437 8.050782-5.40625 17.128907-4.152344 25.882813l-3.960937-.570313c-24.574219-3.503906-48.070313-13.230468-67.933594-28.132812l-12.800781-9.59375v56.808594c-5.945312 1.214844-11.328125 3.855468-16 7.390625v-39.984375c0-53.046875 43.167969-96.214844 96.214844-96.214844zm-79.878906 190.632812c-9.464844-3.21875-16.335938-12.097656-16.335938-22.632812 0-10.414062 6.710938-19.214844 16-22.527344v38.527344c0 2.238281.167969 4.433594.335938 6.632812zm-60.769532 76.039063c24.019532-15.007813 39.832032-39.671875 43.5625-67.601563 5.679688 4.5625 12.566406 7.546876 20.160156 8.449219 4.886719 17.578125 15.023438 32.984375 28.710938 44.304688v22.40625l-41.105469 13.707031c-28.917969-.335938-44.46875-13.226562-51.328125-21.265625zm-11.566406 87.921875c0-17.242188 10.992188-32.496094 27.351562-37.945312l39.082032-13.023438 34.644531 86.613281 27.441406-27.4375 7.167969 14.4375-14.464844 86.761719h-57.222656v-64h-16v64h-48zm320 109.40625h-48v-64h-16v64h-57.222656l-14.457032-86.761719 7.167969-14.4375 27.441407 27.4375 34.644531-86.613281 39.082031 13.023438c16.351562 5.457031 27.34375 20.703124 27.34375 37.945312zm16-72v-37.40625c0-6.480469-1.183594-12.730469-3.257812-18.59375h115.257812v-16h-16v-56h-16v56h-16v-72h-16v72h-16v-40h-16v40h-28.113281c-6.605469-8.382812-15.527344-14.976562-26.175781-18.519531l-8.75-2.921875c27.296874-9.878906 37.640624-29.863282 38.191406-30.984375l3.574218-7.160157-7.160156-3.574218c-26.871094-13.441406-43.566406-40.457032-43.566406-70.503906v-98.335938h120v64h64v240zm0 0"/><path d="m448 184h16v16h-16zm0 0"/><path d="m312 184h120v16h-120zm0 0"/><path d="m312 216h152v16h-152zm0 0"/></svg>